<svg width="334" height="335" viewBox="0 0 334 335" version="1.1" xmlns="http://www.w3.org/2000/svg"><title>earth</title><g stroke="none" stroke-width="1" fill="none" fill-rule="evenodd"><g fill-rule="nonzero"><path d="M333 168.5c0 91.403-74.097 165.5-165.5 165.5S2 259.903 2 168.5 76.097 3 167.5 3 333 77.097 333 168.5" fill-opacity=".05" fill="#24D4DE"/><path d="M304.185 167.557c0 75.971-61.587 137.558-137.558 137.558-75.971 0-137.559-61.587-137.559-137.559 0-75.971 61.588-137.558 137.56-137.558 75.97 0 137.557 61.587 137.557 137.558" fill-opacity=".05" fill="#24D4DE"/><path d="M284.28 167.557c0 64.978-52.675 117.653-117.653 117.653-64.978 0-117.653-52.675-117.653-117.653 0-64.979 52.675-117.654 117.653-117.654 64.978 0 117.653 52.675 117.653 117.654" fill="#92E4FF"/><path d="M105.668 77.818l7.39-1.881-2.504 8.511-6.509 7.51c5.174 5.173 10.348 10.346 15.52 15.52l12.016-8.511 5.508-16.521 28.537 6.508 6.007 14.018-40.052 39.051-1.316 10.268-1.187 9.258-11.014-9.013-14.52 3.004-2.002 17.523 13.017-6.508 10.013 21.528 66.086 33.043-43.498 62.47a116.748 116.748 0 0 1-11.792-2.593l1.72-31.84-17.021-27.536 2.503-25.534-34.044-18.524-25.033-39.551.037-2.17.445-25.805A118.1 118.1 0 0 1 84.183 83.63l1.339-.684 20.146-5.128zm13.397-10.893l12.516-7.009 5.508 8.01-4.507 7.51-12.515 4.006-1.002-12.517zm25.033 8.01l1.501-7.009 7.01-1.501 3.004 6.508-11.515 2.003v-.001z" fill="#78C800"/><path d="M166.627 49.903a119.2 119.2 0 0 0-11.474.558l21.987 7.953.501 10.014 24.032 15.52 1.001-14.52 13.015-8.831c-14.935-6.862-31.55-10.694-49.062-10.694" fill="#FFF"/><path d="M279.715 135.003l-19.466-13.507-21.528 8.511 1.001-13.016 8.511-4.006-2.003-5.507 5.508-4.505 16.026 4.451a116.965 116.965 0 0 1 11.95 27.58l.001-.001zm4.013 21.146c.361 3.754.552 7.559.552 11.407 0 22.344-6.228 43.232-17.043 61.025l-5.987-35.492-22.53-11.514-5.006-34.044 25.033-18.024 7.009 13.017 7.01-3.505 10.962 17.13zm-25.982-56.18l-7.51-2.003-4.506-10.514 12.016 12.516v.001z" fill="#78C800"/></g></g></svg>