<?xml version="1.0" encoding="UTF-8"?>
<svg width="1440px" height="696px" viewBox="0 0 1440 696" version="1.1" xmlns="http://www.w3.org/2000/svg" xmlns:xlink="http://www.w3.org/1999/xlink">
    <!-- Generator: Sketch 49.1 (51147) - http://www.bohemiancoding.com/sketch -->
    <title>grommet-home-do-layer-2</title>
    <desc>Created with Sketch.</desc>
    <defs></defs>
    <g id="Page-1" stroke="none" stroke-width="1" fill="none" fill-rule="evenodd">
        <g id="grommet-home-do-layer-2" transform="translate(0.000000, -399.000000)">
            <polygon id="Shape" stroke="#EB6060" stroke-width="46" opacity="0.5" points="741 1128 438 1128 258 944 582 1114"></polygon>
            <polygon id="Shape" fill="#FFDB47" points="490 1094 435 1037 510 1057 394 930 534 948 435 863 481 863 348 722 556 852 424 566 644 727 606 503 713 694 790 641 755 751 1061 503 850 843 946 803 903 873 1150 751 925 948 1189 972 925 1051 957 1094"></polygon>
            <polygon id="Shape" stroke="#60EBE1" stroke-width="46" opacity="0.5" points="563 1128 396 1031 1312 644 832 1114 1161 1031 977 1128"></polygon>
            <polygon id="Shape" fill="#FD9A69" style="mix-blend-mode: color;" points="456 1095 255 981 549 1047 134 672 579 927 481 759 631 842 525 513 716 804 876 513 826 828 913 794 866 907 1273 927 666 1095"></polygon>
            <polygon id="Shape" fill="#01C781" points="296 1068 154 996 64 940 177 957"></polygon>
            <polygon id="Shape" fill="#FFDB47" points="1134 887 1297 887 1391 822 1287 843"></polygon>
            <polygon id="Shape" fill="#FFDB47" points="263 561 229 592 405 685 310 581 310 522 95 431"></polygon>
            <polygon id="Shape" fill="#EB6060" opacity="0.799999952" points="1005 690 1154 648 1116 632 1231 483"></polygon>
            <g id="gremlin" transform="translate(310.000000, 455.000000)">
                <path d="M392.261985,464.480325 L399.323525,475.475841 C314.021314,525.631164 264.904608,553.22196 251.973408,558.248227 C232.576608,565.787628 108.417864,540.4358 92.8422182,537.689394 C77.2665726,534.942987 71.9068098,532.872998 68.4325148,522.425724 C64.9582199,511.97845 80.8200814,497.727879 95.179672,490.277928 C109.539263,482.827977 129.709407,507.843663 150.00381,515.517283 C163.533412,520.633029 194.32276,530.771773 242.371854,545.933513 L392.261985,464.480325 Z" id="Shape" fill="#8354DB"></path>
                <path d="M453.902431,191.922092 C441.812245,176.143753 439.949413,162.827899 448.313934,151.97453 C460.860715,135.694475 499.59986,141.805036 504.346738,168.243967 C507.511324,185.869921 498.398521,199.223818 477.008329,208.305656 L453.902431,191.922092 Z" id="Shape" fill="#9060EB"></path>
                <path d="M325.689511,225.007024 L333.182343,252.322975 C317.33233,269.317009 301.66701,273.312941 286.186383,264.310772 C262.965442,250.807518 270.472962,212.314694 290.062461,206.092683 C303.122126,201.944676 314.99781,208.249456 325.689511,225.007024 Z" id="Shape" fill="#8156D3"></path>
                <path d="M400.033365,563.797398 C401.82904,553.61362 390.596792,498.83869 371.991443,438.975573 C365.490838,418.059735 320.281133,288.724877 317.496193,261.982806 C314.711253,235.240735 310.964331,232.125937 333.834795,216.111866 C366.350454,193.344156 417.033355,183.530197 440.41474,181.652735 C472.873331,179.046398 492.278959,219.298893 509.485668,262.084431 C513.332195,271.649059 542.598608,370.825283 544.254592,382.249893 C556.340427,465.629871 578.249487,535.190212 578.249487,595.221709 C578.249487,614.54979 577.664249,630.369117 576.493773,642.679687 L376.323889,642.679687 C390.581591,607.192242 396.955065,581.255304 400.033365,563.797398 Z" id="Shape" fill="#9060EB"></path>
                <path d="M431.415668,595.458443 C443.133268,550.272752 407.87128,516.304044 463.152872,513.301189 C518.434465,510.298335 541.461614,555.552621 542.634343,598.496142 C543.170785,618.139828 542.634343,628.786692 540.718264,642.082109 L418.843612,642.082109 C422.01716,631.082194 426.207845,615.540972 431.415668,595.458443 Z" id="Shape" fill="#B188FF"></path>
                <path d="M388.129301,194.716643 C341.186151,215.75849 328.136946,237.671306 348.981685,260.455092 C380.742958,295.170902 379.26569,303.295879 371.140713,318.068564 C363.015736,332.841249 358.583931,357.954814 377.049787,360.909351 C391.822472,379.375207 435.401893,431.079605 408.072426,452.499998 C380.742958,473.920392 432.447356,493.124882 454.606384,493.124882 C459.530613,522.17783 461.992727,541.382321 461.992727,550.738355 C461.992727,587.822845 453.129116,606.288701 442.788236,642.48178 L377.049787,642.48178 C388.696561,610.720507 400.686083,570.987035 400.686083,559.016109 C400.686083,538.33435 359.322565,395.625161 348.981685,366.07979 C338.640806,336.53442 307.618167,248.636944 317.220412,233.125624 C328.532713,214.851908 352.169009,202.048915 388.129301,194.716643 Z" id="Shape" fill-opacity="0.1" fill="#000000"></path>
                <path d="M441.154894,405.659673 L442.952345,408.226698 L441.154894,405.659673 Z" id="Shape" stroke="#979797" stroke-linecap="square"></path>
                <path d="M373.797936,365.3305 C375.850136,353.691896 386.020585,341.340442 418.164786,334.9021 C450.308986,328.463757 479.77873,330.015694 484.95672,334.678858 C490.134709,339.342021 502.590378,370.789418 503.663968,398.729789 C504.737557,426.670161 493.87208,445.755093 487.583666,455.896709 C481.295252,466.038325 467.732711,474.897316 459.945534,476.524342 C452.158356,478.151368 437.010951,474.730443 424.976764,470.358405 C412.942576,465.986366 407.527878,459.031378 405.986952,455.009527 C404.446027,450.987675 410.64834,437.080733 408.592589,423.217729 C406.536837,409.354724 384.498316,389.718132 379.919477,385.910644 C375.340638,382.103155 371.745736,376.969104 373.797936,365.3305 Z" id="Shape" fill="#8F2E2E"></path>
                <path d="M543.583961,439.742224 C590.643534,317.477376 615.549676,248.539254 618.302387,232.927858 C621.055097,217.316461 605.546826,157.281651 571.777573,52.8234279 L602.868267,14.1980885 C632.810278,140.061107 646.364107,212.367166 643.529755,231.116267 C651.255033,217.574022 656.996091,210.23985 660.752929,209.113752 C641.326236,258.748037 605.582392,340.381511 553.521399,454.014175 L543.583961,439.742224 Z" id="Shape" fill="#9060EB"></path>
                <path d="M410.730418,241.554097 C412.207687,248.945451 414.669801,258.056526 418.116761,268.887323 C423.287201,285.133518 426.173928,289.565324 443.162516,298.428935 C460.151104,307.292546 487.548381,290.303958 464.650719,290.303958 C448.509174,290.303958 437.131244,264.239153 447.662131,257.804051 C443.162516,243.77 455.048474,241.554097 464.650719,237.860926 C464.650719,234.906389 446.677286,236.137446 410.730418,241.554097 Z" id="Shape" fill="#8156D3"></path>
                <path d="M602.574491,14.0896453 C604.703629,26.16459 590.707529,81.3905275 590.004728,85.3763112 C589.301927,89.3620948 567.63462,101.299361 558.819473,96.9947116 C550.004326,92.6900626 541.81555,81.450733 538.222926,77.6899616 C534.630301,73.9291902 531.47155,-0.502854082 549.876111,0.00256219967 C568.280671,0.507978481 600.445352,2.01470056 602.574491,14.0896453 Z" id="Shape" fill="#9060EB"></path>
                <path d="M436.084148,488.819905 C447.983075,494.062509 457.826243,494.552947 465.613653,490.291219" id="Shape" stroke="#6D49B2" stroke-width="5" stroke-linecap="round" stroke-linejoin="round"></path>
                <path d="M350.190423,309.170354 C344.069759,302.606746 344.428837,292.324112 350.992445,286.203449 C357.556053,280.082785 362.232614,280.649812 368.353278,287.21342 C374.473941,293.777028 379.720936,303.851713 373.157328,309.972376 C366.59372,316.09304 356.311086,315.733962 350.190423,309.170354 Z" id="Shape" fill="#333333"></path>
                <path d="M357.029254,291.692129 C357.338793,289.936647 359.037712,288.768867 360.823897,289.083819 C362.610082,289.398772 363.80714,291.077191 363.497601,292.832674 C363.188062,294.588156 361.489142,295.755936 359.702958,295.440984 C357.916773,295.126031 356.719715,293.447612 357.029254,291.692129 Z" id="Oval" fill="#9B9B9B"></path>
                <path d="M445.974388,286.297824 C437.97796,282.22344 434.798514,272.438113 438.872898,264.441685 C442.947282,256.445256 452.732609,253.265811 460.729037,257.340195 C468.725466,261.414579 471.904911,271.199905 467.830528,279.196334 C463.756144,287.192763 453.970817,290.372208 445.974388,286.297824 Z" id="Oval" fill="#333333"></path>
                <path d="M376.249346,359.23249 C381.506286,366.627545 386.602459,370.325073 391.537865,370.325073 C398.185573,370.325073 389.037114,353.134725 392.292813,344.810722 C386.445403,346.779781 381.097581,351.587037 376.249346,359.23249 Z" id="Shape" fill="#FFFFFF"></path>
                <path d="M468.900803,332.390929 C468.956053,342.924166 467.012883,349.675886 463.071293,352.646087 C457.762197,356.646778 454.088258,336.542741 446.47863,331.854225 C456.423981,331.142248 463.898038,331.321149 468.900803,332.390929 Z" id="Shape" fill="#FFFFFF"></path>
                <path d="M392.75039,345.335709 C392.941863,344.249814 402.60864,340.30383 415.170147,337.288455 C427.852508,334.244069 444.296663,331.543441 446.661482,333.090852 C451.368584,336.170927 452.059157,340.487772 447.90372,343.060267 C443.748283,345.632763 437.078629,344.901656 423.087363,347.68482 C409.096096,350.467985 397.757955,355.219024 394.848304,354.705974 C391.938653,354.192925 392.365603,347.517947 392.75039,345.335709 Z" id="Shape" fill="#FFFFFF"></path>
                <path d="M472.202392,331.626782 C492.355586,332.180219 486.495898,348.397662 483.500147,344.119286 C480.504396,339.840909 476.226019,342.836661 472.845481,340.740523 C469.464942,338.644385 470.362779,333.552496 472.202392,331.626782 Z" id="Shape" fill-opacity="0.899999976" fill="#FFFFFF"></path>
                <path d="M418.97587,301.698572 C423.57207,305.407604 418.422434,321.851766 409.779581,324.077942 C401.136729,326.304119 386.219848,314.025012 393.321775,307.776985 C400.423701,301.528957 414.37967,297.98954 418.97587,301.698572 Z" id="Shape" fill="#333333"></path>
                <path d="M488.887994,516.27088 C495.591671,517.952938 494.194246,520.206631 484.695718,523.031957 C479.725763,520.091232 475.503604,517.096665 472.029238,514.048255 C468.554873,510.999845 466.714668,508.67529 466.508623,507.074591 C474.724526,511.523392 482.184316,514.588821 488.887994,516.27088 Z" id="Shape" fill="#B188FF"></path>
                <path d="M418.17731,446.130655 C430.366763,430.133292 423.448379,425.308824 416.80067,413.490675 C410.152962,401.672527 412.010518,396.793847 420.135495,394.577944 C428.260472,392.362041 445.506777,393.687623 443.290874,404.028502 C441.074972,414.369382 445.506777,414.369382 447.72268,414.369382 C449.938583,414.369382 455.847657,412.892113 452.89312,404.028502 C449.938583,395.164891 458.019745,386.082418 467.329447,386.398876 C485.321564,387.01047 492.341822,395.178935 494.031132,400.857479 C496.026525,407.564907 497.767419,410.219006 495.733907,418.062553 C490.563467,438.005678 485.393027,461.641974 469.143073,466.812414 C452.89312,471.982854 405.987856,462.128017 418.17731,446.130655 Z" id="Shape" fill="#772424"></path>
                <path d="M469.637993,237.814697 C456.68731,240.297526 445.994354,242.797201 437.559127,245.313721 C429.123899,247.830242 422.329772,249.69312 417.176744,250.902357 L405.659673,234.461735 C409.530502,233.388255 412.941161,232.92883 415.891649,233.083458 C416.91742,233.137217 413.606478,230.308473 416.046277,230.13297 C420.283213,229.828193 431.249027,230.168913 435.318636,229.340849 C444.961545,227.378757 454.363561,226.746365 463.524684,227.443673 L469.637993,237.814697 Z" id="Shape" fill="#6D49B2"></path>
                <path d="M360.814113,270.711223 C347.777347,274.91274 338.749115,275.070887 333.729416,271.185663 L327.138764,261.773235 L330.775827,262.414548 C324.641416,251.83252 323.899358,248.951569 328.549651,253.771695 C335.525091,261.001884 345.890954,253.25766 350.714659,259.930071 C353.930462,264.378345 357.296947,267.972062 360.814113,270.711223 Z" id="Shape" fill="#6D49B2"></path>
                <path d="M469.62307,445.534032 C464.276431,458.841824 443.510101,460.404812 432.055908,450.160361 C425.584044,444.372027 431.191912,439.69137 438.495293,434.908919 C445.278769,430.466916 433.036294,423.332189 413.311826,428.85458 C393.587357,434.376971 380.151302,429.757745 387.33933,427.275044 C393.444673,425.166295 401.584047,412.706869 422.580002,413.846341 C426.303296,414.048408 430.514273,414.33903 435.302857,414.731499 C467.094655,417.337135 474.489534,433.421394 469.62307,445.534032 Z" id="Shape" fill-opacity="0.699999988" fill="#AE3939"></path>
                <path d="M403.150297,415.401777 C385.861593,415.401777 365.711398,419.300693 357.240746,429.057522 C348.770094,438.814351 334.765573,461.314473 360.9253,463.458508 C373.79165,464.513026 385.52907,468.546845 393.657097,456.479516 C401.785124,444.412186 407.867927,431.588557 414.319789,428.621693 C424.930518,423.742391 442.204781,422.097341 451.544326,421.684863 C458.347566,421.3844 456.20749,416.506874 416.756777,414.800851 C412.817712,414.630508 411.2801,416.085252 408.242187,416.299614 C405.204273,416.513977 406.075379,415.401777 403.150297,415.401777 Z" id="Shape" fill="#AE3939"></path>
                <path d="M451.345127,265.324251 C451.654666,263.568768 453.353586,262.400988 455.139771,262.71594 C456.925956,263.030893 458.123014,264.709313 457.813475,266.464795 C457.503936,268.220277 455.805016,269.388058 454.018831,269.073105 C452.232647,268.758152 451.035589,267.079733 451.345127,265.324251 Z" id="Oval" fill="#9B9B9B"></path>
                <path d="M405.666248,306.8524 C405.524573,306.048922 407.689439,304.995599 410.501612,304.499737 C413.313785,304.003875 415.708352,304.253247 415.850026,305.056725 C415.991701,305.860203 413.826835,306.913526 411.014662,307.409388 C408.202489,307.90525 405.807923,307.655878 405.666248,306.8524 Z" id="Shape" fill="#9B9B9B"></path>
                <path d="M402.514219,419.857761 C388.794124,423.938788 379.025017,429.71652 373.206899,437.190956 L402.514219,419.857761 Z" id="Shape" stroke="#8F2E2E" stroke-width="2" stroke-linecap="round"></path>
                <path d="M396.63763,189.881545 C378.993297,195.129832 378.913392,210.007179 365.735638,216.683932 C352.557884,223.360685 329.935348,219.371721 318.549717,190.363087 C310.959297,171.023998 317.089564,151.85415 336.940519,132.853543 C341.713638,148.320096 347.277598,159.301557 353.632402,165.797927 C352.062776,160.520967 353.088876,154.701665 356.710702,148.340021 C362.188313,159.185412 369.90522,165.046285 379.861423,165.922638 C402.51078,167.916254 419.255919,173.61898 430.09684,183.030815 C419.553589,184.09911 408.400519,186.382686 396.63763,189.881545 Z" id="Shape" fill="#FF4BEF"></path>
                <path d="M410.886156,453.373347 C409.686079,438.911192 415.848007,442.247793 414.821907,448.067095 C414.46111,450.113275 420.043197,448.987749 423.55086,449.606245 C431.5524,451.017132 437.410889,452.228756 444.517567,454.05327 C463.173773,458.84292 462.832924,469.283224 476.56589,455.204081 C490.298856,441.124938 494.403255,417.84773 494.575456,425.378382 C494.747656,432.909035 487.176618,450.324778 482.385191,456.230181 C477.593765,462.135583 463.604274,477.669551 441.439267,471.511176 C419.274259,465.3528 411.382398,459.353571 410.886156,453.373347 Z" id="Shape" fill="#FFFFFF"></path>
                <path d="M41.4418132,427.111742 C36.2188803,418.065357 24.894411,418.854427 21.2202981,417.869951 C5.54869463,413.670758 -0.832194815,397.431885 0.0861692791,385.442913 C1.00453337,373.45394 3.19615563,370.982422 6.93221735,366.226717 C7.53953775,365.453647 9.0718236,365.23418 11.5290749,365.568316 L27.263452,392.821057 C28.409524,394.806112 30.8801662,395.589714 32.9608294,394.628067 L41.0791286,390.875928 C43.2594823,389.868206 44.2401926,387.306975 43.290484,385.100734 L30.8576045,356.218262 C32.0993623,353.96752 33.2605977,352.870081 34.3413108,352.925945 C43.0889739,353.378124 49.372548,354.570241 59.0296936,361.472879 C69.2981124,368.812436 71.8958533,384.802308 67.2625595,397.292664 C65.8088159,401.211642 59.1501657,410.445348 63.4684601,420.014027 C67.7867545,429.582705 153.773975,579.561527 156.385442,584.084719 C158.996908,588.607912 157.798648,595.933743 152.370817,599.067503 C146.942986,602.201263 139.617154,601.003003 135.961101,594.670533 C132.305048,588.338063 46.6647462,436.158127 41.4418132,427.111742 Z M143.588307,593.388824 C146.740597,594.233478 149.980761,592.362768 150.825415,589.210477 C151.670069,586.058187 149.799359,582.818023 146.647069,581.973369 C143.494778,581.128716 140.254614,582.999425 139.40996,586.151716 C138.565307,589.304006 140.436016,592.54417 143.588307,593.388824 Z" id="Shape" fill="#999999"></path>
                <path d="M95.0235291,453.087643 C115.702851,465.209631 125.131252,489.877491 128.768801,503.837792 C132.406351,517.798094 139.800091,531.209903 117.262949,534.500854 C69.8578102,541.423113 64.4557642,526.400331 51.6795695,495.088118 C44.8054026,478.240741 57.0984923,470.718963 68.3317163,462.910869 C77.976347,456.206989 85.4706116,447.487829 95.0235291,453.087643 Z" id="Shape" fill="#9060EB"></path>
                <path d="M540.840595,425.056808 C540.840595,411.268969 545.026189,398.042262 553.397378,385.376689 C553.397378,414.922059 554.874646,438.065933 557.829183,454.808309 C560.78372,471.550685 549.950418,467.11888 525.329276,441.512892 C535.670155,444.330009 540.840595,438.844648 540.840595,425.056808 Z" id="Shape" fill="#9060EB"></path>
            </g>
        </g>
    </g>
</svg>