<svg xmlns="http://www.w3.org/2000/svg" xmlns:xlink="http://www.w3.org/1999/xlink" width="1440" height="969" viewBox="0 0 1440 969">
  <defs>
    <path id="grommet-home-footer-layer-2-a" d="M-269.941666,378.992214 L-243.885769,376.712618 C-178.41941,374.743095 -145.081738,380.673351 -143.871751,394.503563 C-138.288317,394.015075 -127.935738,424.817344 -112.813703,486.911293 L-107.674684,545.650549 C-102.617212,603.457726 -119.945806,655.47171 -159.660986,701.694064 C-183.489337,716.931921 -201.374416,725.073137 -213.316762,726.117957 L-223.087724,726.972805 C-295.584713,723.607195 -333.219369,706.074298 -335.992822,674.373589 L-336.849325,664.583713 C-337.121232,661.4758 -331.185117,654.301691 -319.040801,643.061171 L-296.24189,641.066525 C-280.972603,653.040367 -272.795249,658.979707 -271.709581,658.884724 C-247.204507,656.740807 -231.839367,632.30058 -225.613701,585.563307 C-229.991612,583.754134 -233.343732,582.951327 -235.670163,583.154864 C-254.817919,589.371042 -268.734259,592.859014 -277.419602,593.618883 L-313.246461,596.753327 C-367.995139,601.543216 -406.81741,582.939851 -429.71444,540.942676 C-432.198469,537.558543 -433.759951,532.21476 -434.398932,524.911165 L-436.39744,502.068121 C-439.46999,466.948707 -393.660985,427.866408 -298.96905,384.820051 C-287.372134,381.613261 -277.696436,379.670668 -269.941666,378.992214 Z M-373.066785,513.203634 C-369.312841,529.316639 -347.828967,537.301755 -308.614519,537.159222 L-285.815608,535.164576 C-245.29438,523.163834 -225.339961,513.667204 -225.951752,506.6744 L-230.519769,454.461728 C-231.661779,441.408494 -238.746684,435.451869 -251.774698,436.591672 L-261.54566,437.446521 C-337.701631,467.283896 -374.874967,492.536014 -373.066785,513.203634 Z M-52.7203128,319.588619 L-43.0922336,317.717109 C-14.1385924,316.538539 8.25572658,323.229522 24.0913952,337.790259 C28.6344336,339.131905 32.0521071,339.579922 34.3445184,339.134322 C48.4189503,327.499636 65.7717568,319.677212 86.4034584,315.666815 C122.317902,308.685755 153.882301,322.572468 181.097603,357.327373 L183.597779,370.189663 C186.157495,383.358263 180.960869,396.604181 168.007744,409.927813 L155.170305,412.423159 C137.289497,415.898836 125.161363,404.908165 118.78554,379.450817 C105.614907,375.336758 96.4316623,373.784765 91.23553,374.794791 C47.0815714,398.950516 28.5468035,429.249591 35.6306704,465.692927 C46.1877851,546.114512 43.2137064,587.928835 26.7083452,591.137153 L10.6615464,594.256334 C3.47865774,595.652546 -2.09344944,595.543856 -6.05494228,593.93026 L-24.6414108,601.118534 L-27.8507706,601.74237 C-44.6617867,605.010101 -57.6942787,600.789837 -66.9486376,589.081452 L-70.6989013,569.788018 C-91.821716,422.771585 -97.4161484,348.299021 -87.4823661,346.368089 C-78.0620158,331.188617 -66.4747805,322.262216 -52.7203128,319.588619 Z M304.918321,341.942386 C360.597571,337.071083 402.676797,355.3895 431.157262,396.898189 C443.754146,415.838994 450.507931,430.51493 451.41882,440.926437 L453.702828,467.032774 C458.841873,525.772324 427.399809,579.021077 359.375692,626.780631 C330.048524,638.11519 309.801809,644.270864 298.63494,645.247839 C255.828608,648.992908 214.359204,625.140742 174.225481,573.690626 C168.577656,559.15258 165.26436,546.289507 164.285494,535.101021 L163.14349,522.047853 C159.214432,477.138514 187.596671,426.427911 248.291059,369.91452 C261.692778,353.396684 280.568343,344.072733 304.918321,341.942386 Z M292.301367,497.829799 C298.320188,541.616796 311.358725,565.6076 331.41737,569.802929 C358.510772,556.158438 377.329996,533.686466 387.875607,502.386341 C392.921315,485.03371 395.131443,472.783479 394.506056,465.63528 L393.955447,459.341788 C382.41508,427.468574 365.788467,412.482028 344.075111,414.3817 L340.818124,414.66665 C318.174195,416.647737 301.716606,441.10525 291.444863,488.039923 L292.301367,497.829799 Z M560.768061,332.802338 C606.515659,330.522378 630.266002,339.405283 632.019803,359.45132 L635.27679,359.166371 C654.451737,353.260983 668.381672,349.928405 677.067015,349.168536 C688.854265,348.137285 707.264719,358.505158 732.298929,380.272465 C736.486504,379.906099 755.171738,368.406641 788.355189,345.773746 C796.850196,342.838338 804.354591,341.08571 810.868598,340.515808 C854.760597,336.675756 881.309581,365.043235 890.516346,425.619097 L887.766435,544.237407 L888.622938,554.027283 C888.894845,557.135196 882.951933,564.231608 870.794021,575.316732 L847.995111,577.311378 C834.164971,569.282839 826.896531,561.228404 826.189572,553.147831 L831.339967,424.454695 C826.737023,409.355478 819.550154,402.233403 809.779144,403.088255 C789.768792,410.162827 773.413167,435.78579 760.711777,479.957913 C758.089087,519.646807 746.774257,540.36615 726.76695,542.116563 L716.995989,542.971411 C700.790583,532.801905 692.334527,523.677002 691.627569,515.596429 L692.411129,449.527597 C686.440059,425.935897 679.964975,414.445523 672.985681,415.056132 C649.721371,417.091496 636.347921,464.296843 632.864931,556.673589 C624.982591,596.979228 611.503257,617.966232 592.426522,619.63523 L589.169535,619.920179 C541.40015,624.099459 515.897993,607.697264 512.662298,570.713103 C514.913116,471.39783 515.100442,411.0188 513.224283,389.574202 L510.960668,363.700958 C511.883733,352.81583 527.40038,342.611376 557.511074,333.087288 L560.768061,332.802338 Z M969.313952,270.571396 C1015.06155,268.291435 1038.81189,277.17434 1040.56569,297.220377 L1043.82268,296.935428 C1062.99763,291.03004 1076.92756,287.697462 1085.61291,286.937593 C1097.40016,285.906342 1115.81061,296.274215 1140.84482,318.041522 C1145.0324,317.675156 1163.71763,306.175699 1196.90108,283.542803 C1205.39609,280.607396 1212.90048,278.854767 1219.41449,278.284865 C1263.30649,274.444813 1289.85547,302.812292 1299.06224,363.388154 L1296.31233,482.006465 L1297.16883,491.796341 C1297.44074,494.904253 1291.49782,502.000665 1279.33991,513.085789 L1256.541,515.080436 C1242.71086,507.051897 1235.44242,498.997462 1234.73546,490.916889 L1239.88586,362.223752 C1235.28291,347.124535 1228.09604,340.00246 1218.32503,340.857313 C1198.31468,347.931884 1181.95906,373.554847 1169.25767,417.72697 C1166.63498,457.415865 1155.32015,478.135208 1135.31284,479.88562 L1125.54188,480.740468 C1109.33647,470.570962 1100.88042,461.446059 1100.17346,453.365486 L1100.95702,387.296655 C1094.98595,363.704954 1088.51087,352.214581 1081.53157,352.82519 C1058.26726,354.860553 1044.89381,402.0659 1041.41082,494.442646 C1033.52848,534.748285 1020.04915,555.735289 1000.97241,557.404287 L997.715425,557.689237 C949.946041,561.868516 924.443884,545.466321 921.208189,508.48216 C923.459007,409.166887 923.646333,348.787857 921.770174,327.343259 L919.506558,301.470016 C920.429624,290.584888 935.946271,280.380433 966.056965,270.856345 L969.313952,270.571396 Z M1467.45811,257.128803 C1508.5584,253.532994 1557.9624,293.053867 1615.67162,375.692607 L1616.52812,385.482483 C1618.40428,406.927081 1581.03381,429.925996 1504.4156,454.47992 C1488.28514,464.816502 1453.1316,475.642883 1398.95392,486.959388 C1397.14966,491.345038 1396.34951,494.703279 1396.55344,497.034214 C1409.90558,535.325492 1431.16029,553.195369 1460.31823,550.64438 L1470.08919,549.789532 C1512.27514,546.098739 1551.71495,521.74441 1588.40979,476.725812 L1614.46569,474.446216 C1625.8118,479.090623 1632.00139,487.317737 1633.03463,499.127805 L1634.17664,512.180973 C1594.28113,570.632739 1543.47015,602.558392 1481.74218,607.958889 L1449.17231,610.808384 C1403.57426,614.797696 1366.86695,582.856348 1339.04928,514.98338 C1335.53201,499.789179 1333.30436,486.831124 1332.36628,476.108825 C1325.01119,392.039786 1359.28,321.084751 1435.17374,263.24159 C1454.06014,259.397053 1464.82149,257.359478 1467.45811,257.128803 Z M1421.51087,369.661581 L1428.31034,372.354974 C1477.5441,359.905154 1501.75956,349.096235 1500.95743,339.927892 C1493.25258,325.100057 1482.80876,318.262928 1469.62565,319.416301 C1450.8591,321.058161 1434.821,337.80642 1421.51087,369.661581 Z M1682.80359,57.3394242 C1720.23482,57.4345639 1739.64484,62.4251355 1741.03425,72.3112888 L1746.53758,111.469528 C1748.88557,159.498861 1750.2115,184.59445 1750.51544,186.757046 C1754.94082,186.92271 1757.40313,188.781932 1757.90245,192.334768 C1781.80804,184.564434 1800.92959,179.671799 1815.26765,177.656716 C1835.73546,182.341218 1846.97869,191.866235 1848.99768,206.232051 L1850.36537,215.963685 C1850.77785,218.898637 1845.21448,226.296351 1833.67509,238.157051 L1830.43748,238.612067 C1778.63545,245.892367 1753.33183,253.780356 1754.52585,262.276269 L1766.41175,346.848798 C1767.32355,353.336586 1780.87086,355.764431 1807.0541,354.132406 L1818.59052,365.742867 L1822.2377,391.69389 C1825.88489,417.645042 1798.57026,434.715531 1740.29298,442.905869 L1730.58015,444.270918 C1692.72391,425.490367 1670.44201,392.234798 1663.73377,344.503214 L1655.10429,283.101241 C1654.64839,279.857347 1650.95492,277.068513 1644.02376,274.734657 L1614.88527,278.829805 C1603.31164,274.785573 1596.6891,266.816437 1595.01747,254.922159 L1594.59414,251.909987 C1591.5331,230.129556 1609.42807,216.509432 1648.27959,211.049207 L1650.63797,204.33814 C1638.15501,115.517232 1640.54716,69.8940785 1657.8145,67.4673117 C1657.20664,63.1421197 1665.53625,59.7661909 1682.80359,57.3394242 Z"/>
  </defs>
  <g fill="none" fill-rule="evenodd">
    <path fill="#60EB9F" d="M-164.305883,290.04986 L-139.906755,290.04986 C-78.9086284,293.539789 -48.4100229,301.755538 -48.4100229,314.697356 C-43.1816121,314.697356 -36.0652708,344.143185 -27.0607855,403.035725 L-27.0607855,458.001822 C-27.0607855,512.095711 -47.3931892,558.99092 -88.0586066,598.688855 C-111.441222,610.903604 -128.723765,617.010887 -139.906755,617.010887 L-149.056428,617.010887 C-216.154366,607.995239 -249.702833,588.655509 -249.702833,558.991118 L-249.702833,549.830102 C-249.702833,546.921829 -243.603111,540.74184 -231.403486,531.289951 L-210.054249,531.289951 C-196.837988,543.650114 -189.721647,549.830102 -188.705011,549.830102 C-165.758097,549.830102 -149.492174,528.381906 -139.906755,485.48487 C-143.828063,483.449079 -146.877923,482.431198 -149.056428,482.431198 C-167.355866,486.648195 -180.571928,488.756662 -188.705011,488.756662 L-222.253813,488.756662 C-273.521286,488.756662 -308.086372,468.326346 -325.950109,427.465102 C-327.98338,424.120587 -329,419.031184 -329,412.196741 L-329,390.821037 C-329,357.957545 -283.252092,325.385369 -191.754902,293.103532 C-180.717146,291.067741 -171.567565,290.04986 -164.305883,290.04986 Z M-271.05207,406.307517 C-268.873565,421.575953 -249.557782,430.736878 -213.10414,433.790565 L-191.754902,433.790565 C-153.122756,425.938226 -133.806972,418.740357 -133.806972,412.196741 L-133.806972,363.337989 C-133.806972,351.12324 -139.906694,345.015957 -152.106319,345.015957 L-161.255992,345.015957 C-234.453743,366.537182 -271.05207,386.967497 -271.05207,406.307517 Z M42.397542,252.538223 L51.4970923,251.581822 C78.4992858,252.837788 98.7656305,260.869476 112.296734,275.677126 C116.409359,277.291877 119.54891,277.985385 121.71548,277.757669 C135.741405,268.095464 152.503682,262.239728 172.002816,260.190287 C205.945753,256.62274 234.148234,272.081311 256.611107,306.566462 L257.887889,318.714237 C259.195078,331.151307 253.288093,343.030516 240.166758,354.352221 L228.034024,355.627422 C211.134774,357.403605 200.758545,346.212344 196.905025,322.053302 C185.000464,317.163506 176.592864,314.976719 171.681971,315.492874 C128.684645,334.341112 108.995062,360.974265 112.612631,395.393132 C115.879346,470.935195 109.713142,509.525425 94.1138349,511.164978 L78.9479177,512.75898 C72.1593304,513.472489 66.9900779,512.919206 63.4400052,511.099114 L45.5828999,516.265785 L42.5497165,516.584585 C26.6615334,518.2545 14.8939873,513.27729 7.24672518,501.652803 L5.33155131,483.431141 C-2.33493639,345.186779 -1.47395722,275.572259 7.91451463,274.585491 C17.9038919,261.253533 29.3981194,253.904518 42.397542,252.538223 Z M372.924751,302.348893 C425.063625,302.348893 462.678572,322.779208 485.77072,363.640453 C495.937074,382.253404 501.020175,396.431025 501.020175,406.173742 L501.020175,430.603118 C501.020175,485.569489 467.471709,532.464698 400.37377,571.290151 C372.198445,579.433317 352.882662,583.504839 342.42584,583.504839 C302.341357,583.504839 265.743031,557.985121 232.629762,506.944919 C228.563221,492.985205 226.52998,480.770639 226.52998,470.300854 L226.52998,458.086166 C226.52998,416.061612 257.028586,371.27487 318.026712,323.724597 C331.823907,309.474056 350.12307,302.348893 372.924751,302.348893 Z M348.525622,446.089597 C350.558893,487.241669 360.725095,510.580215 379.024533,516.105935 C405.311821,505.63615 424.627604,486.29642 436.972463,458.086166 C443.072276,442.381489 446.122136,431.184803 446.122136,424.495774 L446.122136,418.606549 C437.989053,388.069676 423.75637,372.801469 403.423661,372.801469 L400.37377,372.801469 C379.16966,372.801469 361.887117,394.176959 348.525622,436.928581 L348.525622,446.089597 Z M611.429463,314.647925 C654.128152,316.247475 675.477175,326.42628 675.477175,345.184645 L678.527066,345.184645 C696.826504,341.258476 710.042567,339.29542 718.17565,339.29542 C729.213406,339.29542 745.479329,350.4194 766.973907,372.667693 C770.895215,372.667693 789.194379,363.506769 821.871946,345.184645 C830.00503,343.148854 837.121371,342.130973 843.221183,342.130973 C884.322302,342.130973 906.687946,370.631627 910.318787,427.63379 L898.119222,537.565983 L898.119222,546.726999 C898.119222,549.635273 892.019501,555.742556 879.819876,565.049031 L858.470639,565.049031 C846.271014,556.469624 840.171292,548.399286 840.171292,540.837774 L855.420748,421.744565 C852.370841,407.348611 846.27112,400.150742 837.121401,400.150742 C817.950562,405.094807 800.668019,427.560883 785.273253,467.549646 C779.609142,504.193893 767.409699,522.515742 748.674561,522.515742 L739.524888,522.515742 C725.291991,511.75513 718.17565,502.594205 718.17565,495.032694 L724.275432,433.741134 C720.644591,411.347427 715.561491,400.150742 709.025977,400.150742 C687.240932,400.150742 670.975009,442.901723 660.22772,528.404967 C649.625665,565.194628 635.392982,583.589183 617.529245,583.589183 L614.479354,583.589183 C569.747395,583.589183 547.381751,566.285214 547.381751,531.676758 C557.548105,439.629898 562.631206,383.573765 562.631206,363.506677 L562.631206,339.29542 C564.37401,329.261876 579.623313,321.046127 608.379572,314.647925 L611.429463,314.647925 Z M996.151435,290.04986 C1038.85012,291.649411 1060.19915,301.828216 1060.19915,320.586581 L1063.24904,320.586581 C1081.54848,316.660411 1094.76454,314.697356 1102.89762,314.697356 C1113.93538,314.697356 1130.2013,325.821336 1151.69588,348.069629 C1155.61719,348.069629 1173.91635,338.908704 1206.59392,320.586581 C1214.727,318.550789 1221.84334,317.532909 1227.94316,317.532909 C1269.04427,317.532909 1291.40992,346.033562 1295.04076,403.035725 L1282.84119,512.967919 L1282.84119,522.128935 C1282.84119,525.037208 1276.74147,531.144491 1264.54185,540.450967 L1243.19261,540.450967 C1230.99299,531.87156 1224.89326,523.801221 1224.89326,516.23971 L1240.14272,397.146501 C1237.09281,382.750546 1230.99309,375.552677 1221.84337,375.552677 C1202.67253,380.496742 1185.38999,402.962819 1169.99523,442.951581 C1164.33111,479.595829 1152.13167,497.917678 1133.39653,497.917678 L1124.24686,497.917678 C1110.01396,487.157065 1102.89762,477.996141 1102.89762,470.43463 L1108.9974,409.143069 C1105.36656,386.749363 1100.28346,375.552677 1093.74795,375.552677 C1071.9629,375.552677 1055.69698,418.303658 1044.94969,503.806902 C1034.34764,540.596564 1020.11495,558.991118 1002.25122,558.991118 L999.201326,558.991118 C954.469367,558.991118 932.103723,541.68715 932.103723,507.078694 C942.270077,415.031834 947.353178,358.975701 947.353178,338.908613 L947.353178,314.697356 C949.095982,304.663812 964.345284,296.448062 993.101544,290.04986 L996.151435,290.04986 Z M1460.17057,318.038973 C1498.65749,318.038973 1541.35553,358.754193 1588.266,440.185855 L1588.266,449.346871 C1588.266,469.413959 1551.66767,487.735808 1478.46992,504.312967 C1462.63945,512.601547 1429.09099,519.799416 1377.82352,525.906791 C1375.79024,529.83296 1374.77362,532.886602 1374.77362,535.067807 C1384.06858,571.712054 1402.36774,590.033903 1429.67166,590.033903 L1438.82134,590.033903 C1478.32489,590.033903 1516.95645,570.621468 1554.7172,531.796015 L1579.11633,531.796015 C1589.28268,537.030908 1594.36578,545.173952 1594.36578,556.225392 L1594.36578,568.44008 C1552.53849,619.480282 1502.72411,645 1444.92112,645 L1414.42221,645 C1371.72352,645 1340.20829,612.355118 1319.87559,547.064376 C1317.84231,532.668421 1316.82569,520.453855 1316.82569,510.420311 C1316.82569,431.75151 1354.44064,368.642919 1429.67166,321.092645 C1447.5354,319.056854 1457.7016,318.038973 1460.17057,318.038973 Z M1408.32243,418.81015 L1414.42221,421.863822 C1461.18744,414.302311 1484.5697,406.231973 1484.5697,397.652566 C1478.61512,383.256611 1469.46554,376.058742 1457.12068,376.058742 C1439.54741,376.058742 1423.28149,390.309069 1408.32243,418.81015 Z M1676.54165,150 C1711.31864,153.128266 1728.9504,159.339166 1729.43746,168.632887 L1731.36668,205.444553 C1729.64209,250.238199 1728.83308,273.651171 1728.93963,275.684173 C1733.03865,276.197418 1735.17565,278.123978 1735.35068,281.463909 C1758.19809,276.189356 1776.36564,273.198681 1789.85385,272.491794 C1808.49351,278.504366 1818.16707,288.262975 1818.87484,301.767914 L1819.35429,310.916375 C1819.49889,313.675449 1813.72716,320.093597 1802.03892,330.171012 L1798.99321,330.330631 C1750.26159,332.884547 1726.10542,338.154822 1726.52399,346.141614 L1730.69065,425.646098 C1731.01028,431.745103 1743.40229,435.099969 1767.86703,435.710798 L1777.64343,447.42989 L1778.92197,471.825786 C1780.20051,496.221805 1753.42864,509.856188 1698.60557,512.729343 L1689.46843,513.2082 C1655.8163,492.693009 1637.8147,460.000279 1635.4631,415.12903 L1632.43799,357.406596 C1632.27817,354.357094 1629.07268,351.467255 1622.82141,348.736992 L1595.41001,350.173563 C1584.98361,345.47791 1579.4775,337.539449 1578.8915,326.35794 L1578.7431,323.526274 C1577.67004,303.051044 1595.4076,291.855878 1631.95632,289.940441 L1634.69381,283.899668 C1630.31785,200.40139 1636.25172,158.227231 1652.49559,157.375926 C1652.2825,153.309923 1660.29778,150.851305 1676.54165,150 Z" opacity=".5"/>
    <mask id="grommet-home-footer-layer-2-b" fill="#fff">
      <use xlink:href="#grommet-home-footer-layer-2-a"/>
    </mask>
    <path fill="#5CE1BD" d="M-278.299275,574.653185 L-271.808482,578.969795 L-266.168063,577.458449 L-267.018437,571.630494 C-200.588208,570.929418 -165.003498,585.617533 -160.263241,615.695278 L-143.880156,647.640321 L-155.160994,650.663012 C-157.649864,635.180988 -162.654523,628.447646 -170.175119,630.462784 L-175.815538,631.974129 L-165.259668,659.424757 L-164.741083,665.341615 L-176.021921,668.364306 C-183.542517,670.379444 -188.153125,665.5591 -189.853883,653.903131 L-194.643927,661.242432 L-200.284346,662.753778 C-223.123066,652.72448 -243.168691,650.021352 -260.421824,654.644315 C-298.024806,664.720004 -331.112402,715.976064 -359.685603,808.414033 L-360.948743,875.366432 C-353.060745,926.924242 -322.901736,957.196258 -270.470812,966.183386 L-268.770063,977.839297 L-280.050901,980.861989 L-279.200527,986.689944 L-267.919689,983.667253 C-241.155213,976.495733 -210.866898,932.04549 -177.053835,850.315191 L-177.90421,844.487235 L-183.544629,845.998581 C-203.728345,890.11669 -223.980352,923.803376 -244.301255,947.059649 L-249.941674,948.570994 L-199.615511,856.360574 L-239.098445,866.939994 C-240.232283,859.169347 -246.439556,856.795413 -257.720451,859.81812 L-264.211245,855.50151 L-265.061619,849.673554 C-266.416651,841.962176 -248.576404,831.126144 -211.540341,817.165132 L-213.24109,805.509221 L-218.031135,812.848523 L-251.873649,821.916597 L-292.000574,790.277885 L-287.21053,782.938583 L-288.392694,777.19953 L-225.16592,766.31378 L-81.3979369,709.623827 L-82.2483114,703.795871 C-101.049802,708.833716 -111.017317,707.467335 -112.151156,699.696689 L-106.510737,698.185343 L-100.019943,702.501953 L-95.2298985,695.162651 L-89.5894794,693.651306 C-46.4660709,694.445593 -24.3674645,698.61721 -23.2929972,706.166281 L-22.1108334,711.905334 L-26.9008779,719.244635 L-26.0505035,725.072591 L-3.48882717,719.027208 L-1.7880782,730.683119 L-7.42849728,732.194465 L-95.6426641,767.943005 L-94.7922896,773.770961 L-89.1518705,772.259615 L-39.2384734,752.829548 L-37.5377244,764.485459 C-75.1407062,774.561148 -91.5636772,795.110342 -86.8071299,826.133659 L-89.4588167,923.737181 L-82.6362338,927.964888 L-81.7858593,933.792844 L-83.1744059,964.443968 L-70.0674123,1009.37846 L-79.3157121,1023.96816 L-73.1567079,1028.37367 C-87.3341264,1037.39715 -93.2161427,1049.06615 -90.8029331,1063.38103 L-107.72419,1067.91507 C-115.244787,1069.9302 -121.777317,1053.51333 -127.321977,1018.66396 L-132.962397,1020.17531 L-126.677986,1060.8821 L-143.599243,1065.41613 L-148.182905,1036.36526 L-160.107735,997.169816 L-171.388573,1000.19251 C-188.807163,1021.00872 -208.354672,1034.3208 -230.031685,1040.12913 L-258.23378,1047.68586 L-270.883578,1038.96374 L-272.065742,1033.22469 L-260.784903,1030.202 L-261.635278,1024.37404 C-339.716764,1045.29591 -389.02923,1030.24897 -409.574157,979.232764 C-420.528848,956.04482 -429.271469,932.264545 -435.80228,907.891226 C-439.839508,892.824083 -443.021599,877.409309 -445.348647,861.646441 L-447.381185,850.079432 C-451.781506,820.385569 -448.381794,779.102938 -437.181947,726.230299 L-431.541528,724.718953 L-429.840779,736.374864 L-440.477626,781.615688 L-439.295462,787.354741 L-433.655043,785.843396 C-439.097251,750.491604 -414.09705,697.365387 -358.653689,626.463149 L-353.01327,624.951803 L-353.863645,619.123848 L-359.504064,620.635194 L-375.574946,630.997186 C-369.561782,609.19982 -337.136882,590.418674 -278.299275,574.653185 Z M-433.322287,545.294782 L-427.656566,543.776657 L-460.976601,595.395215 L-461.834706,589.526504 L-433.322287,545.294782 Z M-347.643749,534.534568 L-308.239574,523.976251 L-307.046042,529.755085 L-346.450217,540.313402 L-347.643749,534.534568 Z M-461.68616,595.585341 L-461.143967,601.538701 L-479.606983,630.880413 L-480.476665,625.014803 L-461.68616,595.585341 Z M-187.717424,618.991555 L-174.6508,627.687644 L-165.011536,612.90753 L-187.717424,618.991555 Z M-303.624083,855.877761 L-298.039591,854.381401 L-307.144754,869.018403 L-312.729246,870.514763 L-303.624083,855.877761 Z M-260.796662,905.388592 L-226.608788,859.636136 L-220.985054,858.129261 L-219.258965,869.864038 L-260.796662,905.388592 Z M-297.237658,932.686518 L-269.185326,925.169918 L-267.990694,930.948458 L-296.043025,938.465057 L-297.237658,932.686518 Z M-26.8814721,363.96794 L40.7835282,345.837158 C123.706058,339.536671 172.264599,362.876192 186.460609,415.85642 L195.548385,449.772464 L160.365697,544.018885 L166.004447,542.507986 L208.760282,476.524935 L211.789541,487.830283 C204.074477,535.990011 187.213209,570.80026 161.205232,592.262073 L130.401991,612.632812 L136.460508,635.243508 C144.642265,633.051213 197.239777,671.46438 294.254624,750.484162 C310.954497,752.661968 330.029984,763.706592 351.48166,783.618366 L352.996289,789.27104 L318.744021,774.214836 L320.258651,779.86751 C344.400356,794.78187 357.83715,807.337378 360.569436,817.534409 L354.930686,819.045308 L331.280824,843.557822 L325.642074,845.068721 L309.820686,831.132496 L305.696565,838.296069 L300.057815,839.806967 C208.361592,798.326843 139.073028,750.24963 92.1900433,695.573885 L48.849999,646.601638 C35.5822855,650.156711 34.1224844,674.781692 44.4705519,720.47732 C57.000546,757.510238 61.2685335,780.956842 57.2746425,790.817836 C48.6535133,802.869056 49.2092109,812.461206 58.941752,819.594574 L61.9710108,830.899922 L45.0547608,835.432617 C37.5363898,837.447159 31.757775,830.917591 27.718743,815.843718 L22.079993,817.354617 C26.119025,832.42849 20.5576315,839.977118 5.39564582,840.000727 L-28.3907774,813.415433 L-35.5668103,760.098819 L-41.625328,737.488123 L-50.2024516,570.147861 L-44.5637016,568.636963 L-38.5051839,591.247659 L-32.8664339,589.73676 L-36.4799016,463.476115 C-43.9982725,465.490656 -45.7379159,474.034735 -41.698884,489.108607 L-47.337634,490.619506 L-50.3668928,479.314158 L-84.199393,488.379549 L-85.7140224,482.726875 C-87.7335384,475.189939 -77.9707654,466.515555 -56.4254105,456.703462 L-57.9400399,451.050788 L-69.21754,454.072585 L-100.020781,474.443324 L-105.659531,475.954223 C-107.679047,468.417286 -101.170532,462.634364 -86.1337901,458.605281 L-87.6484195,452.952607 C-102.685161,456.98169 -111.718034,453.343583 -114.747308,442.038179 L-26.8814721,363.96794 Z M33.2515413,566.644069 L38.8971627,565.13133 C90.3954673,520.872529 123.705495,479.584007 138.828245,441.264523 L135.794171,429.941206 C132.343639,417.063644 106.221662,409.904139 57.427457,408.462474 L26.5878023,428.862229 L33.2515413,566.644069 Z M92.5762045,421.914297 L119.856072,432.900599 L122.905392,444.280817 C114.858398,444.523694 104.74877,437.068262 92.5762045,421.914297 Z M135.592413,446.21765 L137.539242,476.189201 L143.215713,474.668195 L147.367525,467.45708 L141.268885,444.696644 L135.592413,446.21765 Z M-68.4439444,519.184949 L-62.7674726,517.663943 L-58.1934923,534.734269 L-57.7713238,559.015711 L-63.4477956,560.536717 L-68.0217758,543.46639 L-68.4439444,519.184949 Z M129.235618,490.611431 L111.52588,538.047223 L117.202352,536.526217 L136.43675,494.780534 L134.91209,489.090425 L129.235618,490.611431 Z M189.049656,486.781588 L200.4026,483.739576 L199.300108,502.330909 L193.623636,503.851915 L189.049656,486.781588 Z M-66.0749472,573.437941 L-60.3984754,571.916935 L-54.2998351,594.67737 L-59.9763069,596.198376 L-66.0749472,573.437941 Z M-57.7978922,649.740105 L-52.1214204,648.219098 L-46.0227801,670.979534 L-51.6992519,672.50054 L-57.7978922,649.740105 Z M157.145339,773.580789 C165.414941,773.278264 175.524569,780.733696 187.474527,795.947309 L158.67,779.270898 L157.145339,773.580789 Z M195.49076,805.996647 L222.770627,816.982949 L224.295287,822.673058 L197.01542,811.686755 L195.49076,805.996647 Z M428.238861,266.413376 C472.521922,254.547765 517.461234,256.647394 563.058144,272.712324 L558.927213,279.879728 L560.442343,285.534274 L592.117378,313.410117 L580.825253,316.435832 L573.66406,312.294144 L568.017998,313.807002 L618.289066,433.668434 L623.935128,432.155577 C618.884666,413.306997 620.123477,402.874286 627.651597,400.857132 L633.712121,423.475315 C639.416172,444.763123 633.727157,498.811505 616.644905,585.622081 L622.290967,584.109224 C605.524968,627.81701 575.093623,672.333843 530.99602,717.66106 L504.28084,730.879894 L498.634778,732.392752 C409.182994,756.361285 343.127204,735.677947 300.465427,670.342117 L268.790393,642.466274 L272.921324,635.298871 L256.669345,597.229908 L253.639083,585.920817 C245.261258,554.654349 260.727169,491.925793 300.037279,397.733267 L301.55241,403.387813 C283.857586,448.057483 272.384413,495.575108 267.132546,545.942112 L268.647677,551.596657 L274.293739,550.0838 C273.226606,491.190209 305.354228,407.835925 370.67757,300.018448 L337.21566,333.226636 L331.569597,334.739494 C326.935056,317.44315 359.157822,294.668005 428.238861,266.413376 Z M426.054342,369.823585 L418.899899,365.686815 L420.413348,371.335085 L427.567792,375.471855 L397.161531,419.941972 C365.969997,428.299719 350.010384,489.077628 349.282211,602.277524 C357.353981,632.40178 381.339487,654.225656 421.239447,667.749804 L426.88044,666.238304 C468.026719,655.213192 503.431535,599.314518 533.095951,498.540604 C540.860025,452.302896 542.189938,419.65995 537.085731,400.610788 L524.978136,355.424629 C522.188627,345.014041 501.36759,342.521372 462.5144,347.946547 L456.873406,349.458047 L452.745862,356.617817 L447.104868,358.129316 L445.591419,352.481047 L426.054342,369.823585 Z M593.955741,343.220148 L605.308685,340.178136 L612.931985,368.62868 L601.579042,371.670692 L593.955741,343.220148 Z M323.165036,482.101012 L315.283581,520.804683 L320.960053,519.283677 L328.841508,480.580006 L323.165036,482.101012 Z M552.276278,457.302682 L544.626409,519.576531 L561.655824,515.013513 L568.146027,471.117617 L557.95275,455.781676 L552.276278,457.302682 Z M597.400662,469.606201 L596.29817,488.197534 L599.34749,499.577751 L605.023962,498.056745 L604.601793,473.775304 L603.077133,468.085195 L597.400662,469.606201 Z M270.716144,581.535615 L282.913425,627.056486 L288.589897,625.53548 L276.392616,580.014609 L270.716144,581.535615 Z M540.474597,526.787646 L525.392011,561.322215 L531.068482,559.801209 L546.151069,525.26664 L540.474597,526.787646 Z M392.888999,699.740845 L394.413659,705.430954 L427.369998,714.89625 L425.845338,709.206142 L392.888999,699.740845 Z M887.720055,136.43479 L898.978391,133.418128 L901.034329,145.064522 L893.887868,171.373972 L887.396295,167.014743 L881.767128,168.523074 L887.720055,136.43479 Z M691.314258,240.900008 L702.60174,237.875536 L721.564671,244.905086 L720.382824,239.166435 C741.53256,237.536285 758.330789,243.127322 770.778016,255.939715 C783.836148,252.440799 807.933441,288.370807 843.070618,363.730819 L889.296574,224.182763 L893.758468,216.931876 L899.402209,215.41964 L900.584056,221.158291 L858.421518,383.838862 L869.708999,380.814391 C897.516574,248.219341 917.063837,180.410591 928.351375,177.386104 L947.314306,184.415654 L946.13246,178.677003 C962.289132,174.347835 986.47945,188.050278 1018.70414,219.784741 L1021.58571,237.178605 L1017.12381,244.429492 L1023.61742,248.744862 L1027.68084,271.877377 L1016.39335,274.901849 L1033.77596,306.57615 L1039.47261,371.658324 L1042.35418,389.052188 L1049.17977,393.278604 L1050.02963,399.10621 L1041.10584,413.607984 L1054.09305,422.238725 L1045.16926,436.740499 L1058.15647,445.37124 L1053.69457,452.622127 L1048.05083,454.134363 L1054.87642,458.360778 L1083.32034,620.288383 C1072.0328,623.31287 1067.46029,630.593336 1069.60268,642.129999 C1058.31514,645.154486 1054.3092,656.319984 1057.58473,675.626828 L1040.65351,680.163536 L1002.72765,666.104435 L1002.27626,629.893427 L984.893653,598.219126 L957.977145,345.05236 C944.448176,369.811817 934.966647,416.757666 929.532273,485.891315 C933.417613,508.359272 928.601618,525.797089 915.084145,538.205288 L909.440404,539.717524 L908.258557,533.978873 L913.052436,526.639031 L912.202574,520.811424 L905.376987,516.585009 L914.63276,501.99428 L911.419204,484.689371 L900.131722,487.713843 C904.103513,508.733846 899.287518,526.171662 885.683594,540.027816 L880.039853,541.540052 L846.907869,520.14111 C836.948276,522.809774 826.431161,507.46203 815.356208,474.097416 C785.593172,440.041101 769.171251,414.165013 766.089955,396.468378 L760.446214,397.980613 L766.992726,468.890394 L775.119561,515.155424 L772.689376,533.972569 L783.246396,561.420454 L805.927177,688.560332 C798.402152,690.576656 795.60021,697.3827 797.521266,708.978667 L774.547826,745.411012 L768.904085,746.923248 L726.184344,740.20399 L726.914805,709.731633 L709.930673,647.67393 L704.685409,618.802764 L709.147303,611.551877 L702.6537,607.236506 L701.803838,601.4089 C691.459075,542.439883 685.873142,477.328707 685.045874,406.073421 L690.689615,404.561186 L683.864027,400.33477 L683.014165,394.507164 L684.594488,369.862413 L674.555345,348.331089 L673.705483,342.503483 L679.349224,340.991247 L681.380933,352.557504 L687.024674,351.045269 L684.143103,333.651405 L677.317515,329.424989 L687.303749,284.361903 L684.090194,267.056994 L679.296315,274.396837 L673.652574,275.909072 L667.158971,271.593702 L663.945416,254.288793 L669.589156,252.776557 L676.414744,257.002973 L682.058485,255.490737 L691.314258,240.900008 Z M889.815696,414.266667 L898.686552,430.042712 L904.352273,428.524587 C900.509113,407.960505 910.223717,350.899077 933.496375,257.338591 L933.931297,226.967081 C915.0868,269.509074 900.381747,331.941645 889.815696,414.266667 Z M958.2494,269.240187 L953.818098,276.496871 L979.193126,421.430651 L984.811278,419.925272 L969.140845,296.668433 L962.335843,292.422508 L967.953994,290.917129 L961.479472,286.582652 L960.292621,280.831348 L965.054402,273.486113 L963.867552,267.734808 L958.2494,269.240187 Z M1000.51142,572.75842 L1008.65408,619.365724 L1014.39812,617.826611 L1015.22195,587.112665 L1006.25547,571.219307 L1000.51142,572.75842 Z M1290.03999,28.6334881 L1301.29833,25.6168261 L1303.35427,37.26322 L1296.20781,63.5726696 L1289.71623,59.213441 L1284.08706,60.7217719 L1290.03999,28.6334881 Z M1082.19924,90.422889 L1093.48673,87.3984174 L1112.44966,94.4279675 L1111.26781,88.6893162 C1132.41755,87.059166 1149.21578,92.6502033 1161.663,105.462596 C1174.72113,101.96368 1198.81843,137.893689 1233.9556,213.2537 L1280.18156,73.7056439 L1284.64345,66.4547569 L1290.2872,64.9425211 L1291.46904,70.6811723 L1249.3065,233.361743 L1260.59399,230.337272 C1288.40156,97.7422225 1307.94882,29.9334717 1319.23636,26.9089849 L1338.19929,33.938535 L1337.01745,28.1998838 C1353.17412,23.8707165 1377.36444,37.573159 1409.58912,69.3076223 L1412.4707,86.7014861 L1408.0088,93.9523731 L1414.5024,98.2677436 L1418.56582,121.400259 L1407.27834,124.42473 L1424.66095,156.099031 L1430.3576,221.181206 L1433.23917,238.575069 L1440.06476,242.801485 L1440.91462,248.629091 L1431.99083,263.130865 L1444.97804,271.761606 L1436.05425,286.26338 L1449.04145,294.894121 L1444.57956,302.145008 L1438.93582,303.657244 L1445.76141,307.883659 L1474.20533,469.811264 C1462.91779,472.835751 1458.34528,480.116217 1460.48766,491.652881 C1449.20012,494.677367 1445.19418,505.842865 1448.46972,525.149709 L1431.5385,529.686417 L1393.61263,515.627317 L1393.16125,479.416308 L1375.77864,447.742007 L1348.86213,194.575241 C1335.33316,219.334698 1325.85163,266.280547 1320.41726,335.414196 C1324.3026,357.882153 1319.4866,375.31997 1305.96913,387.728169 L1300.32539,389.240405 L1299.14354,383.501754 L1303.93742,376.161912 L1303.08756,370.334305 L1296.26197,366.10789 L1305.51775,351.517161 L1302.30419,334.212252 L1291.01671,337.236724 C1294.9885,358.256727 1290.1725,375.694543 1276.56858,389.550697 L1270.92484,391.062933 L1237.79286,369.663991 C1227.83326,372.332655 1217.31615,356.984911 1206.24119,323.620298 C1176.47816,289.563982 1160.05624,263.687894 1156.97494,245.991259 L1151.3312,247.503495 L1157.87771,318.413275 L1166.00455,364.678305 L1163.57436,383.49545 L1174.13138,410.943335 L1196.81216,538.083213 C1189.28714,540.099537 1186.4852,546.905581 1188.40625,558.501548 L1165.43281,594.933894 L1159.78907,596.446129 L1117.06933,589.726871 L1117.79979,559.254514 L1100.81566,497.196811 L1095.5704,468.325645 L1100.03229,461.074758 L1093.53869,456.759388 L1092.68882,450.931781 C1082.34406,391.962764 1076.75813,326.851589 1075.93086,255.596303 L1081.5746,254.084067 L1074.74901,249.857651 L1073.89915,244.030045 L1075.47947,219.385294 L1065.44033,197.85397 L1064.59047,192.026364 L1070.23421,190.514128 L1072.26592,202.080386 L1077.90966,200.56815 L1075.02809,183.174286 L1068.2025,178.947871 L1078.18874,133.884784 L1074.97518,116.579876 L1070.1813,123.919718 L1064.53756,125.431954 L1058.04396,121.116583 L1054.8304,103.811674 L1060.47414,102.299439 L1067.29973,106.525854 L1072.94347,105.013618 L1082.19924,90.422889 Z M1292.13563,306.465365 L1301.00649,322.24141 L1306.67221,320.723285 C1302.82905,300.159202 1312.54365,243.097774 1335.81631,149.537289 L1336.25123,119.165779 C1317.40674,161.707772 1302.70168,224.140343 1292.13563,306.465365 Z M1360.56934,161.438885 L1356.13804,168.695569 L1381.51306,313.629349 L1387.13121,312.12397 L1371.46078,188.867131 L1364.65578,184.621206 L1370.27393,183.115827 L1363.79941,178.78135 L1362.61256,173.030046 L1367.37434,165.68481 L1366.18749,159.933506 L1360.56934,161.438885 Z M1402.83135,464.957118 L1410.97401,511.564422 L1416.71806,510.025309 L1417.54189,479.311363 L1408.5754,463.418005 L1402.83135,464.957118 Z M1687.30862,-153.284993 L1719.62789,-141.641638 C1720.61852,-106.049642 1710.52573,-86.1292284 1689.34922,-81.879799 L1543.61685,-35.7069713 L1545.98006,-24.2294629 L1574.42229,-29.713348 L1607.75223,-42.2060589 L1614.75997,-37.3160166 L1620.49705,-38.4970656 L1659.47503,-52.5031626 L1671.03825,-54.5329235 L1672.21985,-48.7941693 L1544.63715,-0.00437447828 L1553.92868,75.8695017 L1559.66576,74.6884527 L1709.86456,21.2634847 L1716.45101,25.9102126 L1717.63261,31.6489668 L1706.0694,33.6787276 L1707.58324,39.3284591 L1748.77029,37.5535674 L1749.95189,43.2923215 C1747.39649,66.5363506 1697.92426,98.0770367 1601.53371,137.915326 L1545.25543,155.132233 L1552.08507,159.357601 L1544.0763,238.442287 L1538.42826,239.955673 L1528.12607,188.217863 L1522.38899,189.398912 L1532.44083,270.768228 C1641.14365,225.493677 1719.16618,198.176104 1766.51077,188.814691 L1796.1346,189.06956 L1798.83005,200.458046 L1787.35588,202.820144 L1793.94233,207.466871 L1797.48714,224.683134 C1790.43347,241.771013 1769.00145,253.925201 1733.19046,261.146064 L1734.37206,266.884818 L1780.35778,257.768764 L1782.38875,269.335295 L1529.91879,378.30337 L1524.18171,379.484419 C1504.95071,380.362953 1494.29646,376.924985 1492.21863,369.170413 L1491.95148,368.173401 L1488.40667,350.957139 L1487.63672,285.623037 L1480.71803,281.065331 L1492.10315,278.370896 L1497.67893,307.15369 L1503.50506,306.304978 C1500.67383,286.878958 1502.66962,276.608209 1509.4925,275.492424 L1502.48476,270.602381 L1491.42225,213.369131 L1479.85903,215.398892 L1479.69773,245.362735 L1484.58545,238.353909 L1490.32253,237.17286 L1497.07991,271.694407 L1491.25378,272.543119 L1487.79802,255.659194 L1482.06094,256.840243 L1484.42414,268.317751 L1478.68706,269.4988 L1476.32385,258.021292 L1468.70747,157.833305 L1462.97038,159.014354 L1468.62558,128.290822 L1461.7069,123.733117 L1460.52529,117.994362 L1447.26087,19.3197612 L1454.17956,23.8774664 L1459.91664,22.6964175 L1457.55344,11.2189091 L1446.24057,-16.3828356 L1441.67546,-69.301695 L1438.13065,-86.5179575 L1443.95678,-87.3666694 L1450.87547,-82.8089642 L1455.43095,-89.7287673 L1461.25708,-90.5774792 L1468.08672,-86.3521111 L1472.6422,-93.2719143 L1489.9425,-96.4827241 L1687.30862,-153.284993 Z M1491.64806,248.289253 L1497.61594,247.401673 L1505.38598,287.298672 L1499.50704,288.518175 L1491.64806,248.289253 Z M1680.29666,205.364313 L1685.9579,203.84739 L1686.77683,209.56778 L1586.91641,247.156737 L1579.92854,242.390509 L1578.86394,237.085345 L1629.53663,221.061831 L1630.68857,226.692991 L1680.29666,205.364313 Z M2078.49576,-184.919589 L2096.94704,-183.80594 L2099.97587,-172.502202 L2083.03901,-167.963983 L2098.87349,-154.033855 C2095.72983,-132.999232 2068.14415,-115.51168 2016.11562,-101.570676 L1978.11068,-85.3296291 L1977.0083,-66.8612827 L1982.65392,-68.3740224 C1978.5487,-38.5297217 1988.27361,88.0931741 2011.82894,311.498464 L2048.45318,380.43454 L2042.80756,381.94728 C2034.39444,384.20157 2021.81902,367.379162 2005.08094,331.47955 L1995.58242,273.448121 L1994.06801,267.796252 L1988.42239,269.308992 L1991.45122,280.61273 C1980.15992,283.638224 1975.52395,288.918824 1977.54318,296.454687 L1979.05759,302.106556 L2014.57946,389.510979 L2016.09387,395.162848 L2004.80263,398.188327 L1977.6769,387.283679 L1973.54569,394.448288 L1967.90007,395.961027 C1944.11481,367.413495 1929.0154,341.171399 1922.60138,317.233952 L1929.76142,321.373082 L1935.40704,319.860342 L1913.5149,283.322739 L1928.93735,273.132651 L1921.36528,244.873307 L1910.07404,247.898786 L1908.55962,242.246917 C1919.85092,239.221422 1924.48689,233.940823 1922.46766,226.40496 L1920.95325,220.753091 L1909.662,223.778571 C1901.58509,193.635119 1903.19226,177.050895 1914.48356,174.0254 L1894.79618,100.551104 C1899.34859,93.6299395 1896.27522,52.0502867 1885.57598,-24.1891013 L1847.57104,-7.94805453 L1767.01793,7.57843224 L1765.50351,1.92656333 L1792.21721,-11.289004 L1793.73162,-5.63713512 L1797.86283,-12.8017437 L1882.54715,-35.4928391 L1878.00391,-52.4484458 L1790.70279,-16.9408729 L1783.54276,-21.0800021 L1777.89714,-19.5672625 L1745.53782,-4.83895541 L1725.57213,-11.6044741 L1723.64568,-41.3765584 L1716.48565,-45.5156876 C1711.43758,-64.3553448 1731.49584,-79.8259304 1776.66104,-91.9279084 L2078.49576,-184.919589 Z M2048.91836,-158.698428 L2050.44302,-153.008319 L2073.14891,-159.092343 L2071.62425,-164.782452 L2048.91836,-158.698428 Z M1925.11724,213.710851 L1947.11624,341.223994 L1958.46918,338.181982 L1945.21272,311.414095 L1942.18073,300.098537 L1948.98568,280.083189 L1943.30921,281.604195 L1947.46968,274.42541 L1945.95369,268.767632 L1938.76122,264.630859 L1937.24522,258.97308 L1942.53417,233.299953 L1930.79371,212.189845 L1925.11724,213.710851 Z" mask="url(#grommet-home-footer-layer-2-b)" opacity=".5"/>
  </g>
</svg>
