<?xml version="1.0" encoding="UTF-8"?>
<svg width="1440px" height="710px" viewBox="0 0 1440 710" version="1.1" xmlns="http://www.w3.org/2000/svg" xmlns:xlink="http://www.w3.org/1999/xlink">
    <!-- Generator: Sketch 49.1 (51147) - http://www.bohemiancoding.com/sketch -->
    <title>grommet-home-used-layer-2</title>
    <desc>Created with Sketch.</desc>
    <defs></defs>
    <g id="grommet-home-used-layer-2" stroke="none" stroke-width="1" fill="none" fill-rule="evenodd" opacity="0.5">
        <polygon id="Polygon" stroke="#6095EB" stroke-width="2" style="mix-blend-mode: color-burn;" points="1156 247 1199 241 1205 284 1162 290"></polygon>
        <polygon id="Polygon" stroke="#EBDA60" stroke-width="2" style="mix-blend-mode: color-burn;" points="1266 17 1301 20 1308 54 1278 71 1252 48"></polygon>
        <polygon id="Polygon" stroke="#EBDA60" stroke-width="2" style="mix-blend-mode: color-burn;" points="707 25 727 53 706 80 673 68 674 34"></polygon>
        <polygon id="Polygon" stroke="#60EB9F" stroke-width="2" style="mix-blend-mode: color-burn;" points="970 142 998 162 987 195 952 195 941 162"></polygon>
        <polygon id="Polygon" stroke="#6095EB" stroke-width="2" style="mix-blend-mode: color-burn;" points="1329 108 1372 102 1378 145 1335 151"></polygon>
        <polygon id="Polygon" stroke="#6095EB" stroke-width="2" style="mix-blend-mode: color-burn;" points="858 301 901 295 907 338 864 344"></polygon>
        <polygon id="Polygon" stroke="#6095EB" stroke-width="2" style="mix-blend-mode: color-burn;" points="707 140 750 134 756 177 713 183"></polygon>
        <polygon id="Polygon" stroke="#60EBE1" stroke-width="2" style="mix-blend-mode: color-burn;" points="1478 81 1473 127 1436 100"></polygon>
        <polygon id="Polygon" stroke="#60EBE1" stroke-width="2" style="mix-blend-mode: color-burn;" points="794 221 835 242 798 267"></polygon>
        <polygon id="Polygon" stroke="#60EBE1" stroke-width="2" style="mix-blend-mode: color-burn;" points="1080 302 1121 323 1084 348"></polygon>
        <path d="M1303,185 C1315.47869,185 1326,195.521308 1326,209 C1326,221.478692 1315.47869,232 1303,232 C1289.52131,232 1279,221.478692 1279,209 C1279,195.521308 1289.52131,185 1303,185 Z" id="Polygon" stroke="#9060EB" stroke-width="2" style="mix-blend-mode: color-burn;"></path>
        <path d="M1097,212 C1109.47869,212 1120,222.521308 1120,236 C1120,248.478692 1109.47869,259 1097,259 C1083.52131,259 1073,248.478692 1073,236 C1073,222.521308 1083.52131,212 1097,212 Z" id="Polygon" stroke="#9060EB" stroke-width="2" style="mix-blend-mode: color-burn;"></path>
        <polygon id="Polygon" stroke="#EB6060" stroke-width="2" style="mix-blend-mode: color-burn;" points="1171 136 1153 144 1162 126 1149 112 1168 115 1178 98 1181 118 1200 122 1182 130 1184 150"></polygon>
        <polygon id="Polygon" stroke="#EB6060" stroke-width="2" style="mix-blend-mode: color-burn;" points="712 295 704 313 700 294 680 291 697 281 694 262 708 275 726 266 718 284 732 297"></polygon>
        <polygon id="Polygon" stroke="#EB6060" stroke-width="2" style="mix-blend-mode: color-burn;" points="989 305 975 319 978 299 960 290 980 287 983 267 992 285 1012 282 998 296 1007 314"></polygon>
        <polygon id="Polygon" stroke="#FD6FFF" stroke-width="2" style="mix-blend-mode: color-burn;" points="958 16 946 32 946 12 927 6 946 1.0658141e-14 946 -20 958 -4 976 -11 965 6 977 22"></polygon>
        <polygon id="Polygon" stroke="#6095EB" stroke-width="2" style="mix-blend-mode: color-burn;" points="1037 100 1080 94 1086 137 1043 143"></polygon>
        <polygon id="Polygon" stroke="#60EBE1" stroke-width="2" style="mix-blend-mode: color-burn;" points="846 25 841 71 804 44"></polygon>
        <path d="M858,152 C870.478692,152 881,162.521308 881,176 C881,188.478692 870.478692,199 858,199 C844.521308,199 834,188.478692 834,176 C834,162.521308 844.521308,152 858,152 Z" id="Polygon" stroke="#9060EB" stroke-width="2" style="mix-blend-mode: color-burn;"></path>
        <polygon id="Polygon" stroke="#FD6FFF" stroke-width="2" style="mix-blend-mode: color-burn;" points="1380 280 1363 291 1370 273 1354 261 1374 261 1380 242 1386 261 1406 261 1390 273 1396 292"></polygon>
        <polygon id="Polygon" stroke="#EBDA60" stroke-width="2" style="mix-blend-mode: color-burn;" points="174 503 188 534 162 557 132 540 139 506"></polygon>
        <polygon id="Polygon" stroke="#EBDA60" stroke-width="2" style="mix-blend-mode: color-burn;" points="732 511 765 520 766 554 733 566 712 539"></polygon>
        <polygon id="Polygon" stroke="#60EB9F" stroke-width="2" style="mix-blend-mode: color-burn;" points="177 191 205 211 194 244 160 244 149 211"></polygon>
        <polygon id="Polygon" stroke="#6095EB" stroke-width="2" style="mix-blend-mode: color-burn;" points="111 594 105 637 62 631 68 588"></polygon>
        <polygon id="Polygon" stroke="#6095EB" stroke-width="2" style="mix-blend-mode: color-burn;" points="733 626 727 669 684 663 690 620"></polygon>
        <polygon id="Polygon" stroke="#60EBE1" stroke-width="2" style="mix-blend-mode: color-burn;" points="130 426 118 470 86 439"></polygon>
        <polygon id="Polygon" stroke="#60EBE1" stroke-width="2" style="mix-blend-mode: color-burn;" points="-38 567 4 586 -33 613"></polygon>
        <polygon id="Polygon" stroke="#60EBE1" stroke-width="2" style="mix-blend-mode: color-burn;" points="646 707 642 753 605 728"></polygon>
        <path d="M137,671 C149.478692,671 160,681.521308 160,695 C160,707.478692 149.478692,718 137,718 C123.521308,718 113,707.478692 113,695 C113,681.521308 123.521308,671 137,671 Z" id="Polygon" stroke="#9060EB" stroke-width="2" style="mix-blend-mode: color-burn;"></path>
        <path d="M50,262 C62.4786916,262 73,272.521308 73,286 C73,298.478692 62.4786916,309 50,309 C36.5213084,309 26,298.478692 26,286 C26,272.521308 36.5213084,262 50,262 Z" id="Polygon" stroke="#9060EB" stroke-width="2" style="mix-blend-mode: color-burn;"></path>
        <polygon id="Polygon" stroke="#FD6FFF" stroke-width="2" style="mix-blend-mode: color-burn;" points="481 502 462 508 474 492 463 475 481 482 493 466 493 486 512 492 493 498 493 518"></polygon>
        <polygon id="Polygon" stroke="#6095EB" stroke-width="2" style="mix-blend-mode: color-burn;" points="403 586 397 629 354 623 360 580"></polygon>
        <polygon id="Polygon" stroke="#6095EB" stroke-width="2" style="mix-blend-mode: color-burn;" points="659 368 653 411 610 405 616 362"></polygon>
        <polygon id="Polygon" stroke="#60EBE1" stroke-width="2" style="mix-blend-mode: color-burn;" points="593 511 635 530 598 557"></polygon>
        <path d="M581,638 C593.478692,638 604,648.521308 604,662 C604,674.478692 593.478692,685 581,685 C567.521308,685 557,674.478692 557,662 C557,648.521308 567.521308,638 581,638 Z" id="Polygon" stroke="#9060EB" stroke-width="2" style="mix-blend-mode: color-burn;"></path>
    </g>
</svg>