<?xml version="1.0" encoding="UTF-8"?>
<svg width="822px" height="816px" viewBox="0 0 822 816" version="1.1" xmlns="http://www.w3.org/2000/svg" xmlns:xlink="http://www.w3.org/1999/xlink">
    <!-- Generator: Sketch 48.2 (47327) - http://www.bohemiancoding.com/sketch -->
    <title>Stak</title>
    <desc>Created with Sketch.</desc>
    <defs></defs>
    <g id="Page-1" stroke="none" stroke-width="1" fill="none" fill-rule="evenodd">
        <g id="Stak" fill-rule="nonzero">
            <g id="Group" fill="#9060EB">
                <path d="M432.939702,565.012752 C287.762007,498.892782 204.932724,449.602986 184.451853,417.143364 C163.970982,384.683741 125.085163,301.101726 67.7943962,166.397317 L128.445723,113.044373 C177.16003,267.746383 209.546191,358.287796 225.604206,384.668609 C249.691229,424.23983 386.970429,496.847985 418.418277,517.515311 C439.383509,531.293528 444.223984,547.126008 432.939702,565.012752 Z" id="Shape"></path>
                <path d="M206.021609,439.926811 C183.325204,421.059136 167.376045,403.656207 158.174131,387.718026 L188.175009,409.015593 C222.769148,448.490747 228.718014,458.794486 206.021609,439.926811 Z M130.766131,78.6553119 C131.293995,82.7863047 133.247788,91.8534968 134.505862,95.4980667 C135.378145,98.0250197 146.020319,96.8196875 146.850799,96.3399417 C153.773007,92.3411681 164.657064,79.5210895 170.964404,80.3687386 C177.186566,81.2049406 188.987979,94.858971 187.626345,98.1037131 C186.264711,101.348455 181.96074,110.694277 166.097372,128.857119 C155.521794,140.96568 146.356794,151.151861 138.602371,159.415662 C131.939233,94.3141708 129.327153,67.394054 130.766131,78.6553119 Z" id="Shape"></path>
                <path d="M49.1668512,156.20795 C44.2330258,147.66901 28.3243653,115.282764 1.44086973,59.0492113 C-0.904471647,54.1433461 0.686680694,48.2599406 5.18501987,45.204931 L11.2022809,41.1183583 C16.2099839,37.7174185 23.024493,39.0016881 26.4507527,43.9921013 L51.3776895,80.2986407 C52.2815132,81.6150773 54.0813898,81.9495661 55.3978264,81.0457425 C56.1656097,80.5186067 56.632468,79.6539088 56.6520095,78.7227904 C56.6775445,77.5060869 50.3748236,57.3409226 37.743847,18.2272977 C35.9310437,12.6136909 38.8690843,6.56946701 44.4033384,4.52719657 L53.922002,1.01458489 C59.5640592,-1.06746746 65.8323411,1.76754187 67.9946369,7.37933554 L89.3925405,62.9131893 C89.865905,64.1417094 91.0847926,64.9181793 92.3982575,64.827926 C93.6222364,64.7438215 94.5503412,63.6899819 94.4790951,62.4651873 L92.0502635,20.7110464 C91.7218926,15.0660105 95.7268899,10.0915764 101.311934,9.20752593 L108.943136,8.00166938 C114.94277,7.05199386 120.576518,11.145151 121.527313,17.1446079 L133.946609,95.4964864 L141.193627,135.075403 L80.2677047,189.39356 C64.7120521,176.231784 54.3451009,165.169914 49.1668512,156.20795 Z" id="Shape"></path>
            </g>
            <path d="M686.935785,593.046503 C765.673769,710.852828 810.55162,784.947905 821.56934,815.331736 L767.5,815.331736 C745.084218,756.826622 689.161298,668.239961 675.753188,641.483653 C664.515342,619.058176 668.242875,602.91246 686.935785,593.046503 Z" id="Shape" fill="#885BDF"></path>
            <g id="Group" transform="translate(387.000000, 124.000000)">
                <path d="M306.842994,12.6127868 C323.839495,26.3762822 333.5315,49.4116003 318.375884,68.1272283 C303.220267,86.8428564 268.841286,98.0663695 249.999531,82.8086173 C231.157776,67.5508652 234.988237,31.589648 250.143854,12.87402 C265.29947,-5.84160811 289.846493,-1.15070858 306.842994,12.6127868 Z" id="Shape" fill="#885BDF"></path>
                <path d="M7.57879449,69.6419636 C-7.60333791,50.8675718 2.00845997,27.8387179 18.938232,14.1102323 C35.8680039,0.381746808 60.3608088,-4.24509038 75.5429412,14.5293014 C81.1575873,21.4724346 85.2324797,30.771975 87.1893327,40.5052023 C146.43232,20.9956061 258.6269,29.0130051 274.349352,64.5573992 C285.520588,89.8126707 292.682126,170.635564 297.165492,250.9483 C299.010014,283.990125 300.401224,340.70783 301.431845,369.671878 C303.376414,424.321072 303.476182,691.5468 303.476182,691.5468 L25.5327977,690.521681 C25.5327977,690.521681 23.5934949,424.321072 25.5327977,369.671878 C26.5606273,340.70783 27.9487131,283.990125 29.7902096,250.9483 C33.2131074,189.531517 38.2025321,127.816396 45.3567198,90.8812727 C30.823115,88.462848 16.1476132,80.238259 7.57879449,69.6419636 Z" id="Shape" fill="#9060EB"></path>
                <path d="M265.735558,691.513489 C266.237973,670.536898 266.989872,562.204153 266.989872,538.274573 C266.989872,473.749725 220.678752,445.689438 163.551091,445.689438 C106.423431,445.689438 60.1123114,473.749719 60.1123114,538.274573 C60.1123114,561.684964 60.3532828,669.955755 60.8219034,690.52656 L265.735558,691.513489 Z" id="Shape" fill="#6CF5AA"></path>
                <path d="M163.352097,456.801414 C174.196056,451.473806 182.700189,444.393881 188.864495,435.561639 C179.644679,440.114049 165.658621,443.966006 146.906321,447.117511 C118.777871,451.844767 124.605845,474.723992 163.352097,456.801414 Z" id="Shape" fill="#6CF5AA" transform="translate(159.110395, 449.559218) scale(-1, 1) rotate(4.000000) translate(-159.110395, -449.559218) "></path>
                <path d="M190.971009,64.7309696 C181.098213,86.9976139 172.839896,161.865184 167.980664,247.678091 C163.121431,333.490998 161.285818,691.161258 161.285818,691.161258 L275.07465,691.161258 C274.955658,691.161258 220.084984,496.150238 244.4331,421.660229 C260.690733,371.922039 279.666816,370.54945 300.188027,353.718988 C320.709237,336.888526 238.213502,366.259857 244.4331,277.102522 C231.729446,223.315706 266.220633,185.517347 275.07465,165.620813 C289.628356,132.916075 249.710788,119.049971 249.710788,96.6975678 C249.710788,70.9925228 240.224904,37.5187892 300.188027,30.1140696 C221.231311,33.1212845 197.549212,49.8947963 190.971009,64.7309696 Z" id="Shape" fill-opacity="0.05" fill="#000000" transform="translate(232.380906, 360.637664) scale(-1, 1) translate(-232.380906, -360.637664) "></path>
                <path d="M303.589969,450.490781 C303.589969,431.456211 306.28174,412.507866 311.665282,393.645748 C297.412293,402.939449 290.285799,416.627128 290.285799,434.708785 C290.285799,461.83127 303.589969,479.042637 303.589969,450.490781 Z" id="Shape" fill="#885BDF" transform="translate(300.975540, 429.426961) rotate(1.000000) translate(-300.975540, -429.426961) "></path>
                <path d="M224.837784,155.667057 C243.382166,155.667057 254.01914,178.692907 254.01914,163.25982 C254.01914,147.826733 241.544594,135.315743 226.156461,135.315743 C210.768329,135.315743 198.293783,147.826733 198.293783,163.25982 C198.293783,178.692907 206.293402,155.667057 224.837784,155.667057 Z" id="Shape" fill="#7A52C7" transform="translate(226.156462, 151.950049) scale(-1, 1) rotate(45.000000) translate(-226.156462, -151.950049) "></path>
                <path d="M102.181748,177.194298 C120.72613,177.194298 131.363104,200.220148 131.363104,184.78706 C131.363104,169.353973 118.888558,156.842984 103.500425,156.842984 C88.1122926,156.842984 75.6377466,169.353973 75.6377466,184.78706 C75.6377466,200.220148 83.6373654,177.194298 102.181748,177.194298 Z" id="Shape" fill="#976AEB" transform="translate(103.500425, 173.477290) scale(-1, 1) rotate(-135.000000) translate(-103.500425, -173.477290) "></path>
                <path d="M164.441745,212.98153 C158.162928,212.98153 142.465884,203.934973 142.465884,193.701452 C142.465884,183.46793 154.03866,182.099148 164.441745,182.099148 C174.844831,182.099148 186.417607,183.46793 186.417607,193.701452 C186.417607,203.934973 170.720563,212.98153 164.441745,212.98153 Z M92.2353433,182.099148 C81.8322577,182.099148 73.3988906,173.80324 73.3988906,163.569719 C73.3988906,153.336197 81.8322577,145.040289 92.2353433,145.040289 C102.638429,145.040289 111.071796,153.336197 111.071796,163.569719 C111.071796,173.80324 102.638429,182.099148 92.2353433,182.099148 Z M236.648147,182.099148 C226.245062,182.099148 217.811695,173.80324 217.811695,163.569719 C217.811695,153.336197 226.245062,145.040289 236.648147,145.040289 C247.051233,145.040289 255.4846,153.336197 255.4846,163.569719 C255.4846,173.80324 247.051233,182.099148 236.648147,182.099148 Z" id="Shape" fill="#333333"></path>
                <path d="M157.385797,194.580778 C153.090479,194.580778 149.608435,193.166973 149.608435,191.422958 C149.608435,189.678942 153.090479,188.265138 157.385797,188.265138 C161.681116,188.265138 165.16316,189.678942 165.16316,191.422958 C165.16316,193.166973 161.681116,194.580778 157.385797,194.580778 Z M81.8014524,158.265849 C81.8014524,155.688658 83.9221586,153.599431 86.5381822,153.599431 C89.1542059,153.599431 91.274912,155.688658 91.274912,158.265849 C91.274912,160.84304 89.1542059,162.932267 86.5381822,162.932267 C83.9221586,162.932267 81.8014524,160.84304 81.8014524,158.265849 Z M224.904924,158.265849 C224.904924,155.688658 227.025631,153.599431 229.641654,153.599431 C232.257678,153.599431 234.378384,155.688658 234.378384,158.265849 C234.378384,160.84304 232.257678,162.932267 229.641654,162.932267 C227.025631,162.932267 224.904924,160.84304 224.904924,158.265849 Z" id="Shape" fill-opacity="0.3" fill="#FFFFFF"></path>
                <path d="M63.3792464,106.976862 L59.7937608,106.17672 L70.4670279,103.628832 C76.1105676,102.027884 84.9336482,99.6425452 94.7605528,97.4196515 C97.7713008,96.7386057 100.69644,96.131981 103.470318,95.5949386 L101.759806,93.7900131 L112.848011,93.7900131 L108.217196,90.8222228 C117.556187,90.8222228 122.93002,90.8222228 124.338695,90.8222228 C125.877431,90.8222228 126.448736,91.571103 126.617539,92.578908 C126.679019,92.7054642 126.710078,92.8526599 126.701964,93.0129637 L126.676521,93.5156068 C126.675053,93.6063979 126.672016,93.6979543 126.667713,93.7900131 C126.666282,93.8206459 126.66303,93.8514253 126.657958,93.8823513 L125.55756,115.622061 C125.529882,116.168869 125.060148,116.617713 124.508671,116.618811 C124.508671,116.618811 113.093472,116.598132 96.8525438,117.323616 C80.6116159,118.0491 67.3559567,118.706484 67.3559567,118.706484 C66.80341,118.733659 66.248572,118.319711 66.1125521,117.782005 L63.3792464,106.976862 Z M246.278974,118.109624 L250.063528,120.534012 C241.517276,119.110393 234.559397,118.016984 229.189892,117.253784 C228.272343,117.208866 227.34361,117.16358 226.405514,117.118034 C209.407599,116.29276 197.416695,116.232273 197.416695,116.232273 C196.865844,116.227587 196.392417,115.784575 196.357759,115.218147 L195.029584,93.5110128 C194.832725,92.0737022 194.383547,89.6117841 193.682051,86.1252583 L208.368597,93.8971599 C208.396195,93.901443 208.423828,93.9057349 208.451497,93.9100357 L207.063097,90.9966668 L218.056454,95.484229 C218.057387,95.5024676 218.058324,95.5206948 218.059266,95.5389104 C221.338171,96.1418181 224.83791,96.834809 228.454394,97.6242485 C246.097729,101.475598 260.699022,105.784534 260.699022,105.784534 C261.22884,105.938389 261.543464,106.499342 261.402009,107.036491 L258.577353,117.762624 C258.435784,118.300205 257.872846,118.712268 257.327759,118.683497 C257.327759,118.683497 253.023132,118.454671 246.278974,118.109624 Z M149.98826,315.02673 C148.23437,315.02673 146.812561,313.609402 146.812561,311.86104 C146.812561,310.112677 148.23437,308.695349 149.98826,308.695349 L178.203089,308.695349 C179.956979,308.695349 181.378788,310.112677 181.378788,311.86104 C181.378788,313.609402 179.956979,315.02673 178.203089,315.02673 L149.98826,315.02673 Z" id="Shape" fill="#6D49B2"></path>
            </g>
            <path d="M550,415 C608.542183,415 656,395.225283 656,370.389709 C656,345.554135 608.542183,362.87709 550,362.87709 C491.457817,362.87709 444,345.554135 444,370.389709 C444,395.225283 491.457817,415 550,415 Z" id="Shape" fill="#8F2E2E"></path>
            <path d="M474,357 C480.08,357 490.72,358.450152 490.72,358.450152 C489.2,363.525684 486.16,373.153979 482.36,373.153979 C478.56,373.153979 475.52,362.800608 474,357 Z M626,357 C624.48,362.800608 621.44,374 617.64,374 C613.84,374 610.8,363.525684 609.28,358.450152 C609.28,358.450152 619.92,357 626,357 Z" id="Shape" fill="#FFFFFF"></path>
            <path d="M552.999955,369 C590.003034,369 620,376.46265 620,390.26575 C620,409.177737 590.003034,413 552.999955,413 C515.996877,413 486,412.654545 486,390.26575 C486,376.462654 515.996877,369 552.999955,369 Z" id="Shape" fill="#7F2828"></path>
            <path d="M518,371.689251 C530.887047,370.161119 546.518482,372.440959 548.720497,379.249212 C550.922512,386.057466 545.783628,388.143633 545.833512,392.789339 C545.883397,397.435044 549.000934,400 552.392467,400 C555.678073,400 558.79561,397.435044 558.845495,392.789339 C558.89538,388.143633 553.756495,386.057466 555.95851,379.249212 C558.160525,372.440959 577.294836,370.094477 588,371.689251 L581.36037,367 L523.167042,367 L518,371.689251 Z" id="Shape" fill="#8F2E2E"></path>
            <path d="M590.999991,411.093306 C591.007523,410.180111 586.170082,406.386606 571.077712,403.503042 C560.498717,401.481808 555.383181,406.204312 553.183969,406.204312 C550.984756,406.204312 545.435018,401.481808 534.856023,403.503042 C519.763653,406.386606 514,411.144913 514,411.093306 C543.377377,413.981355 559.82681,415.845871 590.999991,411.093306 Z" id="Shape" fill="#AE3939"></path>
            <path d="M626,357 C625.011772,361.046654 623.035315,368.85964 620.564744,368.85964 C618.094174,368.85964 616.117717,361.552486 615.129489,358.011663 C615.129489,358.011663 622.047087,357 626,357 Z M485.743356,357.756233 C489.629136,358.052903 491.178612,358.439862 491.178612,358.439862 C490.190383,361.980684 486.608472,372 485.348027,372 C484.087582,372 486.731584,361.802887 485.743356,357.756233 Z" id="Shape" fill-opacity="0.05" fill="#000000"></path>
        </g>
    </g>
</svg>