<?xml version="1.0" encoding="UTF-8"?>
<svg width="555px" height="540px" viewBox="0 0 555 540" version="1.1" xmlns="http://www.w3.org/2000/svg" xmlns:xlink="http://www.w3.org/1999/xlink">
    <!-- Generator: Sketch 52.3 (67297) - http://www.bohemiancoding.com/sketch -->
    <title>Untitled</title>
    <desc>Created with Sketch.</desc>
    <g id="Page-1" stroke="none" stroke-width="1" fill="none" fill-rule="evenodd">
        <g id="gremlin-copy">
            <path d="M329.07588,390 L335,399.243544 C263.437641,441.407363 222.232292,464.601976 211.383955,468.827383 C195.111449,475.165492 90.9512803,453.853101 77.884445,451.544293 C64.8176097,449.235486 60.3211579,447.495319 57.4064768,438.712663 C54.4917957,429.930006 67.7987454,417.950052 79.8453989,411.687139 C91.8920525,405.424227 108.813339,426.454035 125.838869,432.904978 C137.189222,437.205607 163.019248,445.728892 203.328948,458.474835 L329.07588,390 Z" id="Shape" fill="#8354DB"></path>
            <path d="M380.849508,160.453773 C370.868184,147.407959 369.330281,136.39817 376.235799,127.424409 C386.594075,113.963766 418.576046,119.016088 422.494939,140.876273 C425.107533,155.44973 417.584254,166.490972 399.925101,174 L380.849508,160.453773 Z" id="Shape" fill="#9060EB"></path>
            <path d="M272.775335,188.652325 L279,211.227967 C265.832613,225.272918 252.818659,228.575411 239.958139,221.135445 C220.66736,209.975497 226.904226,178.162576 243.178188,173.02031 C254.027496,169.592132 263.893212,174.802804 272.775335,188.652325 Z" id="Shape" fill="#8156D3"></path>
            <path d="M336.158269,472.80105 C337.668048,464.254703 328.224125,418.286934 312.580996,368.049099 C307.115374,350.49628 269.103659,241.956939 266.762119,219.514677 C264.420578,197.072415 261.270216,194.45844 280.499397,181.019242 C307.838128,161.912311 350.451633,153.67632 370.110389,152.100732 C397.401138,149.913463 413.71713,183.693833 428.184301,219.599962 C431.41841,227.626711 456.025218,310.85657 457.417547,320.444238 C467.579155,390.417702 486,448.793561 486,499.172703 C486,515.393058 485.50794,528.668823 484.523819,539 L316.223658,539 C328.211344,509.218516 333.570075,487.451931 336.158269,472.80105 Z" id="Shape" fill="#9060EB"></path>
            <path d="M362.646779,499.942806 C372.569954,462.090221 342.707964,433.634233 389.523768,431.118707 C436.339573,428.60318 455.840358,466.513229 456.833496,502.487523 C457.287788,518.943269 456.833496,527.862273 455.210845,539 L352,539 C354.687553,529.785242 358.236479,516.766177 362.646779,499.942806 Z" id="Shape" fill="#6CF5AA"></path>
            <path d="M326.024034,163 C286.635838,180.716378 275.686751,199.166076 293.176772,218.349095 C319.826437,247.578393 318.586918,254.419292 311.769562,266.857291 C304.952205,279.29529 301.233647,300.439888 316.727639,302.927488 C329.122832,318.474987 365.688652,362.007983 342.757545,380.043081 C319.826437,398.07818 363.209614,414.247578 381.802403,414.247578 C385.934134,438.708976 388,454.878375 388,462.755774 C388,493.979404 380.562884,509.526903 371.886249,540 L316.727639,540 C326.5,513.258302 336.559948,479.804338 336.559948,469.725306 C336.559948,452.312108 301.853407,332.156785 293.176772,307.280788 C284.500137,282.40479 258.470231,208.398696 266.527106,195.338797 C276.018823,179.953073 295.851133,169.173474 326.024034,163 Z" id="Shape" fill-opacity="0.1" fill="#000000"></path>
            <path d="M371,340 L373,342 L371,340 Z" id="Shape" stroke="#979797" stroke-linecap="square"></path>
            <path d="M313.493546,305.946561 C315.207236,296.242694 323.700074,285.944478 350.5421,280.576409 C377.384126,275.208341 401.992846,276.502293 406.316728,280.390278 C410.64061,284.278263 421.041721,310.498019 421.938222,333.793738 C422.834724,357.089456 413.761503,373.001815 408.510361,381.457545 C403.259219,389.913275 391.933814,397.299597 385.431128,398.656155 C378.928443,400.012713 366.279597,397.160464 356.230444,393.515209 C346.181292,389.869954 341.659746,384.071124 340.372996,380.717843 C339.086245,377.364562 344.265489,365.769433 342.548833,354.210938 C340.832177,342.652442 322.428902,326.280128 318.605341,323.105576 C314.78178,319.931023 311.779856,315.650428 313.493546,305.946561 Z" id="Shape" fill="#8F2E2E"></path>
            <path d="M457,369.026018 C496.360577,266.447394 517.192048,208.609203 519.494412,195.511444 C521.796776,182.413684 508.825674,132.045256 480.581107,44.4061595 L506.58533,12 C531.628796,117.597442 542.965204,178.26129 540.594555,193.991542 C547.05597,182.629774 551.857785,176.476499 555,175.531717 C538.751534,217.174239 508.855422,285.663667 465.311662,381 L457,369.026018 Z" id="Shape" fill="#9060EB"></path>
            <path d="M346,202.388345 C347.225884,208.55797 349.269024,216.163062 352.129419,225.203621 C356.420013,238.764458 358.81551,242.463724 372.913175,249.862255 C387.01084,257.260787 409.745962,243.080268 390.744762,243.080268 C377.35,243.080268 367.908236,221.323754 376.647097,215.952319 C372.913175,204.237978 382.776517,202.388345 390.744762,199.305623 C390.744762,196.839446 375.829841,197.86702 346,202.388345 Z" id="Shape" fill="#8156D3"></path>
            <path d="M505.813582,11.799269 C507.616224,21.9113419 495.766381,68.159894 495.171353,71.497759 C494.576324,74.8356239 476.231629,84.8323987 468.768257,81.2275023 C461.304884,77.6226059 454.37183,68.2103126 451.330123,65.0608825 C448.288416,61.9114523 445.61405,-0.421111424 461.19633,0.00214569512 C476.77861,0.425402814 504.01094,1.68719605 505.813582,11.799269 Z" id="Shape" fill="#9060EB"></path>
            <path d="M365,410 C374.67081,414.834408 382.67081,415.28666 389,411.356755" id="Shape" stroke="#6D49B2" stroke-width="5" stroke-linecap="round" stroke-linejoin="round"></path>
            <path d="M294.594219,259.694281 C289.554992,254.225359 289.850626,245.657676 295.254535,240.557824 C300.658443,235.457973 304.508721,235.93043 309.547947,241.399351 C314.587174,246.868273 318.907097,255.262689 313.503188,260.36254 C308.099279,265.462392 299.633445,265.163202 294.594219,259.694281 Z" id="Shape" fill="#333333"></path>
            <path d="M299.044541,245.470317 C299.327405,243.83978 300.879915,242.755115 302.51217,243.047651 C304.144424,243.340187 305.238322,244.899146 304.955459,246.529683 C304.672595,248.16022 303.120085,249.244885 301.48783,248.952349 C299.855576,248.659813 298.761678,247.100854 299.044541,245.470317 Z" id="Oval" fill="#9B9B9B"></path>
            <path d="M374.372434,240.526026 C367.730643,237.141865 365.089813,229.014224 368.473974,222.372434 C371.858135,215.730643 379.985776,213.089813 386.627566,216.473974 C393.269357,219.858135 395.910187,227.985776 392.526026,234.627566 C389.141865,241.269357 381.014224,243.910187 374.372434,240.526026 Z" id="Oval" fill="#333333"></path>
            <path d="M316,301.87007 C320.435886,307.95669 324.736114,311 328.900685,311 C334.510122,311 326.790513,296.851206 329.537721,290 C324.603588,291.620666 320.091014,295.577356 316,301.87007 Z" id="Shape" fill="#FFFFFF"></path>
            <path d="M393.999029,277.841953 C394.045844,287.04684 392.399334,292.947097 389.059497,295.542725 C384.560929,299.038887 381.447882,281.470179 375,277.372933 C383.427016,276.750744 389.760025,276.907084 393.999029,277.841953 Z" id="Shape" fill="#FFFFFF"></path>
            <path d="M330.231361,288.91237 C330.39265,287.978939 338.535584,284.586991 349.116932,281.994989 C359.800083,279.37805 373.652028,277.056602 375.644064,278.386749 C379.609151,281.034367 380.190865,284.745106 376.690479,286.956411 C373.190093,289.167716 367.571825,288.53926 355.786101,290.931655 C344.000377,293.324049 334.449548,297.40802 331.998566,296.967005 C329.547584,296.52599 329.90723,290.788211 330.231361,288.91237 Z" id="Shape" fill="#FFFFFF"></path>
            <path d="M396.424223,278 C413.956063,278.418938 408.858552,290.695162 406.252463,287.456532 C403.646373,284.217901 399.924491,286.485615 396.983664,284.898888 C394.042837,283.31216 394.823891,279.45772 396.424223,278 Z" id="Shape" fill-opacity="0.899999976" fill="#FFFFFF"></path>
            <path d="M351.588966,252.313069 C355.362402,255.537492 351.1346,269.833117 344.038901,271.768429 C336.943201,273.703741 324.696585,263.02898 330.527199,257.597298 C336.357813,252.165615 347.81553,249.088646 351.588966,252.313069 Z" id="Shape" fill="#333333"></path>
            <path d="M410.551204,434.068251 C416.108164,435.543985 414.94978,437.521234 407.076049,440 C402.956245,437.419991 399.456318,434.792744 396.57627,432.118259 C393.696222,429.443774 392.170799,427.404354 392,426 C398.810508,429.903101 404.994243,432.592518 410.551204,434.068251 Z" id="Shape" fill="#6CF5AA"></path>
            <path d="M351.521774,373.658368 C361.69378,360.360655 355.920441,356.350344 350.372979,346.526579 C344.825518,336.702813 346.375634,332.647439 353.155865,330.805483 C359.936096,328.963527 374.328005,330.065409 372.478851,338.661204 C370.629697,347.256998 374.328005,347.256998 376.177158,347.256998 C378.026312,347.256998 382.957389,346.029028 380.491851,338.661204 C378.026312,331.29338 384.76998,323.743627 392.538855,324.006681 C407.553139,324.515065 413.411489,331.305054 414.821206,336.025309 C416.486346,341.600819 417.939108,343.807023 416.242158,350.326925 C411.927466,366.904529 407.612774,386.55206 394.052312,390.849957 C380.491851,395.147855 341.349768,386.95608 351.521774,373.658368 Z" id="Shape" fill="#772424"></path>
            <path d="M393,200.97089 C382.271581,203.063197 373.413477,205.169699 366.425687,207.290397 C359.437897,209.411096 353.809604,210.980963 349.540806,212 L340,198.145314 C343.206617,197.240681 346.032026,196.853518 348.476227,196.983825 C349.325981,197.029128 346.583179,194.645316 348.604322,194.497418 C352.114223,194.240579 361.198365,194.527708 364.569652,193.829889 C372.557892,192.176414 380.346574,191.64349 387.935701,192.231119 L393,200.97089 Z" id="Shape" fill="#6D49B2"></path>
            <path d="M302,227.232085 C291.281476,230.783725 283.858674,230.917409 279.731595,227.63314 L274.312915,219.676598 L277.303223,220.218714 C272.259654,211.273481 271.64955,208.838147 275.472913,212.912711 C281.207957,219.024557 289.730527,212.478185 293.696465,218.118528 C296.340423,221.878757 299.108268,224.916609 302,227.232085 Z" id="Shape" fill="#6D49B2"></path>
            <path d="M394.851612,373.554378 C390.355063,384.680548 372.89048,385.987307 363.257448,377.422286 C357.81458,372.582867 362.530823,368.669537 368.673002,364.6711 C374.377938,360.957299 364.081957,354.992209 347.493584,359.609283 C330.905212,364.226357 319.605425,360.364387 325.65059,358.288689 C330.785213,356.52564 337.630466,346.108758 355.288166,347.06143 C358.419474,347.230371 361.960925,347.473349 365.988148,347.801479 C392.725203,349.979958 398.944332,363.427434 394.851612,373.554378 Z" id="Shape" fill-opacity="0.699999988" fill="#AE3939"></path>
            <path d="M339.51106,348.514665 C324.88067,348.514665 307.828772,351.778753 300.660569,359.946957 C293.492365,368.115162 281.641182,386.951774 303.778585,388.746714 C314.666603,389.629533 324.599276,393.006559 331.477536,382.904054 C338.355796,372.801548 343.503306,362.065885 348.963129,359.582091 C357.94235,355.497245 372.56052,354.120046 380.464016,353.774728 C386.221188,353.523187 384.41017,349.439828 351.025405,348.011583 C347.692012,347.868976 346.390823,349.086855 343.82002,349.266315 C341.249216,349.445775 341.986381,348.514665 339.51106,348.514665 Z" id="Shape" fill="#AE3939"></path>
            <path d="M378.044541,222.470317 C378.327405,220.83978 379.879915,219.755115 381.51217,220.047651 C383.144424,220.340187 384.238322,221.899146 383.955459,223.529683 C383.672595,225.16022 382.120085,226.244885 380.48783,225.952349 C378.855576,225.659813 377.761678,224.100854 378.044541,222.470317 Z" id="Oval" fill="#9B9B9B"></path>
            <path d="M340.005159,257.287665 C339.894008,256.582781 341.592453,255.658709 343.798743,255.223694 C346.005033,254.788678 347.88369,255.007451 347.994841,255.712335 C348.105992,256.417219 346.407547,257.341291 344.201257,257.776306 C341.994967,258.211322 340.11631,257.992549 340.005159,257.287665 Z" id="Shape" fill="#9B9B9B"></path>
            <path d="M337,353 C325.764504,356.531686 317.764504,361.531686 313,368 L337,353 Z" id="Shape" stroke="#8F2E2E" stroke-width="2" stroke-linecap="round"></path>
            <path d="M346.130017,380.641728 C345.128139,368.544488 350.272392,371.335473 349.415758,376.203177 C349.114548,377.914758 353.774724,376.973282 356.703078,377.490639 C363.383122,378.670812 368.274051,379.684306 374.207024,381.210467 C389.78206,385.216893 389.497503,393.949953 400.962398,382.173092 C412.427293,370.396232 415.853829,350.925413 415.99759,357.224621 C416.141351,363.523829 409.820709,378.091675 405.820612,383.0314 C401.820515,387.971126 390.141461,400.964913 371.637121,395.813581 C353.132781,390.66225 346.544301,385.64404 346.130017,380.641728 Z" id="Shape" fill="#FFFFFF"></path>
            <path d="M34.9483632,357.970975 C30.5438031,350.4143 20.9937464,351.07343 17.8953243,350.251073 C4.67927873,346.74338 -0.701799569,333.178637 0.0726675555,323.163944 C0.84713468,313.149251 2.69535523,311.084729 5.84601954,307.112168 C6.3581799,306.466403 7.65037438,306.283077 9.72260299,306.562189 L22.9915862,329.327095 C23.9580821,330.985262 26.0416034,331.639824 27.7962509,330.836536 L34.642507,327.70228 C36.4812247,326.860504 37.3082691,324.721042 36.5073688,322.878113 L26.0225768,298.751851 C27.0697656,296.87175 28.049049,295.955031 28.9604269,296.001695 C36.337433,296.379412 41.6364441,297.375218 49.7804274,303.141167 C58.4399044,309.272085 60.6306095,322.628831 56.7232989,333.062342 C55.49734,336.335964 49.8820229,344.049113 53.5236908,352.042073 C57.1653587,360.035033 129.679382,485.316149 131.881662,489.094487 C134.083942,492.872825 133.073435,498.992278 128.496082,501.609987 C123.918729,504.227696 117.74077,503.226759 114.657578,497.937086 C111.574386,492.647413 39.3529233,365.52765 34.9483632,357.970975 Z M120.706226,496.828431 C123.372895,497.542962 126.113899,495.960443 126.828431,493.293774 C127.542962,490.627105 125.960443,487.886101 123.293774,487.171569 C120.627105,486.457038 117.886101,488.039557 117.171569,490.706226 C116.457038,493.372895 118.039557,496.113899 120.706226,496.828431 Z" id="Shape" fill="#999999"></path>
            <path d="M80.1380145,380.498607 C97.5363042,390.640138 105.468771,411.277831 108.529179,422.957338 C111.589586,434.636844 117.810217,445.857469 98.848873,448.610753 C58.9651509,454.402073 54.4202068,441.833672 43.6711147,415.637161 C37.8876202,401.542261 48.2302578,395.249371 57.6811908,388.716941 C65.7955805,383.108323 72.1007865,375.813675 80.1380145,380.498607 Z" id="Shape" fill="#9060EB"></path>
            <path d="M453.7008,356 C453.7008,344.533333 457.128,333.533333 463.9824,323 C463.9824,347.571429 465.192,366.819048 467.6112,380.742857 C470.0304,394.666667 461.16,390.980952 441,369.685714 C449.4672,372.028571 453.7008,367.466667 453.7008,356 Z" id="Shape" fill="#9060EB"></path>
        </g>
    </g>
</svg>