<?xml version="1.0" encoding="UTF-8"?>
<svg width="176px" height="270px" viewBox="0 0 176 270" version="1.1" xmlns="http://www.w3.org/2000/svg" xmlns:xlink="http://www.w3.org/1999/xlink">
    <!-- Generator: Sketch 49.1 (51147) - http://www.bohemiancoding.com/sketch -->
    <title>gremlin</title>
    <desc>Created with Sketch.</desc>
    <defs>
        <linearGradient x1="38.9587415%" y1="54.5202372%" x2="64.4344072%" y2="58.3508788%" id="linearGradient-1">
            <stop stop-color="#6B44B5" offset="0%"></stop>
            <stop stop-color="#6B44B5" stop-opacity="0" offset="100%"></stop>
        </linearGradient>
    </defs>
    <g id="gremlin" stroke="none" stroke-width="1" fill="none" fill-rule="evenodd">
        <g id="Group-2" transform="translate(-0.125000, 0.000000)">
            <g id="kiddo-gremlin-right" transform="translate(104.648438, 22.949219)">
                <path d="M6.44402575,92.4057229 C18.5055404,78.0661444 -9.91064954,119.534367 4.47778009,104.296001 C22.3144197,85.4057368 66.7067423,31.1360453 70.8979181,15.9090884 C75.0890938,0.682131468 56.8925167,-5.20851166 51.2446648,8.54671658 C45.5968129,22.3019448 37.6026622,34.995643 18.6918519,58.8446671 C9.74006881,70.1340454 9.96081955,85.765301 6.44402575,92.4057229 Z" id="Path" fill="#7E56CA"></path>
                <path d="M62.6132067,16.929198 C65.4590786,16.4253991 67.3012078,13.3698959 66.7277175,10.1045408 C66.1542273,6.83918563 63.3822865,4.60050199 60.5364146,5.10430093 C57.6905427,5.60809987 55.8484134,8.66360298 56.4219037,11.9289581 C56.995394,15.1943133 59.7673348,17.4329969 62.6132067,16.929198 Z" id="Path" stroke="#FFFFFF" stroke-width="3" opacity="0.2"></path>
            </g>
            <g id="kiddo-gremlin-left" transform="translate(0.000000, 82.617188)">
                <path d="M52.3798835,16.0577939 C42.6822099,32.0800157 64.3295404,-13.2411795 52.4694127,4.03147745 C37.7669867,25.4435541 2.30784852,85.8845939 0.537396965,101.547969 C-1.23305459,117.211345 17.6943832,120.165096 21.1361649,105.723868 C24.5779466,91.2826404 30.5074109,77.5198839 45.4986988,51.0524833 C52.5951032,38.5236478 49.9362827,23.1532297 52.3798835,16.0577939 Z" id="Path" fill="#865CD6"></path>
                <path d="M18.391882,71.2710937 C13.9982262,90.5724174 11.5293347,101.643953 10.9852073,104.485702 C10.1690162,108.748325 3.90207393,106.40131 5.97387002,98.2787482 C7.35506741,92.8637068 11.4944047,83.8611553 18.391882,71.2710937 Z" id="Path" fill="#9060EB"></path>
            </g>
            <g id="kiddo-gremlin" transform="translate(29.375000, 0.000000)">
                <path d="M7.69350787,125.461386 L62.9996559,168.299645 C55.7125824,179.213229 40.0430466,189.433754 33.4773123,202.049992 C26.911578,214.666229 25.9263669,238.052265 25.4720149,251.073371 C25.0176628,264.094477 19.3003013,269.988893 14.4378921,269.818961 C9.57548285,269.649029 5.43694319,268.897425 3.06884447,250.290424 C0.700745756,231.683423 3.73728742,165.342126 7.69350787,125.461386 Z" id="Path" fill="#865CD6"></path>
                <path d="M96.9780069,129.948478 C96.9328299,180.740968 95.2379172,205.118623 92.222393,223.63158 C89.2068688,242.144536 85.0446401,242.751137 80.179267,242.751137 C75.3138939,242.751137 69.8055669,236.660623 69.8055669,223.63158 C69.8055669,210.602537 69.6364798,187.196337 63.5147018,174.358465 C57.3929237,161.520593 42.0893462,150.759007 35.187293,139.597559 C28.2852398,128.43611 97.023184,79.1559876 96.9780069,129.948478 Z" id="Path" fill="#865CD6"></path>
                <path d="M96.9780069,129.948478 C96.9328299,180.740968 95.2379172,205.118623 92.222393,223.63158 C89.2068688,242.144536 85.0446401,242.751137 80.179267,242.751137 C75.3138939,242.751137 69.8055669,236.660623 69.8055669,223.63158 C69.8055669,210.602537 69.6364798,187.196337 63.5147018,174.358465 C57.3929237,161.520593 42.0893462,150.759007 35.187293,139.597559 C28.2852398,128.43611 97.023184,79.1559876 96.9780069,129.948478 Z" id="Path" fill="url(#linearGradient-1)"></path>
                <path d="M96.3957118,3.77514058 C101.707692,8.08005808 104.726325,15.297907 99.9683679,21.1780847 C95.2104111,27.0582624 84.43895,30.601936 78.5502656,25.829648 C72.6615812,21.0573599 73.8855985,9.77627864 78.6435553,3.89610093 C83.4015122,-1.98407677 91.0837314,-0.529776926 96.3957118,3.77514058 Z" id="Path" fill="#7E56CA"></path>
                <path d="M89.5951477,27.8125531 C89.201949,23.9921691 87.0548196,19.2816802 82.2988647,15.6386196 C72.8019638,8.36399517 46.3748357,5.92422023 27.7864229,12.0346654 C27.1724297,8.98619887 25.8938686,6.07356388 24.1321857,3.89896046 C19.3685545,-1.98121724 11.6835544,-0.532082423 6.37157399,3.76770717 C1.05959359,8.06749676 -1.95625813,15.2801807 2.80737305,21.1603584 C5.49597375,24.4791396 10.1006417,27.0550976 14.6607872,27.8125531 C7.96731484,117.053518 1.43355347,153.02245 6.37157399,174.961675 C8.94437821,186.392435 24.444708,242.930887 25.6903666,229.112678 C26.7199301,217.691634 25.8506643,213.746883 32.9239225,204.03349 C44.167745,188.592844 67.9960892,191.384754 76.6100856,175.691943 C82.6315156,164.722218 97.4555698,146.75055 97.0674792,131.401974 C96.6539288,115.046494 94.1631516,80.516687 89.5951477,27.8125531 Z" id="Path" fill="#865CD6"></path>
                <path d="M9.91938124,4.49804687 C7.83051084,6.68099111 6.0404674,9.04554103 5.23068252,11.5398098 C3.04100554,18.28437 8.13359789,22.8937201 14.2550097,24.1883071 C18.6961542,25.1275427 16.1332496,17.2673261 11.587705,14.5224052 C5.17965933,10.6527747 8.50594105,6.68126946 9.91938124,4.49804687 Z" id="Path" fill="#9060EB"></path>
                <path d="M35.8238751,139.489149 L35.8238751,182.50654 C52.057588,180.156322 63.0457765,173.750276 68.7884408,163.288401 C74.8098708,152.318677 74.7608327,139.197425 72.9089813,125.572917 C70.0514088,104.549083 35.8238751,103.160857 35.8238751,139.489149 Z" id="Path" fill="#9060EB"></path>
                <path d="M51.0219824,89.9181399 C69.9652849,89.9181399 85.3218657,83.6067165 85.3218657,75.680038 C85.3218657,67.7533596 69.9652849,73.2822633 51.0219824,73.2822633 C32.07868,73.2822633 16.7220992,67.7533596 16.7220992,75.680038 C16.7220992,83.6067165 32.07868,89.9181399 51.0219824,89.9181399 Z" id="Path" fill="#8F2E2E"></path>
                <path d="M64.1128731,88.711018 C64.1128731,88.7281959 62.1528798,83.8181131 57.2528964,82.8582824 C53.8182539,82.1854892 51.8629148,83.3288226 51.3729164,83.8181131 C50.9690333,83.3288226 48.927579,82.1854892 45.4929365,82.8582824 C40.5929531,83.8181131 38.6329598,88.7281959 38.6329598,88.711018 C49.4129231,90.1788894 53.3329098,90.1788894 64.1128731,88.711018 Z" id="Path" fill="#AE3939"></path>
                <path d="M26.8348041,71.4064941 C28.7947974,71.4064941 32.2247857,71.8957846 32.2247857,71.8957846 C31.7347874,73.6083013 30.9997899,75.8101085 29.7747941,75.8101085 C28.5497982,75.8101085 27.3248024,73.3636561 26.8348041,71.4064941 Z M75.8346373,71.4064941 C75.344639,73.3636561 74.1196431,75.8101085 72.8946473,75.8101085 C71.6696515,75.8101085 70.934654,73.6083013 70.4446556,71.8957846 C70.4446556,71.8957846 73.874644,71.4064941 75.8346373,71.4064941 Z" id="Group" fill="#FFFFFF"></path>
                <path d="M51.3219888,66.5092503 C49.3619954,66.5092503 44.4620121,63.6426356 44.4620121,60.3999035 C44.4620121,57.1571714 48.0745655,56.7234405 51.3219888,56.7234405 C54.569412,56.7234405 58.1819654,57.1571714 58.1819654,60.3999035 C58.1819654,63.6426356 53.2819821,66.5092503 51.3219888,66.5092503 Z M28.7820655,56.7234405 C25.5346422,56.7234405 22.9020855,54.0946867 22.9020855,50.8519546 C22.9020855,47.6092225 25.5346422,44.9804687 28.7820655,44.9804687 C32.0294888,44.9804687 34.6620455,47.6092225 34.6620455,50.8519546 C34.6620455,54.0946867 32.0294888,56.7234405 28.7820655,56.7234405 Z M73.8619121,56.7234405 C70.6144888,56.7234405 67.9819321,54.0946867 67.9819321,50.8519546 C67.9819321,47.6092225 70.6144888,44.9804687 73.8619121,44.9804687 C77.1093353,44.9804687 79.741892,47.6092225 79.741892,50.8519546 C79.741892,54.0946867 77.1093353,56.7234405 73.8619121,56.7234405 Z" id="Group" fill="#333333"></path>
                <path d="M48.934193,60.5165727 C47.5810999,60.5165727 46.4842013,60.0784471 46.4842013,59.5379917 C46.4842013,58.9975364 47.5810999,58.5594108 48.934193,58.5594108 C50.287286,58.5594108 51.3841846,58.9975364 51.3841846,59.5379917 C51.3841846,60.0784471 50.287286,60.5165727 48.934193,60.5165727 Z M25.1482074,49.2628915 C25.1482074,48.4510357 25.8053958,47.7928965 26.6160788,47.7928965 C27.4267619,47.7928965 28.0839503,48.4510357 28.0839503,49.2628915 C28.0839503,50.0747473 27.4267619,50.7328865 26.6160788,50.7328865 C25.8053958,50.7328865 25.1482074,50.0747473 25.1482074,49.2628915 Z M70.2280539,49.2628915 C70.2280539,48.4510357 70.8852424,47.7928965 71.6959254,47.7928965 C72.5066084,47.7928965 73.1637969,48.4510357 73.1637969,49.2628915 C73.1637969,50.0747473 72.5066084,50.7328865 71.6959254,50.7328865 C70.8852424,50.7328865 70.2280539,50.0747473 70.2280539,49.2628915 Z" id="Group" fill-opacity="0.2" fill="#FFFFFF"></path>
                <path d="M47.0940273,97.5433609 C46.5457604,97.5433609 46.1013022,97.0990853 46.1013022,96.5510437 C46.1013022,96.003002 46.5457604,95.5587264 47.0940273,95.5587264 L55.9139973,95.5587264 C56.4622642,95.5587264 56.9067223,96.003002 56.9067223,96.5510437 C56.9067223,97.0990853 56.4622642,97.5433609 55.9139973,97.5433609 L47.0940273,97.5433609 Z M22.3317462,35.1904918 L21.7970171,33.1559276 C21.71847,32.8570675 21.8963273,32.5421878 22.1951564,32.4559875 C22.1951564,32.4559875 25.4770446,31.4826601 29.8117664,30.5347209 C34.1464882,29.5867817 37.4849273,29.241345 37.4849273,29.241345 C37.7986287,29.2042355 38.0297798,29.4269814 38.0110039,29.7357052 L37.7176277,34.5595564 C37.6991585,34.8632368 37.4311744,35.1211096 37.1197535,35.1242667 C37.1197535,35.1242667 34.4924454,35.1348894 30.3161491,35.337351 C26.1398528,35.5398126 23.038079,35.7046959 23.038079,35.7046959 C22.7310982,35.7208158 22.4106891,35.4908577 22.3317462,35.1904918 Z M78.9445474,35.1904918 C78.8656045,35.4908577 78.5451955,35.7208158 78.2382146,35.7046959 C78.2382146,35.7046959 75.1364408,35.5398126 70.9601446,35.337351 C66.7838483,35.1348894 64.1565402,35.1242667 64.1565402,35.1242667 C63.8451193,35.1211096 63.5771352,34.8632368 63.558666,34.5595564 L63.2652897,29.7357052 C63.2465138,29.4269814 63.4776649,29.2042355 63.7913664,29.241345 C63.7913664,29.241345 67.1298055,29.5867817 71.4645273,30.5347209 C75.7992491,31.4826601 79.0811372,32.4559875 79.0811372,32.4559875 C79.3799664,32.5421878 79.5578237,32.8570675 79.4792765,33.1559276 L78.9445474,35.1904918 Z" id="Group" fill="#6B44B5" fill-rule="nonzero"></path>
                <path d="M45.1473507,194.21638 C49.5761779,192.21273 63.9017613,186.899565 67.0891652,184.847152 C69.8810616,197.586593 69.9801292,213.639476 69.9801292,223.612414 C69.9801292,236.641457 75.4884562,242.731971 80.3538293,242.731971 C85.2192024,242.731971 89.3814311,242.12537 92.3969553,223.612414 C95.4124795,205.099458 97.1073922,180.721803 97.1525692,129.929312 C97.1542089,128.085842 97.0652429,126.374194 96.8925761,124.787761 C96.0984602,106.591689 93.6844222,74.222397 89.6504614,27.6798774 C89.2572627,23.8594934 87.1101332,19.1490045 82.3541783,15.5059439 C77.0878152,11.4719107 66.6152554,8.92463701 55.1602094,8.49768452 C50.66649,8.33019461 46.0215731,8.48900679 41.4804477,9.01236973 C40.4529748,9.13078559 60.3842907,10.0978413 60.3470866,18.4556093 C60.2995848,29.1267276 60.3470866,146.11153 60.3470866,160.283823 C60.3470866,174.456116 59.9757409,184.847152 45.1473507,194.21638 Z" id="Path" fill-opacity="0.2" fill="#6B44B5"></path>
            </g>
        </g>
    </g>
</svg>