<?xml version="1.0" encoding="UTF-8"?>
<svg width="143px" height="36px" viewBox="0 0 143 36" version="1.1" xmlns="http://www.w3.org/2000/svg" xmlns:xlink="http://www.w3.org/1999/xlink">
    <!-- Generator: Sketch 52.3 (67297) - http://www.bohemiancoding.com/sketch -->
    <title>Slice 1</title>
    <desc>Created with Sketch.</desc>
    <g id="Page-1" stroke="none" stroke-width="1" fill="none" fill-rule="evenodd">
        <path d="M80.7593583,22.0427807 C80.7593583,29.7433155 74.5989305,36 67.0909091,36 C59.5828877,36 53.4224599,29.7433155 53.4224599,22.0427807 L53.4224599,10.2032086 C53.4224599,10.2032086 59.9679144,11.8395722 59.9679144,18.7700535 L59.9679144,22.0427807 C59.9679144,26.2780749 63.144385,29.6470588 67.0909091,29.6470588 C71.0374332,29.6470588 74.2139037,26.2780749 74.2139037,22.0427807 L74.2139037,15.2085561 L74.2139037,15.3048128 C74.5026738,9.52941176 79.4117647,7.70053476 80.6631016,7.02673797 L80.7593583,7.02673797 L80.7593583,15.1122995 L80.7593583,22.0427807 Z M45.6256684,8.18181818 C47.4545455,8.18181818 49.1871658,8.47058824 50.7272727,9.14438503 L50.7272727,16.459893 C49.3796791,15.3048128 47.5508021,14.631016 45.6256684,14.631016 C41.2941176,14.631016 37.828877,18 37.828877,22.2352941 L37.828877,36 L31.2834225,36 L31.2834225,10.7807487 C31.2834225,10.7807487 33.9786096,10.8770053 35.7112299,12.1283422 C38.2139037,9.62566845 41.7754011,8.18181818 45.6256684,8.18181818 Z M14.2459893,29.7433155 C9.9144385,29.7433155 6.35294118,26.2780749 6.35294118,22.0427807 C6.35294118,17.8074866 9.9144385,14.342246 14.2459893,14.342246 C18.5775401,14.342246 22.1390374,17.8074866 22.1390374,22.0427807 C22.1390374,26.2780749 18.5775401,29.7433155 14.2459893,29.7433155 Z M14.2459893,8.18181818 C6.35294118,8.18181818 0,14.4385027 0,22.0427807 C0,29.7433155 6.35294118,35.9037433 14.2459893,35.9037433 C17.5187166,35.9037433 20.5026738,34.8449198 22.9090909,33.0160428 C24.3529412,35.4224599 28.4919786,35.9037433 28.4919786,35.9037433 L28.4919786,22.0427807 C28.4919786,14.4385027 22.1390374,8.18181818 14.2459893,8.18181818 Z M128.117647,29.7433155 C123.786096,29.7433155 120.224599,26.2780749 120.224599,22.0427807 C120.224599,17.8074866 123.786096,14.342246 128.117647,14.342246 C132.449198,14.342246 136.010695,17.8074866 136.010695,22.0427807 C136.010695,26.2780749 132.449198,29.7433155 128.117647,29.7433155 Z M128.117647,8.18181818 C120.224599,8.18181818 113.871658,14.4385027 113.871658,22.0427807 C113.871658,29.7433155 120.224599,35.9037433 128.117647,35.9037433 C131.390374,35.9037433 134.374332,34.8449198 136.780749,33.0160428 C138.224599,35.4224599 142.363636,35.9037433 142.363636,35.9037433 L142.363636,22.0427807 C142.363636,14.4385027 136.010695,8.18181818 128.117647,8.18181818 Z M97.8930481,29.7433155 C93.5614973,29.7433155 90,26.2780749 90,22.0427807 C90,17.8074866 93.5614973,14.342246 97.8930481,14.342246 C102.224599,14.342246 105.786096,17.8074866 105.786096,22.0427807 C105.882353,26.2780749 102.320856,29.7433155 97.8930481,29.7433155 Z M97.8930481,8.18181818 C95.0053476,8.18181818 92.3101604,9.04812834 90,10.4919786 L90,8.27807487 C89.7112299,2.5026738 84.9946524,0.673796791 83.7433155,0 L83.6470588,0 L83.6470588,36 C83.6470588,36 87.8823529,35.5187166 89.5187166,33.2085561 C91.9251337,34.8449198 94.8128342,35.9037433 97.8930481,35.9037433 C105.786096,35.9037433 112.139037,29.6470588 112.139037,22.0427807 C112.235294,14.4385027 105.786096,8.18181818 97.8930481,8.18181818 Z" id="Shape" fill="#FF993F" fill-rule="nonzero"></path>
    </g>
</svg>