<?xml version="1.0" encoding="UTF-8"?>
<svg width="179px" height="41px" viewBox="0 0 179 41" version="1.1" xmlns="http://www.w3.org/2000/svg" xmlns:xlink="http://www.w3.org/1999/xlink">
    <!-- Generator: Sketch 52.3 (67297) - http://www.bohemiancoding.com/sketch -->
    <title>Untitled</title>
    <desc>Created with Sketch.</desc>
    <g id="Page-1" stroke="none" stroke-width="1" fill="none" fill-rule="evenodd">
        <path d="M19.5789837,20.1579254 L23.662466,27.8192732 C21.2731114,30.2955128 17.9212699,31.8426695 14.2089415,31.8426695 C11.2004321,31.8426695 8.43150682,30.8252401 6.2170914,29.1281022 C8.63768721,23.366215 13.9577843,15.3893572 21.3139091,7.6586299 C24.9411644,9.9964613 27.3439331,14.0676693 27.3439331,18.70496 C27.3439331,20.7001608 26.8972917,22.5883699 26.1008889,24.2826146 C23.7002828,23.2349376 21.4557659,21.8905713 19.5789837,20.1579254 Z M3.95702697,26.9144174 C2.15304351,24.6636464 1.07181657,21.8092389 1.07181657,18.70496 C1.07181657,11.4495728 6.95428494,5.56783504 14.2089415,5.56783504 C16.2556655,5.56783504 18.1932352,6.03659953 19.9208837,6.87152054 C12.6532513,13.1671095 7.09055981,20.6059988 3.95702697,26.9144174 Z M27.0920745,24.6951799 C27.9405558,22.8753274 28.4164511,20.8442971 28.4164511,18.70496 C28.4164511,13.7651642 25.8953807,9.41711047 22.0717646,6.87008852 C24.3504159,4.52740581 26.8116925,2.2136848 29.4370659,0 C26.363473,1.807695 23.4761,3.88282541 20.8043469,6.12006533 C18.8332565,5.08477966 16.5897333,4.49514172 14.2089415,4.49514172 C6.36122771,4.49514172 0,10.8565156 0,18.70496 C0,22.2488956 1.30099682,25.4858547 3.44688027,27.9748071 C0.725766675,33.8565741 0.246861203,38.5893128 2.64548003,40.1879634 C5.21234556,41.8990707 10.7957281,38.7976558 14.1454362,33.7423931 C14.1454362,33.7423931 8.96389353,38.41677 6.12006533,37.3448366 C4.36386429,36.6811432 4.36029887,34.0022593 5.80540278,30.1599394 C8.15892786,31.8884646 11.0640111,32.9117389 14.2089415,32.9117389 C18.1004759,32.9117389 21.6257077,31.3460538 24.1918718,28.812709 L24.6971672,29.761811 C30.8900021,29.2579476 49.3829368,28.7727589 49.3829368,28.7727589 C49.3829368,27.8806451 37.135646,28.6856107 27.0920745,24.6951799 Z M111.86033,17.4003978 L114.176623,14.3261034 L106.111273,14.3246714 L108.099635,11.6886018 L116.163261,11.6886018 L118.479846,8.61357682 L102.383134,8.61357682 L91.31056,23.3105712 L107.407272,23.3105712 L109.722133,20.2363937 L101.662482,20.2363937 L103.79498,17.4003978 L111.86033,17.4003978 Z M123.041065,8.61357682 L111.968491,23.3105712 L120.004149,23.3105712 L131.075291,8.61357682 L123.041065,8.61357682 Z M149.806524,8.61357682 L144.194735,16.0630454 L142.471792,8.61357682 L136.191896,8.61357682 L125.116751,23.3105712 L130.433136,23.3105712 L135.995272,15.9289039 L137.701938,23.3105712 L144.050336,23.3105712 L155.123173,8.61357682 L149.806524,8.61357682 Z M176.075075,8.61357682 L163.164266,8.61287543 C160.951867,8.61287543 158.990889,9.67256374 157.754829,11.3124504 L151.0868,20.1607894 C150.838507,20.4875802 150.692939,20.8999702 150.692939,21.3424909 C150.692939,22.4300012 151.572252,23.3106004 152.659616,23.3106004 L165.570717,23.3106004 C167.779989,23.3106004 169.74693,22.2530455 170.981294,20.6131588 L172.585527,18.4866514 L174.448018,18.4866514 L176.780297,15.3909353 L166.892405,15.3909353 L163.769306,19.5356142 C163.448243,19.9594311 162.938798,20.234991 162.364853,20.234991 L160.091375,20.234991 C159.807106,20.234991 159.579095,20.0065413 159.579095,19.7239967 C159.579095,19.608413 159.61735,19.5013921 159.681557,19.4170495 L164.979677,12.3878616 C165.297905,11.9619113 165.806181,11.688631 166.381265,11.688631 L168.656176,11.688631 C168.939012,11.688631 169.167316,11.9183665 169.167316,12.1994791 C169.167316,12.313777 169.127366,12.4206518 169.064299,12.5064263 L168.203835,13.6481484 L176.232363,13.6481484 L177.648213,11.7655212 C177.896213,11.436597 178.043477,11.0270418 178.043477,10.5816863 C178.043477,9.49630946 177.161299,8.61357682 176.075075,8.61357682 Z M86.8176686,12.5063971 L81.5211266,19.535585 C81.2013497,19.9594019 80.6917583,20.2349617 80.1181063,20.2349617 L77.8430496,20.2349617 C77.5626384,20.2349617 77.3334581,20.0065121 77.3334581,19.7255164 C77.3334581,19.6083545 77.3719763,19.5013336 77.4347802,19.4169911 L82.7314683,12.3893521 C83.0525311,11.9646877 83.561275,11.6885725 84.1344886,11.6885725 L86.4099545,11.6885725 C86.6913593,11.6885725 86.9196628,11.9183081 86.9196628,12.1994206 C86.9197213,12.313777 86.8824598,12.4206518 86.8176686,12.5063971 Z M95.7964375,10.5816863 C95.7964375,9.49630946 94.9156921,8.61357682 93.828328,8.61357682 L80.9209385,8.61357682 C78.7086857,8.61357682 76.7462751,9.67253452 75.5095142,11.3124504 L68.8421868,20.1607894 C68.5951794,20.488983 68.4482083,20.8999702 68.4482083,21.3424909 C68.4482083,22.4300012 69.3280769,23.3106004 70.4141844,23.3106004 L83.3237073,23.3121785 C85.5344111,23.3121785 87.4992182,22.2530747 88.7351316,20.6131588 L95.4040079,11.7671286 C95.6508691,11.436597 95.7964375,11.0270418 95.7964375,10.5816863 Z M62.27963,12.5063971 L61.4347141,13.6283048 C61.1135052,14.0505436 60.6053458,14.3261034 60.0316938,14.3261034 L56.7317846,14.3246714 L58.7192993,11.6886018 L61.8713606,11.6886018 C62.1532038,11.6886018 62.3823548,11.9183373 62.3823548,12.1994499 C62.3823548,12.313777 62.343106,12.4206518 62.27963,12.5063971 Z M57.9751211,18.2182223 L56.981656,19.5369001 C56.6611485,19.9594311 56.1517324,20.236423 55.5779343,20.236423 L52.2794571,20.236423 L54.4155211,17.400427 L57.5675824,17.400427 C57.8494256,17.400427 58.0770277,17.6301625 58.0770277,17.9098723 C58.0769984,18.027005 58.0400292,18.1340259 57.9751211,18.2182223 Z M65.4302593,16.3228824 C67.0145021,15.9645581 68.3882684,15.0495906 69.3352078,13.7951195 L70.8630761,11.7670701 C71.1106679,11.4365678 71.257639,11.0270418 71.257639,10.5816571 C71.257639,9.49628024 70.3763384,8.61354759 69.2902602,8.61354759 L61.035709,8.61354759 L53.0031781,8.61354759 L41.929026,23.3105419 L49.8197002,23.3105419 L58.7834768,23.3121201 C60.9957296,23.3121201 62.9589878,22.2530163 64.1963332,20.6131004 L65.7578976,18.539402 C65.9568302,18.278133 66.0732615,17.9470461 66.0732615,17.5930179 C66.0732615,17.0720581 65.8199709,16.609723 65.4302593,16.3228824 Z" id="Boeing" fill="#6086EB" fill-rule="nonzero"></path>
    </g>
</svg>