<?xml version="1.0" encoding="UTF-8"?>
<svg width="120px" height="43px" viewBox="0 0 120 43" version="1.1" xmlns="http://www.w3.org/2000/svg" xmlns:xlink="http://www.w3.org/1999/xlink">
    <!-- Generator: Sketch 52.3 (67297) - http://www.bohemiancoding.com/sketch -->
    <title>Untitled</title>
    <desc>Created with Sketch.</desc>
    <g id="Page-1" stroke="none" stroke-width="1" fill="none" fill-rule="evenodd">
        <path d="M40.788755,21.0738956 C40.788755,28.6714859 46.861245,34.6875502 54.4096386,34.6875502 L60.3355422,34.6875502 L60.3355422,7.42831325 L54.4096386,7.42831325 C46.861245,7.42831325 40.788755,13.4453815 40.788755,21.0738956 Z M30.1945783,16.6487952 L39.787751,0 L20.5477912,3.55271368e-15 L30.1945783,16.6487952 Z M30.1945783,25.4987952 L20.5477912,42.1477912 L39.787751,42.1477912 L30.1945783,25.4987952 Z M19.5467871,21.0738956 C19.5467871,13.4453815 13.4742972,7.42831325 5.92610442,7.42831325 L-1.66914686e-15,7.42831325 L1.66914686e-15,34.6875502 L5.92610442,34.6875502 C13.4742972,34.6875502 19.5467871,28.6714859 19.5467871,21.0738956 Z M76.3184739,28.8473896 L82.0329317,28.8473896 C87.2281124,28.8473896 90.1287149,25.0395582 90.1287149,21.0588353 C90.1287149,17.0783133 87.2064257,13.2704819 82.0329317,13.2704819 L76.3184739,13.2704819 L76.3184739,28.8473896 Z M81.8598394,16.4291165 C84.738755,16.4291165 86.3839357,18.6791165 86.3839357,21.0588353 C86.3839357,23.4170683 84.738755,25.6885542 81.8598394,25.6885542 L79.9767068,25.6885542 L79.9767068,16.4291165 L81.8598394,16.4291165 Z M100.453614,28.8473896 L104.739558,28.8473896 L99.6959839,21.0156627 L104.696185,13.2704819 L100.496988,13.2704819 L97.4016064,18.397992 L94.2630522,13.2704819 L89.9987952,13.2704819 L95.0206827,21.0156627 L89.9554217,28.8473896 L94.1331325,28.8473896 L97.3150602,23.6550201 L100.453614,28.8473896 Z M112.596988,29.1287149 C117.077711,29.1287149 119.523695,26.4457831 120,23.0277108 L116.298594,23.0277108 C115.952008,24.6502008 114.61004,25.8618474 112.683534,25.8618474 C109.891365,25.8618474 108.440964,23.6333333 108.440964,21.0588353 C108.440964,18.4845382 109.891365,16.2560241 112.683534,16.2560241 C114.61004,16.2560241 115.952008,17.4676707 116.298594,19.0901606 L120,19.0901606 C119.523695,15.6718876 117.077711,12.9891566 112.596988,12.9891566 C107.596787,12.9891566 104.696185,16.796988 104.696185,21.0588353 C104.696185,25.3208835 107.596787,29.1287149 112.596988,29.1287149 Z" id="Combined-Shape" fill="#000000" fill-rule="nonzero"></path>
    </g>
</svg>