<?xml version="1.0" encoding="UTF-8"?>
<svg width="61px" height="61px" viewBox="0 0 61 61" version="1.1" xmlns="http://www.w3.org/2000/svg" xmlns:xlink="http://www.w3.org/1999/xlink">
    <!-- Generator: Sketch 52.3 (67297) - http://www.bohemiancoding.com/sketch -->
    <title>Untitled</title>
    <desc>Created with Sketch.</desc>
    <g id="Page-1" stroke="none" stroke-width="1" fill="none" fill-rule="evenodd">
        <path d="M37.3374378,22.5560645 C37.3374378,19.0881987 39.6850311,15.7248917 40.965876,16.358468 C42.4259644,17.0903794 39.8717431,20.3565961 37.3374378,22.5560645 M21.3735546,23.8194829 C21.3735546,21.0312491 24.124446,15.7336049 25.8048547,16.2937412 C27.7914713,16.9559467 24.1592989,22.2996466 21.3735546,23.8194829 M18.5840761,43.7603335 C17.3194129,43.8175918 16.4729848,43.0085061 16.4729848,41.6579554 C16.4729848,38.0295172 21.5079873,34.5628962 25.3106901,32.7019991 C24.6360371,37.7681203 22.9245097,43.5649082 18.5840761,43.7603335 M41.8135488,31.9364796 C38.941917,31.9364796 36.7474276,34.0488156 36.7474276,36.5818762 C36.7474276,38.6942123 38.0170698,40.3833342 39.7012128,40.3833342 C40.2974467,40.3833342 40.8874569,40.0435183 40.8874569,39.2892014 C40.8874569,38.1851106 39.4311026,37.9199795 39.5406404,36.2781579 C39.6140805,35.1952278 40.6347732,34.4707849 41.6479974,34.4707849 C43.6732012,34.4707849 44.6204538,36.4337513 44.6204538,38.458955 C44.5383005,41.5870048 42.2355181,43.7590887 39.5369061,43.7590887 C35.986887,43.7590887 33.7065101,40.3833342 33.7065101,36.7499171 C33.7065101,31.3402457 37.2565292,29.2291544 39.1161816,28.7250317 C39.133608,28.7250317 43.9731852,29.5851521 43.8225708,27.4516553 C43.752865,26.5131159 42.3575033,26.1521392 41.3492581,26.1135521 C40.2277408,26.0699859 39.0950209,26.473284 39.0950209,26.473284 C38.5075002,26.1745447 38.0992231,25.5907582 37.8465394,24.9185947 C41.3106709,22.2971571 43.7603335,19.7653412 43.7603335,16.8924646 C43.7603335,15.3726282 42.7446197,14.0208328 40.8015693,14.0208328 C37.3374378,14.0208328 34.7184896,18.4135457 34.7184896,22.3842894 C34.7184896,23.0576976 34.7184896,23.7360849 34.8927542,24.326095 C32.6945306,25.9293295 31.0601775,26.9288615 28.1063924,28.7026263 C28.1063924,28.3329364 28.1835667,27.3782152 28.4325161,26.143426 C29.4444956,25.0443142 30.8348783,23.3975136 30.8348783,22.1291162 C30.8348783,21.539106 30.5000413,21.0300044 29.8179198,21.0300044 C28.1312873,21.0300044 26.8666241,23.5667992 26.5280529,25.340564 C25.7675123,26.2741244 24.2464312,27.4566343 22.976789,27.4566343 C21.9648095,27.4566343 21.6249936,26.5268081 21.539106,26.1869921 C24.7505538,25.0878803 28.7212975,20.6951674 28.7212975,16.7244237 C28.7212975,15.8817299 28.3827262,14.0208328 25.8496656,14.0208328 C22.0482076,14.0208328 18.8417388,19.6831879 18.8417388,24.0709219 C17.486209,24.0709219 16.9820864,22.636973 16.9820864,21.5378612 C16.9820864,20.4375047 17.4040557,19.3433719 17.4040557,19.0035559 C17.4040557,18.6649847 17.2347701,18.2442601 16.7256685,18.2442601 C15.4610053,18.2442601 14.7004647,19.9333821 14.7004647,21.8764325 C14.787597,24.5800235 16.5601171,26.2741244 18.9238921,26.4396758 C19.2624633,28.0466445 20.6964121,29.5677256 22.4689322,29.5677256 C23.5692887,29.5677256 24.9198395,29.2291544 25.8496656,28.3864605 C25.7675123,28.9764707 25.685359,29.4855723 25.5982267,29.9896949 C21.878922,31.9364796 19.175331,33.2870303 16.7256685,35.4827644 C14.787597,37.2590187 13.6884852,39.6227937 13.6884852,41.4787118 C13.6884852,44.0167514 15.2917197,46.3805264 18.5853208,46.3805264 C22.4689322,46.3805264 25.4289411,43.2562108 26.8666241,38.9456512 C27.5400324,36.9204475 27.8101425,33.9703965 27.9831624,31.2630713 C31.8642842,29.063603 33.7065101,27.7964503 35.7354481,26.3575225 C35.9881318,26.7794918 36.243305,27.1168183 36.578142,27.369502 C34.8056219,28.2993282 30.5821946,30.9195211 30.5821946,37.0847541 C30.5821946,41.4774671 33.5359798,46.3792816 39.3688653,46.3792816 C44.1835475,46.3792816 47.4771487,42.4072932 47.4771487,38.6045905 C47.4759039,35.1441932 45.5328535,31.9364796 41.8135488,31.9364796 M56.3385042,39.1933559 C56.3260567,39.2194956 56.2787563,39.2543485 56.1829108,39.2232298 C56.108226,39.1970901 56.0920442,39.1622372 56.0920442,39.1136921 C56.0957785,39.0663917 57.112737,36.0590824 57.1040237,32.6136221 C57.0953105,28.8893384 55.5841874,26.6077167 53.6461159,26.6077167 C52.4598718,26.6077167 51.6159332,27.4553896 51.6159332,28.7250317 C51.6159332,31.0054086 54.4016775,31.175939 54.4016775,36.1586622 C54.4016775,38.1838659 53.9797082,40.1269163 53.3075447,42.2380076 C50.1782502,52.7959536 40.2103144,57.6977682 30.5000413,57.6977682 C26.020196,57.6977682 22.8386221,56.7766552 21.8926142,56.3521964 C21.854027,56.329791 21.8179294,56.2563509 21.8490481,56.181666 C21.8702088,56.1256524 21.9361804,56.0820863 21.9747675,56.0995127 C22.3581497,56.2476376 25.0903698,57.107758 28.4711033,57.107758 C32.1866738,57.107758 34.3848974,55.5879216 34.3848974,53.7270245 C34.3848974,52.5457594 33.4550712,51.6159332 32.2738061,51.6159332 C29.9921844,51.6159332 29.8191645,54.4875651 24.9210842,54.4875651 C22.8099929,54.4875651 20.9503406,54.0655958 18.7558512,53.3872085 C8.27756905,50.1782502 3.28986692,40.2974467 3.29360116,30.4987965 C3.2973354,25.7239462 4.63668342,21.9212434 4.65784412,21.8863905 C4.67527058,21.8614955 4.73501845,21.8341111 4.80845853,21.8614955 C4.88314337,21.8863905 4.89932508,21.9473831 4.89559084,21.9697885 C4.77485036,22.3656182 3.88734559,25.0903698 3.88734559,28.4711033 C3.88734559,32.190408 5.40718195,34.3848974 7.35023237,34.3848974 C8.44560993,34.3848974 9.37543611,33.5422035 9.37543611,32.3596936 C9.37543611,30.0755825 6.58595757,29.8228988 6.58595757,24.922329 C6.58595757,22.8099929 7.01166112,20.9503406 7.68506937,18.7558512 C10.8965172,8.28005855 20.7822997,3.37077549 30.4975518,3.29484591 C35.01225,3.25999298 38.9618329,4.61178847 39.1136921,4.73252895 C39.1398318,4.7549344 39.1659715,4.81219278 39.1398318,4.88065387 C39.1037341,4.96280719 39.0514547,4.97152042 39.0265598,4.96654143 C38.9792594,4.96280719 36.4101011,3.88859033 32.5215108,3.88859033 C28.8893384,3.88485609 26.6077167,5.4059372 26.6077167,7.35147712 C26.6077167,8.44685467 27.4553896,9.37668085 28.718808,9.37668085 C31.0004297,9.37668085 31.1697153,6.59093656 36.0715299,6.59093656 C38.1776422,6.59093656 40.0385393,7.00792688 42.2330286,7.68631412 C52.7959536,10.8965172 57.6019226,20.864453 57.6927892,30.4975518 C57.7425791,35.430485 56.3521964,39.1622372 56.3385042,39.1933559 M30.4987965,1.43768305 C14.4477811,1.43768305 1.43892779,14.4428021 1.43892779,30.4975518 C1.43892779,46.5485673 14.4477811,59.5536863 30.4987965,59.5536863 C46.5460778,59.5536863 59.554931,46.5485673 59.554931,30.4975518 C59.554931,14.5299344 46.5460778,1.43768305 30.4987965,1.43768305 M30.4987965,60.9926141 C13.6872405,60.9926141 0,47.3925059 0,30.4987965 C0,13.6822615 13.6872405,0 30.4987965,0 C47.3053736,0 60.9926141,13.6822615 60.9926141,30.4987965 C60.9926141,47.3925059 47.3053736,60.9926141 30.4987965,60.9926141" id="GE" fill="#28B1EE" fill-rule="nonzero"></path>
    </g>
</svg>