<?xml version="1.0" encoding="UTF-8"?>
<svg width="114px" height="31px" viewBox="0 0 114 31" version="1.1" xmlns="http://www.w3.org/2000/svg" xmlns:xlink="http://www.w3.org/1999/xlink">
    <!-- Generator: Sketch 52.3 (67297) - http://www.bohemiancoding.com/sketch -->
    <title>Slice 1</title>
    <desc>Created with Sketch.</desc>
    <g id="Page-1" stroke="none" stroke-width="1" fill="none" fill-rule="evenodd">
        <path d="M21.7796695,13.0528051 L12.2773378,13.0528051 C12.0321427,13.0528051 11.8334122,13.2509876 11.8334122,13.4958197 L11.8334122,18.1288438 C11.8334122,18.3730497 12.0321427,18.5721715 12.2773378,18.5721715 L15.9841482,18.5721715 L15.9841482,24.3282297 C15.9841482,24.3282297 15.1518662,24.611258 12.850611,24.611258 C10.1358833,24.611258 6.34336446,23.6222242 6.34336446,15.305448 C6.34336446,6.98710638 10.2925444,5.89256303 13.9999828,5.89256303 C17.209496,5.89256303 18.5918189,6.45580201 19.4718214,6.72755934 C19.7484115,6.81177907 20.003967,6.53751706 20.003967,6.292685 L21.063863,1.81651616 C21.063863,1.70192724 21.0249332,1.56385699 20.8943299,1.47055781 C20.5370545,1.21633321 18.357298,0 12.850611,0 C6.50724649,0 0,2.69127421 0,15.6298035 C0,28.5683328 7.45003904,30.496307 13.7281019,30.496307 C18.9261759,30.496307 22.079492,28.2812343 22.079492,28.2812343 C22.2094674,28.209538 22.2235952,28.0285751 22.2235952,27.9456078 L22.2235952,13.4958197 C22.2235952,13.2509876 22.0248647,13.0528051 21.7796695,13.0528051 M70.7508827,1.55008127 C70.7508827,1.30368378 70.5549778,1.10487514 70.3094687,1.10487514 L64.9591288,1.10487514 C64.7148755,1.10487514 64.516145,1.30368378 64.516145,1.55008127 C64.516145,1.55133361 64.5177148,11.8615187 64.5177148,11.8615187 L56.1776269,11.8615187 L56.1776269,1.55008127 C56.1776269,1.30368378 55.981094,1.10487514 55.7362128,1.10487514 L50.3861869,1.10487514 C50.1428755,1.10487514 49.944145,1.30368378 49.944145,1.55008127 L49.944145,29.4703292 C49.944145,29.7167267 50.1428755,29.9171007 50.3861869,29.9171007 L55.7362128,29.9171007 C55.981094,29.9171007 56.1776269,29.7167267 56.1776269,29.4703292 L56.1776269,17.5280347 L64.5177148,17.5280347 C64.5177148,17.5280347 64.5029591,29.4693899 64.5029591,29.4703292 C64.5029591,29.7167267 64.7013757,29.9171007 64.9462569,29.9171007 L70.3091548,29.9171007 C70.5543499,29.9171007 70.7502548,29.7167267 70.7508827,29.4703292 L70.7508827,1.55008127 M31.8759951,5.21410896 C31.8759951,3.2927095 30.3316739,1.74012355 28.425996,1.74012355 C26.5222018,1.74012355 24.9763108,3.2927095 24.9763108,5.21410896 C24.9763108,7.13331683 26.5222018,8.68997288 28.425996,8.68997288 C30.3316739,8.68997288 31.8759951,7.13331683 31.8759951,5.21410896 M31.4936037,23.580897 C31.4936037,22.8651859 31.4936037,10.6927743 31.4936037,10.6927743 C31.4936037,10.4479422 31.2955011,10.2478813 31.0509339,10.2478813 L25.7172334,10.2478813 C25.4726661,10.2478813 25.2538428,10.4996012 25.2538428,10.7444332 C25.2538428,10.7444332 25.2538428,26.25276 25.2538428,29.2089036 C25.2538428,29.7514791 25.5929091,29.9130306 26.0314975,29.9130306 C26.0314975,29.9130306 28.3082646,29.9130306 30.8368198,29.9130306 C31.3642562,29.9130306 31.4936037,29.6547359 31.4936037,29.2001373 C31.4936037,28.2104772 31.4936037,24.333239 31.4936037,23.580897 M91.0844975,10.2901477 L85.7752851,10.2901477 C85.5319737,10.2901477 85.3335571,10.4902086 85.3335571,10.736293 L85.3335571,24.4265382 C85.3335571,24.4265382 83.984513,25.4105627 82.0700444,25.4105627 C80.1558899,25.4105627 79.6479184,24.544258 79.6479184,22.6751436 C79.6479184,20.8035246 79.6479184,10.736293 79.6479184,10.736293 C79.6479184,10.4902086 79.4501297,10.2901477 79.2061904,10.2901477 L73.8175486,10.2901477 C73.5745511,10.2901477 73.3751927,10.4902086 73.3751927,10.736293 C73.3751927,10.736293 73.3751927,18.0267783 73.3751927,23.5790185 C73.3751927,29.1315718 76.4782768,30.4900453 80.7470582,30.4900453 C84.249487,30.4900453 87.0731554,28.5605057 87.0731554,28.5605057 C87.0731554,28.5605057 87.2075261,29.5774041 87.2684324,29.6979416 C87.3290248,29.818166 87.4875697,29.9396428 87.6589865,29.9396428 L91.0870091,29.9243017 C91.3300066,29.9243017 91.529365,29.7239276 91.529365,29.4787825 L91.5274813,10.736293 C91.5274813,10.4902086 91.3293787,10.2901477 91.0844975,10.2901477 M103.501857,25.3936561 C101.660225,25.3379271 100.411017,24.5044962 100.411017,24.5044962 L100.411017,15.6626774 C100.411017,15.6626774 101.643272,14.9093961 103.155256,14.7747698 C105.067213,14.6041387 106.909473,15.1799011 106.909473,19.7283925 C106.909473,24.5245336 106.078133,25.4713011 103.501857,25.3936561 Z M105.595905,9.66272636 C102.580413,9.66272636 100.529376,11.0046065 100.529376,11.0046065 L100.529376,1.55008127 C100.529376,1.30368378 100.331588,1.10487514 100.087962,1.10487514 L94.7222388,1.10487514 C94.4782995,1.10487514 94.2801969,1.30368378 94.2801969,1.55008127 L94.2801969,29.4703292 C94.2801969,29.7167267 94.4782995,29.9171007 94.7228667,29.9171007 C94.7234946,29.9171007 98.4444328,29.9171007 98.4456886,29.9171007 C98.613338,29.9171007 98.7401739,29.8310025 98.8340451,29.6800958 C98.9266604,29.5301283 99.0600892,28.3926924 99.0600892,28.3926924 C99.0600892,28.3926924 101.253973,30.4659378 105.407221,30.4659378 C110.283496,30.4659378 113.079851,27.9994583 113.079851,19.3937051 C113.079851,10.7873258 108.613595,9.66272636 105.595905,9.66272636 Z M46.8708861,10.2453766 L42.8573464,10.2453766 C42.8573464,10.2453766 42.8513813,4.95894511 42.8513813,4.95800585 C42.8513813,4.75763179 42.7477777,4.65775784 42.5157685,4.65775784 L37.0467554,4.65775784 C36.8338972,4.65775784 36.7199332,4.75105701 36.7199332,4.95487501 L36.7199332,10.4188254 C36.7199332,10.4188254 33.9791477,11.0788075 33.7936031,11.1320318 C33.6093143,11.1852562 33.4733739,11.354948 33.4733739,11.5575136 L33.4733739,14.9911112 C33.4733739,15.2381348 33.6711625,15.4372565 33.9157298,15.4372565 L36.7199332,15.4372565 C36.7199332,15.4372565 36.7199332,19.0286486 36.7199332,23.6976775 C36.7199332,29.8331941 41.0354931,30.4358817 43.9473816,30.4358817 C45.2782166,30.4358817 46.8699443,30.0097737 47.1327206,29.9130306 C47.2915794,29.8547969 47.3838808,29.6904276 47.3838808,29.5125956 L47.3885901,25.7355444 C47.3885901,25.4891469 47.1798132,25.2897121 46.9449784,25.2897121 C46.7107715,25.2897121 46.1126963,25.3845767 45.496726,25.3845767 C43.5251185,25.3845767 42.8573464,24.47037 42.8573464,23.2872238 C42.8573464,22.1050168 42.8570324,15.4372565 42.8570324,15.4372565 L46.8708861,15.4372565 C47.1154534,15.4372565 47.313556,15.2381348 47.313556,14.9911112 L47.313556,10.6902696 C47.313556,10.4438721 47.1154534,10.2453766 46.8708861,10.2453766" id="Github" fill="#444444"></path>
    </g>
</svg>