<?xml version="1.0" encoding="UTF-8"?>
<svg width="61px" height="61px" viewBox="0 0 61 61" version="1.1" xmlns="http://www.w3.org/2000/svg" xmlns:xlink="http://www.w3.org/1999/xlink">
    <!-- Generator: Sketch 52.3 (67297) - http://www.bohemiancoding.com/sketch -->
    <title>Slice 1</title>
    <desc>Created with Sketch.</desc>
    <g id="Page-1" stroke="none" stroke-width="1" fill="none" fill-rule="evenodd">
        <path d="M30.4962364,60.9926141 C30.1931095,60.9926141 29.8912532,60.9871078 29.5899617,60.9783543 L35.8223477,43.8499172 L44.3994142,43.8499172 C45.9048835,43.8499172 47.5574689,42.6926132 48.0723752,41.2786326 L54.8340685,22.7061423 C55.940263,19.6654134 54.1985891,17.1777111 50.9630231,17.1777111 L39.0639846,17.1777111 L29.0799969,44.6124643 L29.076326,44.6124643 L23.4163093,60.1645565 C9.98808218,56.9721936 0,44.9011902 0,30.4963776 C0,16.5067939 9.42008978,4.71858666 22.2626762,1.1258194 L16.4225057,17.1777111 L16.4208115,17.1777111 L6.71185456,43.8499172 L13.1750801,43.8504819 L21.4317949,21.1857072 L26.2891677,21.1857072 L18.0324528,43.8504819 L24.4932782,43.8516114 L32.1876481,22.7061423 C33.2945485,19.6654134 31.5527334,17.1777111 28.3201323,17.1777111 L22.8871431,17.1777111 L29.1256,0.0320492855 C29.580361,0.0118596475 30.0368163,0 30.4962364,0 C47.3389125,0 60.9924729,13.6535604 60.9924729,30.4963776 C60.9924729,47.3387713 47.3389125,60.9926141 30.4962364,60.9926141 Z M48.9481537,21.1694708 L44.0920516,21.1694708 L37.2915321,39.8283672 L42.1477754,39.8283672 L48.9481537,21.1694708 Z" id="Shape" fill="#28C2EE" fill-rule="nonzero"></path>
    </g>
</svg>