<?xml version="1.0" encoding="UTF-8"?>
<svg width="102px" height="41px" viewBox="0 0 102 41" version="1.1" xmlns="http://www.w3.org/2000/svg" xmlns:xlink="http://www.w3.org/1999/xlink">
    <!-- Generator: Sketch 52.3 (67297) - http://www.bohemiancoding.com/sketch -->
    <title>Untitled</title>
    <desc>Created with Sketch.</desc>
    <g id="Page-1" stroke="none" stroke-width="1" fill="none" fill-rule="evenodd">
        <path d="M0,0 L0,2.78197478 L19.786862,2.78197478 L19.786862,0 L0,0 Z M22.590299,0 L22.590299,2.78197478 L50.7874691,2.78197478 C50.7874691,2.78197478 47.9072841,0 44.0925773,0 L22.590299,0 Z M56.3188964,0 L56.3188964,2.78197478 L73.3777682,2.78197478 L72.3651952,0 L56.3188964,0 Z M85.608058,0 L84.595485,2.78197478 L101.499492,2.78197478 L101.499492,0 L85.608058,0 Z M0,5.41026952 L0,8.19224349 L19.786862,8.19224349 L19.786862,5.41026952 L0,5.41026952 Z M22.590299,5.41421016 L22.590299,8.19224349 L54.0594698,8.19224349 C54.0594698,8.19224349 53.6919252,6.05111648 53.0508674,5.41421016 L22.590299,5.41421016 Z M56.3188964,5.41421016 L56.3188964,8.19224349 L75.2480498,8.19224349 L74.3109226,5.41421016 L56.3188964,5.41421016 Z M83.5829121,5.41421016 L82.645786,8.19224349 L101.499492,8.19224349 L101.499492,5.41421016 L83.5829121,5.41421016 Z M5.68629018,10.820539 L5.68629018,13.6064529 L14.2554347,13.6064529 L14.2554347,10.820539 L5.68629018,10.820539 Z M28.2765896,10.820539 L28.2765896,13.6064529 L36.8457327,13.6064529 L36.8457327,10.820539 L28.2765896,10.820539 Z M45.180597,10.820539 L45.180597,13.6064529 L53.7497411,13.6064529 C53.7497422,13.6064529 54.2937505,12.1352074 54.2937505,10.820539 L45.180597,10.820539 Z M62.005187,10.820539 L62.005187,13.6064529 L77.1977488,13.6064529 L76.1851759,10.820539 L62.005187,10.820539 Z M81.7166021,10.820539 L80.7000586,13.6064529 L95.9680662,13.6064529 L95.9680662,10.820539 L81.7166021,10.820539 Z M5.68629018,16.2347497 L5.68629018,19.0167225 L14.2554347,19.0167225 L14.2554347,16.2347497 L5.68629018,16.2347497 Z M28.2765896,16.2347497 L28.2765896,19.0167225 L50.1640433,19.0167225 C50.1640443,19.0167214 51.9949643,17.5892635 52.5783333,16.2347497 L28.2765896,16.2347497 Z M62.005187,16.2347497 L62.005187,19.0167225 L70.5743311,19.0167225 L70.5743311,17.4681169 L71.1183405,19.0167225 L86.8152035,19.0167225 L87.3989221,17.4681169 L87.3989221,19.0167225 L95.9680662,19.0167225 L95.9680662,16.2347497 L79.8820582,16.2347497 L79.0283201,18.5911516 L78.1706125,16.2347497 L62.005187,16.2347497 Z M5.68629018,21.6450192 L5.68629018,24.426992 L14.2554347,24.426992 L14.2554347,21.6450192 L5.68629018,21.6450192 Z M28.2765896,21.6450192 L28.2765896,24.426992 L52.5783333,24.426992 C51.9948383,23.076892 50.1640433,21.6450192 50.1640433,21.6450192 L28.2765896,21.6450192 Z M62.005187,21.6450192 L62.005187,24.426992 L70.5743311,24.426992 L70.5743311,21.6450192 L62.005187,21.6450192 Z M72.1309135,21.6450192 L73.1673121,24.426992 L84.9369806,24.426992 L85.9217572,21.6450192 L72.1309135,21.6450192 Z M87.3989221,21.6450192 L87.3989221,24.426992 L95.9680662,24.426992 L95.9680662,21.6450192 L87.3989221,21.6450192 Z M5.68629018,27.0552888 L5.68629018,29.8372615 L14.2554347,29.8372615 L14.2554347,27.0552888 L5.68629018,27.0552888 Z M28.2765896,27.0552888 L28.2765896,29.8372615 L36.8457327,29.8372615 L36.8457327,27.0552888 L28.2765896,27.0552888 Z M45.180597,27.0552888 L45.180597,29.8372615 L54.2937505,29.8372615 C54.2937526,28.5243619 53.7497411,27.0552888 53.7497411,27.0552888 L45.180597,27.0552888 Z M62.005187,27.0552888 L62.005187,29.8372615 L70.5743311,29.8372615 L70.5743311,27.0552888 L62.005187,27.0552888 Z M74.0766409,27.0552888 L75.0812726,29.8372615 L82.9713971,29.8372615 L83.98397,27.0552888 L74.0766409,27.0552888 Z M87.3989221,27.0552888 L87.3989221,29.8372615 L95.9680662,29.8372615 L95.9680662,27.0552888 L87.3989221,27.0552888 Z M0.154863297,32.4655583 L0.154863297,35.2514722 L19.9417253,35.2514722 L19.9417253,32.4655583 L0.154863297,32.4655583 Z M22.590299,32.4655583 L22.590299,35.2514722 L53.0508674,35.2514722 C53.6919252,34.6135575 54.0594698,32.4655583 54.0594698,32.4655583 L22.590299,32.4655583 Z M56.4737597,32.4655583 L56.4737597,35.2514722 L70.5743311,35.2514722 L70.5743311,32.4655583 L56.4737597,32.4655583 Z M76.0263399,32.4655583 L77.058767,35.2514722 L81.0733202,35.2514722 L82.0422132,32.4655583 L76.0263399,32.4655583 Z M87.3989221,32.4655583 L87.3989221,35.2514722 L101.654357,35.2514722 L101.654357,32.4655583 L87.3989221,32.4655583 Z M0.154863297,37.8797679 L0.154863297,40.6617427 L19.9417253,40.6617427 L19.9417253,37.8797679 L0.154863297,37.8797679 Z M22.590299,37.8797679 L22.590299,40.6578026 L44.0925773,40.6578026 C47.907283,40.6578006 50.7874691,37.8797679 50.7874691,37.8797679 L22.590299,37.8797679 Z M56.4737597,37.8797679 L56.4737597,40.6617427 L70.5743311,40.6617427 L70.5743311,37.8797679 L56.4737597,37.8797679 Z M77.9839812,37.8797679 L78.9767001,40.6538604 L79.1474468,40.6578026 L80.1560492,37.8797679 L77.9839812,37.8797679 Z M87.3989221,37.8797679 L87.3989221,40.6617427 L101.654357,40.6617427 L101.654357,37.8797679 L87.3989221,37.8797679 Z" id="Shape" fill="#2863EE" fill-rule="nonzero"></path>
    </g>
</svg>