<?xml version="1.0" encoding="UTF-8"?>
<svg width="151px" height="39px" viewBox="0 0 151 39" version="1.1" xmlns="http://www.w3.org/2000/svg" xmlns:xlink="http://www.w3.org/1999/xlink">
    <!-- Generator: Sketch 52.3 (67297) - http://www.bohemiancoding.com/sketch -->
    <title>Untitled</title>
    <desc>Created with Sketch.</desc>
    <g id="Page-1" stroke="none" stroke-width="1" fill="none" fill-rule="evenodd">
        <path d="M30.89487,7.45737 L38.35237,7.45737 L38.35237,38.35237 L7.45737,38.35237 L7.45737,30.89612 L30.89487,30.89612 L30.89487,7.4575 L7.45625,7.4575 L7.45625,30.895 L0,30.895 L0,0 L30.895,0 L30.895,7.4575 Z M65.21,16.54662 L61.9675,16.54662 L61.9675,5.70662 L57.28625,12.56912 L55.33625,12.56912 L50.63,5.70662 L50.63,16.54662 L47.3875,16.54662 L47.3875,0.01412 L50.63,0.01412 L56.335,8.24287 L62.04125,0.01412 L65.21,0.01412 L65.21,16.54662 Z M76.7765,0.014 L76.7765,16.5465 L73.53275,16.5465 L73.53275,0.014 L76.7765,0.014 Z M101.3155,11.20087 L101.3155,14.90587 C101.3155,15.82462 100.608,16.54587 99.68175,16.54587 L86.7105,16.54587 C85.80925,16.54587 85.10175,15.82462 85.10175,14.90587 L85.10175,1.67962 C85.10175,0.73462 85.80925,0.01462 86.7105,0.01462 L99.68175,0.01462 C100.608,0.01462 101.3155,0.73462 101.3155,1.67962 L101.3155,5.35962 L98.073,4.98587 L98.073,3.24587 L88.34425,3.24587 L88.34425,13.31462 L98.073,13.31462 L98.073,11.59837 L101.3155,11.20087 Z M125.85462,16.546 L120.97712,9.9335 L124.22087,9.9335 C125.14587,9.9335 125.85462,9.21225 125.85462,8.2935 L125.85462,1.67975 C125.85462,0.73475 125.14587,0.0135 124.22087,0.0135 L109.63962,0.0135 L109.63962,16.546 L112.88337,16.546 L112.88337,9.9335 L116.90712,9.9335 L121.75712,16.546 L125.85462,16.546 Z M122.61087,6.701 L112.88462,6.701 L112.88462,3.24475 L122.61087,3.24475 L122.61087,6.701 Z M150.39187,1.68 C150.39187,0.735 149.68562,0.01375 148.75937,0.01375 L135.78812,0.01375 C134.88562,0.01375 134.17812,0.735 134.17812,1.68 L134.17812,14.905 C134.17812,15.82625 134.88562,16.54625 135.78812,16.54625 L148.75937,16.54625 C149.68562,16.54625 150.39187,15.82625 150.39187,14.905 L150.39187,1.68 Z M147.14937,13.31375 L137.42187,13.31375 L137.42187,3.24625 L147.14937,3.24625 L147.14937,13.31375 Z M63.60012,25.03487 L50.62887,25.03487 L50.62887,28.43987 L60.35637,28.43987 L60.35637,31.69612 L50.62887,31.69612 L50.62887,38.33487 L47.38637,38.33487 L47.38637,21.80362 L63.60012,21.80362 L63.60012,25.03487 Z M84.32987,23.46837 C84.32987,22.52337 83.62237,21.80337 82.69487,21.80337 L69.72487,21.80337 C68.82362,21.80337 68.11737,22.52337 68.11737,23.46837 L68.11737,36.69462 C68.11737,37.61462 68.82362,38.33462 69.72487,38.33462 L82.69487,38.33462 C83.62237,38.33462 84.32987,37.61462 84.32987,36.69462 L84.32987,23.46837 Z M81.08737,35.10337 L71.35987,35.10337 L71.35987,25.03587 L81.08737,25.03587 L81.08737,35.10337 Z M106.349,32.98962 L106.349,36.69462 C106.349,37.61462 105.64275,38.33462 104.71525,38.33462 L91.74525,38.33462 C90.84275,38.33462 90.1365,37.61462 90.1365,36.69462 L90.1365,23.46837 C90.1365,22.52337 90.84275,21.80212 91.74525,21.80212 L104.71525,21.80212 C105.64275,21.80212 106.349,22.52337 106.349,23.46837 L106.349,27.14712 L103.1065,26.77587 L103.1065,25.03587 L93.379,25.03587 L93.379,35.10337 L103.1065,35.10337 L103.1065,33.38712 L106.349,32.98962 Z M128.36887,21.80212 L128.36887,36.69462 C128.36887,37.61462 127.66262,38.33462 126.73512,38.33462 L113.76387,38.33462 C112.86262,38.33462 112.15637,37.61462 112.15637,36.69462 L112.15637,21.80212 L115.39762,21.80212 L115.39762,35.10337 L125.12762,35.10337 L125.12762,21.80212 L128.36887,21.80212 Z M150.38825,30.10587 L150.38825,36.69462 C150.38825,37.61462 149.682,38.33462 148.7545,38.33462 L135.78325,38.33462 C134.882,38.33462 134.177,37.61462 134.177,36.69462 L134.177,32.98962 L137.417,33.38712 L137.417,35.10337 L147.147,35.10337 L147.147,31.69712 L135.78325,31.69712 C134.882,31.69712 134.177,30.95212 134.177,30.03212 L134.177,23.46837 C134.177,22.52337 134.882,21.80212 135.78325,21.80212 L148.7545,21.80212 C149.682,21.80212 150.38825,22.52337 150.38825,23.46837 L150.38825,27.14712 L147.147,26.77587 L147.147,25.03587 L137.417,25.03587 L137.417,28.44087 L148.7545,28.44087 C149.682,28.44087 150.38825,29.18712 150.38825,30.10587 Z" id="shape" fill="#6683EA" fill-rule="nonzero"></path>
    </g>
</svg>