<?xml version="1.0" encoding="UTF-8"?>
<svg width="151px" height="41px" viewBox="0 0 151 41" version="1.1" xmlns="http://www.w3.org/2000/svg" xmlns:xlink="http://www.w3.org/1999/xlink">
    <!-- Generator: Sketch 52.3 (67297) - http://www.bohemiancoding.com/sketch -->
    <title>Untitled 2</title>
    <desc>Created with Sketch.</desc>
    <g id="Page-1" stroke="none" stroke-width="1" fill="none" fill-rule="evenodd">
        <path d="M20.6882055,38.0408028 C18.4248935,38.4382488 16.1217634,38.5574091 13.7392911,38.8747783 L6.4724199,17.5910649 L6.4724199,39.788243 C4.20910792,40.0264168 2.14429856,40.3440797 0,40.6617427 L0,3.55271368e-14 L6.03589043,3.55271368e-14 L14.2951279,23.0711186 L14.2951279,3.55271368e-14 L20.6882055,3.55271368e-14 L20.6882055,38.0408028 Z M33.1965158,14.8907827 C35.6586243,14.8907827 39.4309089,14.7716223 41.6942209,14.7716223 L41.6942209,21.1248819 C38.8747783,21.1248819 35.5791351,21.1248819 33.1965158,21.2440422 L33.1965158,30.6948831 C36.9292762,30.4567094 40.6618896,30.1387525 44.4340273,30.0195922 L44.4340273,36.1343841 L26.8429624,37.5244902 L26.8429624,6.39488462e-14 L44.4340273,6.39488462e-14 L44.4340273,6.35340648 L33.1965158,6.35340648 L33.1965158,14.8907827 Z M68.0606888,6.35355341 L61.4691085,6.35355341 L61.4691085,35.5791351 C59.32481,35.5791351 57.1805114,35.5791351 55.1159959,35.6583304 L55.1159959,6.35355341 L48.5244157,6.35355341 L48.5244157,0 L68.0609826,0 L68.0606888,6.35355341 Z M78.3848825,14.4541063 L87.0812371,14.4541063 L87.0812371,20.8073658 L78.3848825,20.8073658 L78.3848825,35.221801 L72.1501956,35.221801 L72.1501956,6.39488462e-14 L89.9005327,6.39488462e-14 L89.9005327,6.35340648 L78.3848825,6.35340648 L78.3848825,14.4541063 Z M100.224726,29.662405 C103.838326,29.7416003 107.491304,30.020033 111.025562,30.2182417 L111.025562,36.4923059 C105.347299,36.134678 99.6688897,35.7777846 93.8714669,35.6583304 L93.8714669,3.55271368e-14 L100.224726,3.55271368e-14 L100.224726,29.662405 Z M116.386161,36.9291293 C118.411299,37.0484365 120.555598,37.1675969 122.620407,37.4054768 L122.620407,7.10542736e-15 L116.386161,7.10542736e-15 L116.386161,36.9291293 Z M150.45647,3.55271368e-14 L142.395442,19.3382113 L150.45647,40.6617427 C148.073704,40.3440797 145.691232,39.9072564 143.308613,39.5101042 L138.742318,27.756574 L134.096827,38.5574091 C131.793256,38.1599631 129.569615,38.0408028 127.266926,37.7231398 L135.446821,19.0997437 L128.06079,3.97031427e-14 L134.890397,3.97031427e-14 L139.059834,10.6816747 L143.507409,3.97031427e-14 L150.45647,3.55271368e-14 Z" id="Shape" fill="#FF315F" fill-rule="nonzero"></path>
    </g>
</svg>