<?xml version="1.0" encoding="UTF-8"?>
<svg width="180px" height="60px" viewBox="0 0 180 60" version="1.1" xmlns="http://www.w3.org/2000/svg" xmlns:xlink="http://www.w3.org/1999/xlink">
    <!-- Generator: Sketch 52.3 (67297) - http://www.bohemiancoding.com/sketch -->
    <title>Slice 1</title>
    <desc>Created with Sketch.</desc>
    <g id="Page-1" stroke="none" stroke-width="1" fill="none" fill-rule="evenodd">
        <path d="M27.1749966,21.0041872 C27.7897573,20.5582027 28.5358413,20.2481203 29.3724101,20.0525147 C44.1895571,13.7691957 63.5877344,8.16811197 85.1420574,4.41445732 C134.538205,-4.19337128 176.550311,0.172519383 178.982145,14.1575355 C180.278234,21.5849581 170.143929,30.2339919 152.951576,38.0004712 C152.32787,38.4562384 151.576445,38.7735738 150.748212,38.9742645 C135.808715,45.4354645 116.014508,51.2109902 93.9604089,55.0520995 C44.566229,63.6559931 2.54625293,59.2901024 0.110483373,45.3031188 C-1.20793462,37.7283438 9.35988355,28.8856728 27.1749966,21.0041872 Z M27.1749966,21.0041872 C26.2784921,21.6545656 25.661264,22.5939578 25.4499633,23.8888087 C25.316173,24.7210628 25.296498,25.4628117 25.4912808,26.3914734 C26.2999249,30.174983 32.8772897,31.2708825 33.8295614,33.667302 C34.0105718,34.1158929 33.9554817,34.6923714 33.870879,35.0406196 C33.7154462,35.6564482 33.2983354,36.2840819 32.0666781,36.2840819 C30.905851,36.2840819 30.2014846,35.6190657 30.2014846,34.6018663 L30.2014846,32.8094704 L25.2355054,32.8094704 L25.2315704,34.2437806 C25.2315704,38.3716033 28.4818864,39.6170332 31.9643679,39.6170332 C35.3130592,39.6170332 38.0714994,38.471946 38.5102527,35.3869002 C38.7345481,33.7873197 38.5673103,32.7406078 38.4905777,32.3451396 C37.7094787,28.4691573 30.6815555,27.3122651 30.1581996,25.1440761 C30.0696619,24.7722179 30.0952395,24.3787172 30.1385245,24.1681943 C30.2664123,23.5779432 30.671718,22.9266994 31.8305777,22.9266994 C32.9127047,22.9266994 33.5521434,23.5956507 33.5521434,24.6069476 C33.5521434,24.9473257 33.5521434,25.7500672 33.5521434,25.7500672 L38.1698746,25.7500672 L38.1698746,24.4495473 C38.1698746,20.4161647 34.5496678,19.7865636 31.9269854,19.7865636 C31.0184736,19.7865636 30.1557715,19.8693501 29.3724101,20.0525147 C28.6282827,20.3680674 27.8957091,20.6853407 27.1749966,21.0041872 Z M152.951576,38.0004712 C153.945535,37.2741449 154.615128,36.1962473 154.754305,34.6785989 C154.809395,34.0608028 154.817265,33.8050273 154.8212,33.4587466 L154.8212,28.4888323 L148.25564,28.4888323 L148.25564,31.1921824 L150.156249,31.1921824 L150.156249,33.8797924 C150.158216,34.1139254 150.148379,34.3716683 150.114931,34.5841587 C150.028361,35.0780022 149.560095,35.9259962 148.218258,35.9259962 C146.878388,35.9259962 146.412089,35.0799697 146.331422,34.5841587 C146.294039,34.3716683 146.280267,34.1139254 146.284202,33.8797924 L146.284202,25.4116566 C146.284202,25.112596 146.305844,24.7820554 146.362902,24.538085 C146.461277,24.0776891 146.856745,23.1883774 148.206453,23.1883774 C149.617153,23.1883774 149.973271,24.1288442 150.051971,24.538085 C150.107061,24.8017304 150.116899,25.2444188 150.112964,25.2424513 L150.112964,26.2793257 L154.78185,26.2793257 L154.78185,25.6615296 C154.78185,25.6615296 154.801525,25.0319284 154.740533,24.4416773 C154.400154,20.9749358 151.525632,19.8672312 148.241868,19.8672312 C144.954169,19.8672312 142.148509,20.9808383 141.737301,24.4416773 C141.701886,24.7505753 141.660568,25.3329564 141.660568,25.6615296 L141.656633,33.4587466 C141.662536,33.8050273 141.670406,34.0608028 141.723528,34.6785989 C142.036361,38.0469652 144.954169,39.24911 148.241868,39.24911 C149.117177,39.24911 149.966873,39.1635921 150.748212,38.9742645 C151.494902,38.6513276 152.229465,38.3266779 152.951576,38.0004712 Z M132.492001,34.9127319 L132.389691,34.9127319 L128.13398,20.3748472 L121.257555,20.3748472 L121.257555,38.6982089 L125.812326,38.6982089 L125.558518,23.6605783 L125.656893,23.6605783 L130.231339,38.6982089 L136.822477,38.6982089 L136.822477,20.3748472 L132.238193,20.3748472 L132.492001,34.9127319 Z M49.1623176,22.0905104 L49.2665953,22.0905104 L51.7338449,38.8910243 L56.7135967,38.8910243 L53.2960428,20.3748472 L45.0600724,20.3748472 L41.6267785,38.8910243 L46.6262054,38.8910243 L49.1623176,22.0905104 Z M70.7556705,34.5290686 L70.6572953,34.5290686 L68.371056,20.3748472 L60.8158419,20.3748472 L60.4066011,38.8910243 L65.0440073,38.8910243 L65.16009,22.2439757 L65.2604327,22.2439757 L68.3572835,38.8910243 L73.0556823,38.8910243 L76.1505656,22.2439757 L76.2469733,22.2439757 L76.3689585,38.8910243 L80.9965271,38.8910243 L80.5951564,20.3748472 L73.0438773,20.3748472 L70.7556705,34.5290686 Z M94.039109,33.6338545 C94.2220869,34.0785103 94.1630618,34.6392488 94.0804266,34.987497 C93.9289288,35.6013581 93.5157531,36.2191543 92.2919658,36.2191543 C91.1468786,36.2191543 90.4484148,35.5541381 90.4484148,34.5605487 L90.4444798,32.7838929 L85.5296556,32.7838929 L85.5237531,34.198528 C85.5237531,38.2850332 88.7445566,39.518658 92.1916231,39.518658 C95.5048993,39.518658 98.2377619,38.3893109 98.6686452,35.3318101 C98.8929406,33.7440347 98.7335728,32.7110952 98.6529052,32.323497 C97.8757412,28.4829298 90.9186482,27.3378427 90.4011947,25.1912962 C90.3126571,24.8214055 90.3382346,24.4318398 90.3834872,24.2331219 C90.5153099,23.6389358 90.9127457,23.0034321 92.0598003,23.0034321 C93.1320898,23.0034321 93.757756,23.6566433 93.757756,24.6600702 C93.757756,24.9965133 93.757756,25.7913848 93.757756,25.7913848 L98.3400721,25.7913848 L98.3400721,24.5046374 C98.3400721,20.5145399 94.7493779,19.8888738 92.152273,19.8888738 C88.8960544,19.8888738 86.2261519,20.9631308 85.7441135,23.9557039 C85.6103233,24.7761529 85.5965507,25.5041293 85.7873986,26.428856 C86.5842376,30.1730155 93.0966748,31.261045 94.039109,33.6338545 Z M109.592226,36.1207791 C108.297608,36.1207791 107.908042,35.2314675 107.8077,34.7769741 C107.772285,34.5782562 107.764415,34.3087082 107.764415,34.0686728 L107.764415,20.3669772 L103.085691,20.3669772 L103.085691,33.6495945 C103.075853,33.9899726 103.109301,34.6904039 103.125041,34.8655118 C103.449679,38.3224157 106.184509,39.4438928 109.590258,39.4438928 C112.992072,39.4438928 115.724935,38.3224157 116.053508,34.8655118 C116.069248,34.6904039 116.102695,33.9899726 116.092858,33.6495945 L116.092858,20.3669772 L111.410199,20.3669772 L111.410199,34.0686728 C111.414134,34.3087082 111.404297,34.5762887 111.366914,34.7769741 C111.278376,35.2314675 110.877006,36.1207791 109.592226,36.1207791 Z" id="Combined-Shape" fill="#6086EB" fill-rule="nonzero"></path>
    </g>
</svg>