<?xml version="1.0" encoding="UTF-8"?>
<svg width="158px" height="60px" viewBox="0 0 158 60" version="1.1" xmlns="http://www.w3.org/2000/svg" xmlns:xlink="http://www.w3.org/1999/xlink">
    <!-- Generator: Sketch 52.3 (67297) - http://www.bohemiancoding.com/sketch -->
    <title>Untitled</title>
    <desc>Created with Sketch.</desc>
    <g id="Page-1" stroke="none" stroke-width="1" fill="none" fill-rule="evenodd">
        <path d="M70.845379,32.3359746 C69.7110385,31.7251759 69.122054,31.2016341 69.122054,30.4817642 C69.122054,29.5655661 69.9291809,28.9765817 71.2162211,28.9765817 C72.6995893,28.9765817 74.0084437,29.5873804 74.0084437,29.5873804 L75.0555272,26.4025014 C75.0555272,26.4025014 74.0957007,25.6608172 71.2816638,25.6608172 C67.3551006,25.6608172 64.6283207,27.9076839 64.6283207,31.0707487 C64.6283207,32.8595163 65.8935466,34.2338134 67.5950573,35.2154542 C68.9693544,36.0007668 69.4492676,36.5461228 69.4492676,37.3750639 C69.4492676,38.2258193 68.7730262,38.9020607 67.4859861,38.9020607 C65.5881472,38.9020607 63.7993796,37.9204199 63.7993796,37.9204199 L62.6868533,41.1052989 C62.6868533,41.1052989 64.3447356,42.2178251 67.115144,42.2178251 C71.1507783,42.2178251 74.0520722,40.2327293 74.0520722,36.655194 C74.0738864,34.7137267 72.6123324,33.3612438 70.845379,32.3359746 Z M86.9442878,25.639003 C84.959192,25.639003 83.3885668,26.5770153 82.1887836,28.0167551 L82.1233409,27.9949409 L83.8466658,18.9638457 L79.3529324,18.9638457 L74.9900845,41.93424 L79.4838179,41.93424 L80.9890004,34.0811138 C81.5779849,31.1143772 83.1049817,29.281981 84.5447215,29.281981 C85.5481765,29.281981 85.9408328,29.9582225 85.9408328,30.9398632 C85.9408328,31.550662 85.8753901,32.3141603 85.7445047,32.924959 L84.042994,41.9124258 L88.5367273,41.9124258 L90.3036807,32.6195597 C90.5000089,31.6379189 90.6308943,30.45995 90.6308943,29.6964516 C90.6090801,27.1659998 89.2784115,25.639003 86.9442878,25.639003 Z M100.774516,25.639003 C95.3645843,25.639003 91.787049,30.5253927 91.787049,35.9571384 C91.787049,39.4474167 93.9466588,42.2396394 97.9822931,42.2396394 C103.283153,42.2396394 106.882503,37.4841351 106.882503,31.921504 C106.882503,28.6929966 104.984664,25.639003 100.774516,25.639003 Z M98.5712776,38.7929895 C97.0442808,38.7929895 96.3898536,37.4841351 96.3898536,35.8698814 C96.3898536,33.2958011 97.7205222,29.0856529 100.163717,29.0856529 C101.756157,29.0856529 102.279698,30.45995 102.279698,31.7906186 C102.279698,34.561027 100.94903,38.7929895 98.5712776,38.7929895 Z M118.378607,25.639003 C115.346428,25.639003 113.623103,28.3003402 113.623103,28.3003402 L113.55766,28.3003402 L113.819431,25.9007739 L109.849239,25.9007739 C109.652911,27.5368419 109.303883,30.0018509 108.933041,31.8560613 L105.813605,48.303998 L110.285524,48.303998 L111.528936,41.6506549 L111.616193,41.6506549 C111.616193,41.6506549 112.532391,42.2396394 114.255716,42.2396394 C119.534762,42.2396394 122.981412,36.8297079 122.981412,31.3543338 C123.003226,28.3439687 121.650743,25.639003 118.378607,25.639003 Z M114.081202,38.8584322 C112.903233,38.8584322 112.226992,38.204005 112.226992,38.204005 L112.968676,33.9938568 C113.492217,31.2016341 114.953772,29.3256095 116.524397,29.3256095 C117.898694,29.3256095 118.313164,30.5908354 118.313164,31.7906186 C118.313164,34.7137267 116.58984,38.8584322 114.081202,38.8584322 Z M129.416612,19.1819881 C127.976873,19.1819881 126.842532,20.3163285 126.842532,21.7778826 C126.842532,23.1085512 127.693288,24.0247493 128.958513,24.0247493 L129.023956,24.0247493 C130.420067,24.0247493 131.619851,23.086737 131.663479,21.4288548 C131.663479,20.1200004 130.79091,19.1819881 129.416612,19.1819881 Z M123.134111,41.9124258 L127.627845,41.9124258 L130.681838,25.9880308 L126.166291,25.9880308 L123.134111,41.9124258 Z M142.1125,25.9662166 L138.993064,25.9662166 L139.145763,25.2245325 C139.407534,23.6975357 140.323732,22.3232386 141.807101,22.3232386 C142.614227,22.3232386 143.24684,22.541381 143.24684,22.541381 L144.11941,19.0292884 C144.11941,19.0292884 143.334097,18.6366321 141.676215,18.6366321 C140.083776,18.6366321 138.491336,19.0947311 137.269739,20.1418146 C135.742742,21.450669 135.022872,23.3266936 134.673844,25.2245325 L134.542959,25.9662166 L132.448792,25.9662166 L131.794365,29.3474237 L133.888532,29.3474237 L131.510779,41.9124258 L136.026327,41.9124258 L138.404079,29.3474237 L141.501701,29.3474237 L142.1125,25.9662166 Z M152.932363,25.9880308 L157.622424,25.9880308 L152.125236,37.7677203 C150.183769,41.8033546 148.28593,44.7700912 146.235391,46.6897443 C144.621137,48.1949268 142.745113,48.936611 141.828915,49.1329391 L140.585503,45.3154472 C141.327187,45.0536763 142.2652,44.66102 143.115955,44.0502213 C144.163038,43.3303514 145.035608,42.3487106 145.55915,41.3452556 C145.668221,41.1271132 145.711849,40.930785 145.646407,40.6035714 L142.941441,25.9880308 L147.675131,25.9880308 C147.675131,25.9880308 148.7004,35.6953675 148.787657,36.9387791 L148.8531,36.9387791 C150.118326,33.0776587 152.932363,25.9880308 152.932363,25.9880308 Z M45.8585803,11.622657 C45.8936941,11.9386809 52.3546273,55.5850939 52.3546273,55.6202076 L33.9550131,59.5880634 L0,53.2324715 C0,53.2324715 4.35410716,19.5232547 4.529676,18.2942728 C4.74035861,16.7141533 4.81058614,16.6790395 6.46093321,16.152333 C6.74184335,16.0821055 8.8486694,15.4149439 11.8333396,14.501986 C12.992094,9.62117228 16.6439258,0.0351137675 24.3338408,0 C25.3170263,0 26.4757807,0.561820279 27.4238524,1.79080214 L27.7047625,1.79080214 C31.0054567,1.79080214 32.9016001,4.59990354 33.9198994,7.6548013 C35.0084262,7.30366363 35.6755877,7.09298103 35.7107015,7.09298103 C35.9916116,7.02275349 36.6587732,6.91741219 37.0099109,7.26854986 C37.3259348,7.61968754 40.5212876,10.7799266 40.5212876,10.7799266 C40.5212876,10.7799266 45.1211912,11.0959505 45.3318738,11.1310643 C45.5425564,11.1661781 45.8234665,11.3066331 45.8585803,11.622657 Z M32.0588697,8.25173535 C31.2161393,8.53264549 30.2329538,8.81355563 29.1795408,9.12957954 L29.1795408,8.49753172 C29.1795408,6.60138828 28.8986306,5.05638251 28.4772654,3.86251442 C30.19784,4.10831079 31.3565943,6.039568 32.0588697,8.25173535 Z M26.4055531,4.24876586 C26.8620321,5.44263396 27.178056,7.12809479 27.178056,9.41048968 L27.178056,9.72651358 C25.3170263,10.2883339 23.2804278,10.9203817 21.2438293,11.5524295 C22.4025836,7.19832233 24.5445235,5.05638251 26.4055531,4.24876586 Z M24.1231582,2.10682605 C24.4391821,2.10682605 24.7903198,2.21216735 25.1063437,2.42284995 C22.64838,3.58160428 20.0148474,6.49604698 18.8912069,12.3249324 C17.2759736,12.8165251 15.6607403,13.3081179 14.1859621,13.7645968 C15.5202852,9.34026214 18.6102968,2.10682605 24.1231582,2.10682605 Z M27.7047625,21.3140568 L25.4223676,28.0559002 C25.4223676,28.0559002 23.4208829,27.0024872 20.9980329,27.0024872 C17.4164287,27.0024872 17.2408598,29.2497683 17.2408598,29.8115886 C17.2408598,32.9016001 25.2819126,34.0603544 25.2819126,41.2937905 C25.2819126,46.9822209 21.6651945,50.6340527 16.8194946,50.6340527 C10.9906092,50.6340527 8.00593898,47.0173346 8.00593898,47.0173346 L9.55094475,41.8556108 C9.55094475,41.8556108 12.6058425,44.4891434 15.2042613,44.4891434 C16.8897221,44.4891434 17.5919975,43.1548202 17.5919975,42.1716347 C17.5919975,38.1335515 10.9906092,37.9579826 10.9906092,31.3565943 C10.9906092,25.8086191 14.9935787,20.4010989 23.0346314,20.4010989 C26.1948705,20.4362127 27.7047625,21.3140568 27.7047625,21.3140568 Z" id="Combined-Shape" fill="#00C496"></path>
    </g>
</svg>