<?xml version="1.0" encoding="UTF-8"?>
<svg width="167px" height="30px" viewBox="0 0 167 30" version="1.1" xmlns="http://www.w3.org/2000/svg" xmlns:xlink="http://www.w3.org/1999/xlink">
    <!-- Generator: Sketch 52.3 (67297) - http://www.bohemiancoding.com/sketch -->
    <title>Untitled</title>
    <desc>Created with Sketch.</desc>
    <g id="Page-1" stroke="none" stroke-width="1" fill="none" fill-rule="evenodd">
        <path d="M59.3075044,29.3091041 C53.2770034,29.3091041 47.6790672,27.5006223 43.9424297,24.1467411 C41.119393,21.612861 39.7628646,18.1710629 39.7628646,14.6286449 C39.7628646,11.1293498 41.1778929,7.66381742 43.9420954,5.14330868 C47.4123078,1.9806385 53.5390828,0 59.3075044,0 C65.6910104,0 70.800222,1.60791075 74.7060077,5.15200009 C77.4849187,7.67384597 78.82841,11.1240012 78.82841,14.6289792 C78.82841,18.0263175 77.4026846,21.6442838 74.7060077,24.1467411 C71.0689871,27.5223509 65.3533826,29.3091041 59.3075044,29.3091041 L59.3075044,25.4434326 C62.5082831,25.4434326 65.4774023,24.3382864 67.550972,22.2750795 C69.6101675,20.2259126 70.5695654,17.7070753 70.5695654,14.6286449 C70.5695654,11.6795829 69.5346191,8.92240036 67.550972,6.96683324 C65.5051479,4.95176339 62.4651603,3.81786874 59.3075044,3.81786874 C56.1401543,3.81786874 53.098161,4.94006341 51.0506655,6.96683324 C49.0777155,8.92173179 48.0400949,11.6869371 48.0400949,14.6286449 C48.0400949,17.5613271 49.0897498,20.324861 51.0506655,22.2754138 C53.0998324,24.3138836 56.1311286,25.4437669 59.3075044,25.4437669 L59.3075044,29.3094383 L59.3075044,29.3091041 Z M15.2306929,0.0140399691 C12.0048428,0.0140399691 8.34007661,0.617424355 5.22621204,2.00804987 C2.35236407,3.29036704 6.81096615e-07,5.36427105 6.81096615e-07,8.80239205 C-0.00133645882,11.8988738 1.96659921,13.7123698 1.91311361,13.6622271 C2.7501632,14.4327539 4.09766595,15.7448225 7.62069534,16.5153494 C9.19517759,16.8596629 12.5614273,17.3885017 15.9136371,17.7388324 C19.2411098,18.0898316 22.5157654,18.423448 23.8495625,18.7610758 C24.9092459,19.0308438 26.6893134,19.398223 26.6893134,21.3952415 C26.6893134,23.3842371 24.8139746,23.9912986 24.4880468,24.1230069 C24.1624532,24.2517066 21.9127153,25.2839786 17.8685356,25.2839786 C14.8827022,25.2839786 11.2931501,24.3860892 9.9847587,23.9180902 C8.47646488,23.3812285 6.89429408,22.6712072 5.4184259,20.8684084 C5.05138099,20.4214693 4.47239941,19.1923035 4.47239941,17.9751719 L0.812313179,17.9751719 L0.812313179,28.231035 L4.88056137,28.231035 L4.88056137,26.8454238 C4.88056137,26.6876413 5.0777895,26.0387941 5.76073372,26.3473392 C6.61048613,26.7334383 9.10492064,27.726599 11.713012,28.2711492 C13.8514331,28.7184225 15.2303586,29.0390018 17.888927,29.0390018 C22.2266089,29.0390018 24.5569095,28.3323234 26.1678288,27.8723472 C27.6854826,27.4377768 29.5608213,26.6575556 31.084158,25.442764 C31.9091733,24.785894 33.7183236,23.1021006 33.7183236,20.045733 C33.7183236,17.1120481 32.1438414,15.2911978 31.5899312,14.7372876 C30.83545,13.9824721 29.9138263,13.3974734 28.9534255,12.9465229 C28.1167102,12.5527352 26.7962846,12.079722 25.7158755,11.8153026 C23.6189058,11.3005037 18.8774077,10.6653622 16.6099527,10.4280199 C14.2321836,10.1796462 10.1074413,9.83800692 8.46008492,9.32822233 C7.96066316,9.17344838 6.94243112,8.68840088 6.94243112,7.50636919 C6.94243112,6.66564247 7.40809009,5.9529469 8.32837664,5.37697388 C9.78920199,4.46170161 12.7399355,3.89274857 15.8156916,3.89274857 C19.4520436,3.87937718 22.5314768,4.71074392 24.4903868,5.58657056 C25.1566167,5.88408419 25.9361693,6.31130039 26.5552651,6.81673928 C27.2539207,7.38636089 28.2347128,8.57006399 28.5893892,10.2210975 L31.8754105,10.2210975 L31.8754105,1.29368287 L28.2062986,1.29368287 L28.2062986,2.33130344 C28.2062986,2.66625699 27.8603136,3.10149603 27.2061179,2.74180539 C25.5641101,1.880353 20.9215603,0.0217285236 15.2300243,0.0140399691 L15.2306929,0.0140399691 Z M95.6375959,1.63632497 L113.535882,17.7889751 L113.352025,6.91368193 C113.333974,5.48762221 113.071226,4.89226066 111.528835,4.89226066 L108.163588,4.89226066 L108.163588,1.63899925 L123.467155,1.63899925 L123.467155,4.89226066 L120.184476,4.89226066 C118.611331,4.89226066 118.512048,5.39535955 118.492994,6.91368193 L118.770451,27.693839 L113.529531,27.693839 L92.9141762,9.29479383 L92.9185219,22.3526337 C92.9365733,23.7720077 93.003096,24.4405776 94.4655928,24.4405776 L98.1410561,24.4405776 L98.1410561,27.6925019 L83.1116035,27.6925019 L83.1116035,24.4409119 L86.6249386,24.4409119 C87.9373414,24.4409119 87.885193,23.1896832 87.885193,22.2787567 L87.885193,7.03736737 C87.885193,6.05356668 87.7471333,4.89460066 85.6866007,4.89460066 L82.8358184,4.89460066 L82.8358184,1.63632497 L95.6375959,1.63632497 Z M140.954605,24.4345605 C141.098347,24.4345605 141.736832,24.4161748 141.860517,24.3784006 C142.213856,24.2680866 142.453539,24.0160357 142.564521,23.7532877 C142.611321,23.6429737 142.634721,23.1549176 142.634721,23.0489493 L142.637395,17.9076463 C142.637395,17.7839609 142.62837,17.7304753 142.418439,17.4550244 C142.187782,17.154168 133.043416,6.79133362 132.624892,6.33503463 C132.105078,5.76842159 131.19248,4.89259495 129.805866,4.89259495 L126.625813,4.89259495 L126.625813,1.63799639 L144.572571,1.63799639 L144.572571,4.88858353 L142.409079,4.88858353 C141.908654,4.88858353 141.576041,5.3632682 142.003591,5.89076989 C142.003591,5.89076989 148.041781,13.1136654 148.098943,13.1892138 C148.155103,13.2660994 148.20324,13.284485 148.280126,13.2142852 C148.355674,13.1424139 154.469746,5.95695832 154.517883,5.90012987 C154.808711,5.55180492 154.611483,4.89226066 153.984699,4.89226066 L151.765381,4.89226066 L151.765381,1.63799639 L166.47392,1.63799639 L166.47392,4.89226066 L163.187899,4.89226066 C161.995838,4.89226066 161.510791,5.11288875 160.613904,6.12677509 C160.203737,6.59076264 150.96176,17.1397937 150.710378,17.4256074 C150.578669,17.5750327 150.590035,17.7832923 150.590035,17.9069777 L150.590035,23.0476121 C150.590035,23.151909 150.613435,23.6406337 150.660235,23.7502792 C150.771552,24.0143643 151.012571,24.2664152 151.365576,24.3753921 C151.489262,24.4135006 152.119054,24.4322205 152.262463,24.4322205 L155.623698,24.4322205 L155.623698,27.6861505 L137.769537,27.6861505 L137.769537,24.4318862 L140.955273,24.4345605 L140.954605,24.4345605 Z" id="path4258" fill="#444444" fill-rule="nonzero"></path>
    </g>
</svg>