<?xml version="1.0" encoding="UTF-8"?>
<svg width="144px" height="61px" viewBox="0 0 144 61" version="1.1" xmlns="http://www.w3.org/2000/svg" xmlns:xlink="http://www.w3.org/1999/xlink">
    <!-- Generator: Sketch 52.3 (67297) - http://www.bohemiancoding.com/sketch -->
    <title>Slice 1</title>
    <desc>Created with Sketch.</desc>
    <g id="Page-1" stroke="none" stroke-width="1" fill="none" fill-rule="evenodd">
        <path d="M111.359223,20.3308714 L105.569201,20.3308714 C105.43761,20.3308714 105.306018,20.4624628 105.306018,20.5940542 L105.306018,23.9496349 C105.306018,24.0812263 105.43761,24.2128177 105.569201,24.2128177 L111.359223,24.2128177 C111.490814,24.2128177 111.622405,24.0812263 111.622405,23.9496349 L111.622405,20.5940542 C111.688201,20.4624628 111.55661,20.3308714 111.359223,20.3308714 Z M111.293427,25.3313446 L100.108158,25.3313446 C99.9765664,25.3313446 99.7791793,25.462936 99.7133836,25.5945274 L98.2658782,31.0555705 L98.2000825,31.3187533 L96.4893943,25.462936 C96.4235986,25.3313446 96.2920072,25.1997532 96.0946201,25.1997532 L91.7521039,25.1997532 C91.6205125,25.1997532 91.4231254,25.3313446 91.3573297,25.462936 L89.7124372,30.9239791 L89.6466415,31.1871619 L89.5808458,31.0555705 L88.9228888,28.3579468 L88.1991361,25.6603231 C88.1333404,25.5287317 88.001749,25.3971403 87.8043619,25.3971403 L79.0535338,25.3971403 L79.0535338,20.6598499 C79.0535338,20.5282585 78.8561467,20.3308714 78.6587596,20.3966671 L73.1319208,22.1073553 C72.9345337,22.173151 72.868738,22.2389467 72.868738,22.3705381 L72.868738,25.3313446 L71.4212325,25.3313446 C71.2896411,25.3313446 71.1580497,25.462936 71.1580497,25.5945274 L71.1580497,29.8054522 C71.1580497,29.9370436 71.2896411,30.068635 71.4212325,30.068635 L72.868738,30.068635 L72.868738,35.2006996 C72.868738,38.8194631 74.842609,40.5301513 78.4613725,40.5301513 C79.9746736,40.5301513 81.422179,40.2011728 82.4091145,39.6748072 L82.4091145,35.332291 C82.4091145,35.1349039 82.2117274,35.0691082 82.080136,35.0691082 C81.4879747,35.332291 81.0274048,35.3980867 80.5010392,35.3980867 C79.5141037,35.3980867 78.9877381,35.0033125 78.9877381,33.8847856 L78.9877381,30.1344307 L82.1459317,30.1344307 C82.2775231,30.1344307 82.4091145,30.0028393 82.4091145,29.8712479 L82.4091145,26.3182801 L86.5542436,40.0695814 C86.6200393,40.2011728 86.7516307,40.3327642 86.9490178,40.3327642 L91.5547168,40.3327642 C91.6863082,40.3327642 91.8836953,40.2011728 91.949491,40.0695814 L93.923362,33.9505813 L94.9102975,37.1087749 L95.8314373,40.0037857 C95.897233,40.1353771 96.0288244,40.2669685 96.2262115,40.2669685 L100.831911,40.2669685 C100.963502,40.2669685 101.160889,40.1353771 101.226685,40.0037857 L105.43761,26.1866887 L105.43761,40.0037857 C105.43761,40.1353771 105.569201,40.2669685 105.700792,40.2669685 L111.293427,40.2669685 C111.425018,40.2669685 111.55661,40.1353771 111.55661,40.0037857 L111.55661,25.6603231 C111.55661,25.462936 111.425018,25.3313446 111.293427,25.3313446 Z M118.662545,20.3308714 L113.069911,20.3308714 C112.938319,20.3308714 112.806728,20.4624628 112.806728,20.5940542 L112.806728,40.0037857 C112.806728,40.1353771 112.938319,40.2669685 113.069911,40.2669685 L118.662545,40.2669685 C118.794137,40.2669685 118.925728,40.1353771 118.925728,40.0037857 L118.925728,20.5940542 C118.925728,20.4624628 118.794137,20.3308714 118.662545,20.3308714 Z M126.097459,20.3308714 L120.307438,20.3308714 C120.175846,20.3308714 120.044255,20.4624628 120.044255,20.5940542 L120.044255,23.9496349 C120.044255,24.0812263 120.175846,24.2128177 120.307438,24.2128177 L126.097459,24.2128177 C126.229051,24.2128177 126.360642,24.0812263 126.360642,23.9496349 L126.360642,20.5940542 C126.426438,20.4624628 126.294846,20.3308714 126.097459,20.3308714 Z M126.031664,25.3313446 L120.439029,25.3313446 C120.307438,25.3313446 120.175846,25.462936 120.175846,25.5945274 L120.175846,40.0037857 C120.175846,40.1353771 120.307438,40.2669685 120.439029,40.2669685 L126.031664,40.2669685 C126.163255,40.2669685 126.294846,40.1353771 126.294846,40.0037857 L126.294846,25.6603231 C126.294846,25.462936 126.163255,25.3313446 126.031664,25.3313446 Z M135.308857,25.0023661 C130.37418,25.0023661 126.887008,28.6211296 126.887008,32.8320544 L126.887008,32.8978501 C126.887008,37.1087749 130.37418,40.6617427 135.243062,40.6617427 C140.177739,40.6617427 143.664911,37.0429792 143.664911,32.8320544 L143.664911,32.7662587 C143.664911,28.5553339 140.177739,25.0023661 135.308857,25.0023661 Z M137.677503,32.8320544 C137.677503,34.2795598 136.690567,35.3980867 135.308857,35.3980867 C133.927148,35.3980867 132.874417,34.2137641 132.874417,32.7662587 L132.874417,32.700463 C132.874417,31.2529576 133.861352,30.1344307 135.243062,30.1344307 C136.624771,30.1344307 137.677503,31.3187533 137.677503,32.8320544 Z M30.496307,-3.55271368e-15 C13.6623456,-3.55271368e-15 0,13.6623456 0,30.496307 C0,47.3302685 13.6623456,60.9926141 30.496307,60.9926141 C47.3302685,60.9926141 60.9926141,47.3302685 60.9926141,30.496307 C60.9926141,13.6623456 47.3302685,-3.55271368e-15 30.496307,-3.55271368e-15 Z M30.496307,52.941589 C18.0538138,52.941589 8.05102506,42.9388003 8.05102506,30.496307 C8.05102506,18.0538138 18.0538138,8.05102506 30.496307,8.05102506 C42.9388003,8.05102506 52.941589,18.0538138 52.941589,30.496307 C52.941589,42.9388003 42.9388003,52.941589 30.496307,52.941589 Z M38.0593912,29.2764548 C41.5626614,29.2764548 44.402623,26.4364931 44.402623,22.9332229 C44.402623,19.4299527 41.5626614,16.589991 38.0593912,16.589991 C34.556121,16.589991 31.7161593,19.4299527 31.7161593,22.9332229 C31.7161593,26.4364931 34.556121,29.2764548 38.0593912,29.2764548 Z M38.0593912,44.402623 C41.5626614,44.402623 44.402623,41.5626614 44.402623,38.0593912 C44.402623,34.556121 41.5626614,31.7161593 38.0593912,31.7161593 C34.556121,31.7161593 31.7161593,34.556121 31.7161593,38.0593912 C31.7161593,41.5626614 34.556121,44.402623 38.0593912,44.402623 Z M22.9332229,44.402623 C26.4364931,44.402623 29.2764548,41.5626614 29.2764548,38.0593912 C29.2764548,34.556121 26.4364931,31.7161593 22.9332229,31.7161593 C19.4299527,31.7161593 16.589991,34.556121 16.589991,38.0593912 C16.589991,41.5626614 19.4299527,44.402623 22.9332229,44.402623 Z M22.9332229,29.2764548 C26.4364931,29.2764548 29.2764548,26.4364931 29.2764548,22.9332229 C29.2764548,19.4299527 26.4364931,16.589991 22.9332229,16.589991 C19.4299527,16.589991 16.589991,19.4299527 16.589991,22.9332229 C16.589991,26.4364931 19.4299527,29.2764548 22.9332229,29.2764548 Z" id="Twilio-Copy" fill="#FF315F"></path>
    </g>
</svg>