<?xml version="1.0" encoding="UTF-8"?>
<svg width="146px" height="31px" viewBox="0 0 146 31" version="1.1" xmlns="http://www.w3.org/2000/svg" xmlns:xlink="http://www.w3.org/1999/xlink">
    <!-- Generator: Sketch 52.3 (67297) - http://www.bohemiancoding.com/sketch -->
    <title>Untitled</title>
    <desc>Created with Sketch.</desc>
    <g id="Page-1" stroke="none" stroke-width="1" fill="none" fill-rule="evenodd">
        <path d="M22.9472212,0.735410945 L22.9472212,17.5243779 C22.9472212,23.130699 20.4655217,25.458917 14.6447266,25.458917 C8.82343152,25.458917 6.34173204,23.130699 6.34173204,17.5243779 L6.34173204,0 L0.735410945,0 C0.245470275,0 0,0.245470275 0,0.735410945 L0,17.7998445 C0,27.1752092 5.97427654,30.4533122 14.6447266,30.4533122 C23.3146767,30.4533122 29.2889532,27.1752092 29.2889532,17.7998445 L29.2889532,0 L23.6821322,0 C23.1921915,0 22.9472212,0.245470275 22.9472212,0.735410945 M104.221879,4.87141009 C104.681324,4.87141009 104.895798,4.71842862 105.048779,4.38096948 L106.673082,0.367455503 C106.765071,0.122985107 106.673082,0 106.427612,0 L83.8483463,0 C81.7341024,0 80.9381987,0.643422084 80.9381987,2.08324773 L80.9381987,28.1550905 C80.9381987,29.3809421 81.5501246,29.9323753 83.1744279,29.9323753 L104.221879,29.9323753 C104.681324,29.9323753 104.895798,29.7788939 105.048779,29.4424347 L106.673082,25.4284207 C106.765071,25.1834504 106.673082,25.0609652 106.427612,25.0609652 L87.1574456,25.0609652 L87.1574456,19.7606071 C87.1574456,17.9223297 88.1683232,17.0949299 90.8944931,17.0949299 L99.2589802,17.0949299 C99.7184245,17.0949299 99.9323986,16.9424483 100.08588,16.6054891 L101.648691,12.7449566 C101.74018,12.4994864 101.648691,12.3775011 101.403221,12.3775011 L87.1574456,12.3775011 L87.1574456,4.87141009 L104.221879,4.87141009 M58.5909049,25.1224578 L47.5277446,25.1224578 L47.5277446,19.6381219 C47.5277446,17.7998445 48.5386222,16.9729447 51.2657919,16.9729447 L58.5909049,16.9729447 C62.1139783,16.9729447 63.0943596,18.3207814 63.0943596,21.0784475 C63.0943596,23.8356136 62.1139783,25.1224578 58.5909049,25.1224578 Z M47.5277446,4.80991754 L57.4265459,4.80991754 C60.7351452,4.80991754 61.6545339,6.05626661 61.6545339,8.6394538 C61.6545339,11.2231409 60.7351452,12.46949 57.4265459,12.46949 L47.5277446,12.46949 L47.5277446,4.80991754 Z M64.4731926,14.154286 C66.9238958,12.8674418 67.9347734,10.4472349 67.9347734,7.59807991 C67.9347734,0.98038128 62.5429263,0 56.9671015,0 L44.2221449,0 C42.1079009,0 41.3119973,0.643422084 41.3119973,2.08324773 L41.3119973,28.1550905 C41.3119973,29.3809421 41.9244231,29.9323753 43.5482265,29.9323753 L59.234327,29.9323753 C65.147111,29.9323753 69.374599,27.6346536 69.374599,21.660377 C69.374599,18.0758111 67.8427845,15.0426784 64.4731926,14.154286 Z M134.10676,13.8783194 L123.690022,13.8783194 L123.690022,4.81041748 L134.10676,4.81041748 C137.997289,4.81041748 138.855185,6.31123574 138.855185,9.34436844 C138.855185,12.4079974 137.997289,13.8783194 134.10676,13.8783194 Z M145.809843,29.4114384 L139.100656,17.8918334 C142.439751,17.0344372 145.135925,14.8287043 145.135925,9.22188327 C145.135925,1.9612625 140.63197,0 133.187372,0 L120.381422,0 C118.267678,0 117.470775,0.643422084 117.470775,2.08324773 L117.470775,29.1969644 C117.470775,29.686905 117.716245,29.9323753 118.206186,29.9323753 L123.690022,29.9323753 L123.690022,21.2009327 C123.690022,19.3626553 124.700899,18.5352555 127.428069,18.5352555 L132.942401,18.5352555 L139.008167,29.4424347 C139.192144,29.7483976 139.376122,29.9323753 139.835567,29.9323753 L145.534376,29.9323753 C145.932828,29.9323753 145.932828,29.5949162 145.809843,29.4114384 Z" id="Uber" fill="#444444" fill-rule="nonzero"></path>
    </g>
</svg>